<?xml version="1.0" encoding="UTF-8" standalone="no"?>
<svg xmlns="http://www.w3.org/2000/svg" xmlns:xlink="http://www.w3.org/1999/xlink" width="215.696mm" height="161.519mm" viewBox="151.152069 336.240417 215.695831 161.519165">
    <path transform="translate(151.051758,336.137207)" style="stroke:#ff0000;stroke-width:0.05mm;fill:none" d="M208.873917,4.637542L209.343948,7.114859L209.502274,7.992906L209.513275,8.053736L209.592117,8.487528L209.593201,8.493244L209.607651,8.572517L209.608292,8.576616L209.950745,10.912212L210.254562,12.96717L210.932007,17.549166C213.309891,32.665771,216.31192,59.503288,215.721313,71.3685L215.715164,71.475494L215.688843,71.929672L215.61615,73.183479L215.529861,73.632698L215.491257,73.83374L215.490829,73.835678L215.429886,74.089035L215.429886,74.089569L215.429581,74.090004L215.219147,74.507835L215.12468,74.694969L215.067078,74.786644L214.778259,74.981537L214.778046,74.981636L214.777832,74.981636L214.633087,75.026291L214.422012,75.073967L213.685364,75.240707L213.261063,75.336693L213.260742,75.336693L208.526886,75.98674L206.407852,76.277405L206.346497,76.286148L206.229889,76.302643L204.135788,76.599785L204.101913,76.604637L203.789032,76.649078L203.785904,76.649506L203.780624,76.650475L202.772171,76.818947L202.710922,76.829193L200.925064,77.116737L198.03801,77.58213L196.934875,77.759987L196.934219,77.760201L196.412201,77.873878L195.913269,77.981522L194.798904,78.221603L194.798355,78.221603L194.587723,78.305725L194.368774,78.38382L193.941879,78.535133L193.87944,78.55735L193.879227,78.55735L193.798889,78.638351L193.676147,78.720535L193.402634,78.903351L193.401978,78.903999L193.204178,79.2267L193.115509,79.371223L193.058121,79.469376L193.057907,79.469696L193.057907,79.46991L193.000107,79.667931L192.865952,80.126961L191.602005,81.572968L191.321686,82.069206L191.196365,82.291275L191.192703,82.297531L191.091095,82.47226L191.090561,82.472801L191.084946,82.488327L191.084534,82.489296L191.007202,82.702415L190.899765,83.02037L190.66011,83.729195L190.659454,83.731033L190.652985,83.76403L190.626129,83.899818L190.491302,84.574562L190.491196,84.574883L190.491196,84.575096L190.385941,85.612984L190.338577,86.077515L190.338577,86.078918L190.338577,86.079453L190.309021,87.329491L190.29834,87.740417L190.295227,87.860245L190.274078,88.657829L190.301468,89.538353L190.362717,91.505737L190.362717,91.50779L190.392929,91.956253L190.454407,92.869888L190.503906,93.530495L190.563126,94.327332L190.569473,94.414047L190.574326,94.47908L190.574982,94.479729L190.817657,94.722397L190.824219,94.730492L191.18866,95.183372L191.531647,95.70237L191.720703,96.052361L191.840622,96.27433L192.113617,96.895355L192.348618,97.556404L192.542648,98.253357L192.693649,98.979324L192.800644,99.725357L192.862656,100.487358L192.878632,101.255386L192.849625,102.023422L192.773575,102.78347L192.653519,103.527458L192.490875,104.244476L192.489471,104.250519L192.283463,104.943489L192.037445,105.601509C191.920944,105.853783,191.816345,106.104538,191.680771,106.346031L191.656281,106.389709L191.705246,106.888641L191.722183,107.060783L191.775131,107.60038L191.848038,108.340584L191.918472,109.05706L192.254333,112.436577L192.32756,113.173767L192.32811,113.179604L192.799103,117.331787L193.173248,120.628593L194.102844,128.820602L194.177917,129.482605L194.09993,130.464417L194.064987,130.903717C194.050751,131.636581,193.949051,131.578445,193.251434,132.144257L193.2509,132.144684L193.061829,132.270981L191.963333,132.824066L191.779556,132.916702C191.374893,133.120667,191.008087,133.270142,190.580093,133.453079L190.570602,133.457169L189.946762,133.705139L189.845596,133.745361L188.95105,134.101501L188.553604,134.25972L186.625595,134.850662L185.762543,135.115112L185.760818,135.115646L185.173767,135.302231L185.173111,135.302567L185.132462,135.308289L184.397324,135.412369C183.101013,135.597122,181.445343,135.796448,180.612473,134.583725L180.612274,134.57962L180.428909,131.64856L180.242767,128.820709L180.224854,128.549881L179.778671,121.77639L179.712021,121.839378L179.494583,122.044617L178.459595,123.117683L177.400574,124.302681L176.365601,125.539673L175.401596,126.777634L174.557632,127.95961L174.037659,128.758606L174.001419,128.820618L173.468613,129.733612L173.461594,129.746658L172.318542,131.884552L171.056549,134.631516L170.073563,137.364563L169.349533,140.175583L168.865479,143.154633L168.698624,145.204636L168.601563,146.396637L168.536514,149.988647L168.606522,153.016663L168.867859,158.61087L164.399643,158.610977L164.399643,161.576019L159.399612,161.576019L159.399612,158.61174C151.119263,158.613251,138.552032,158.616379,124.546654,158.620255L124.546654,161.582703L119.546608,161.582703L119.546608,158.621658C108.14991,158.625,96.05249,158.628998,84.693542,158.632874L84.693542,161.622391L79.693497,161.622391L79.693497,158.634705C65.534424,158.639771,52.921452,158.644958,44.840534,158.649704L44.840534,161.622391L39.840492,161.622391L39.840492,158.652939C38.39761,158.654007,37.288647,158.654984,36.557392,158.656067L36.46442,158.639023L36.344379,158.610977L35.872082,158.490616L35.487041,158.049591L35.36301,157.822571C32.401314,153.446899,25.469378,152.018356,21.9051,151.885803L19.988951,151.838669L19.462189,151.825729L16.40019,151.772766L13.578169,151.734802L12.094194,151.717758L10.484353,151.693069L10.462135,151.692734L9.621083,151.668472L8.733115,151.642807L7.378135,151.564819L6.320187,151.4478L5.487224,151.278793L4.805258,151.046799L4.201271,150.742752L3.745261,150.457794L3.503235,150.291809L3.229284,150.082794L2.825259,149.74176L2.408293,149.357788L1.998337,148.951828L1.617285,148.543823L1.429295,148.324554L1.28725,148.158875L1.02829,147.817841L0.896276,147.614853L0.66428,147.142883L0.273307,145.843872L0.211398,145.204834L0.100307,144.059845L0.337265,142.320801L0.767282,141.113785L1.217252,140.341766L2.169286,139.244766L3.932281,137.775787L6.144275,136.428787L8.033245,135.535751L9.080299,135.140793L9.621299,134.991516L10.319335,134.798782L12.269351,134.437805L14.481345,134.207855L16.905382,134.108841L19.492388,134.140869C27.681154,134.641434,34.70628,135.940323,42.184715,139.299789L42.389423,139.391464C43.139557,139.727325,43.868332,140.110321,44.604439,140.476913L47.064392,141.862946L49.542358,143.453918L51.46735,144.812881L51.988613,145.204926L52.330299,145.461945L53.02726,146.009964L54.117241,146.896957L55.289192,147.878006L56.473221,148.893036L57.591244,149.873001L58.570244,150.75795L58.773224,150.950027L59.336227,151.482941L59.704231,151.849976L59.902252,152.078964L60.181271,152.351929L60.54528,152.623947L60.954266,152.817978L61.322269,152.931015L61.611317,152.994965L62.111332,153.082977L62.525276,153.072952L62.772263,152.904907L62.903305,152.648865L62.965321,152.460876L63.111359,151.741913L63.429314,149.979889L63.543961,149.300842L63.859222,147.432785L64.218163,145.204834L64.243294,145.048874L64.368294,144.253876L64.40313,144.042908L64.458458,143.713852L64.477547,143.600067L64.745567,142.035202L64.830345,141.544037L65.092323,140.057999C69.609177,115.263268,81.49218,93.051643,103.707367,81.723969L105.684349,80.740982L107.091316,80.051033L107.899689,79.669014L107.925247,79.656929L108.020264,79.612061L109.382263,78.952095L110.479248,78.353073L111.086258,77.890045L111.364311,77.548042L111.521347,77.267082L111.662323,76.735031L111.748283,75.580017L111.696281,73.699028L111.562317,71.547005L111.557259,71.477005L111.382317,69.109055L111.257317,67.229034L111.149361,65.424088C110.733047,57.63179,109.771408,49.859772,109.376343,42.118061L109.35833,41.614487L109.316383,40.445126L109.275833,38.709095L109.274429,38.648048L109.254478,36.804054L109.256531,34.991016L109.274544,33.714016L109.321571,31.734987C109.343246,31.025303,109.367523,30.322952,109.398567,29.614023L109.445602,28.945972L109.503632,28.47497L109.577621,28.148926L109.672638,27.91995L109.757622,27.782003L109.88166,27.624966L110.248688,27.364927L110.816658,27.208969L111.44664,27.278967L111.942673,27.48292L112.283699,27.707905L112.810677,28.182899L113.889664,29.240847L115.104317,30.516878L115.23764,30.656874L116.765617,32.333908L118.382584,34.167873L120.004601,36.062881L121.539597,37.921867L122.167953,38.708885L122.565514,39.206848L123.248558,40.097839L124.301537,41.463818L124.309517,41.473957L125.421501,42.877903L126.319504,43.938869L127.051514,44.701836L127.677513,45.220833L128.254532,45.552811L128.841583,45.750828L129.331558,45.848869L129.739578,45.908836L130.745529,45.928791C135.337769,45.83625,139.86908,45.509235,144.443848,45.240135L144.560333,45.2328L144.719528,45.221691L144.732239,45.220181L145.167557,45.167656L145.744568,45.069618L146.235519,44.945583C146.48111,44.85973,146.522308,44.837082,146.747513,44.718552L147.162537,44.25251L147.844513,43.207508L148.550522,41.798492L148.885513,40.994003L149.063477,40.566467L149.261505,40.009506L149.421448,39.592541L149.617432,39.136528L149.778458,38.828495L149.798615,38.800991L149.860428,38.716541L149.912415,38.71859L149.919968,38.708561L149.990509,38.61451L150.034515,38.426521L150.03656,38.357925L150.037857,38.311222L150.038498,38.285553L150.045197,38.25816L150.060944,38.193447L150.094482,38.05658L150.189499,37.840546L150.210541,37.811531L150.236526,37.787479L150.30307,37.67585L150.355713,37.587627L150.449539,37.430374L150.510361,37.300407L150.708603,36.876431L150.810638,36.630413L151.151672,35.869389L151.503708,35.109333L151.541672,35.028011L151.743469,34.612339L151.751984,34.594864L152.113724,33.85239L152.214355,33.642181L152.547745,32.945332L152.926743,32.127361L153.589722,30.650396L153.652161,30.516441L153.917709,29.947399L154.25972,29.237391L154.497757,28.765417L154.580795,28.608379L154.781296,28.199503L154.997543,27.754063L155.20787,27.316387L155.506836,26.679396L155.684799,26.287342L155.846786,25.915352L155.900818,25.811701L156.035309,25.553391L156.209824,25.218391L156.233871,25.181183L156.282837,25.105253L156.348099,25.004299L156.732712,24.409266L156.911743,24.198948L157.077728,24.004053L157.276718,23.770226L157.664673,23.432207L157.990723,23.244217L158.616714,23.079199L159.362747,23.200211L159.996719,23.692245L160.387695,24.308207L160.44281,24.45435L160.502457,24.616779L160.560806,24.779318L160.77478,25.544333L160.984772,26.80332L161.142792,28.666296L161.240936,30.516331L161.254852,30.77928L161.327866,32.466236L161.506897,35.411213L161.859909,40.07119L162.324875,45.211224L162.495712,46.90023L162.625565,48.185104C164.367538,65.410065,168.572037,87.977707,170.470932,106.013313L170.461975,106.588272L170.45993,107.222237L170.488953,107.867218L170.562943,108.325157L170.569946,108.340157L170.697006,108.615189L170.899994,108.752159L171.189041,108.755188L171.480362,108.669006L171.574081,108.641182L171.946075,108.482201L172.167084,108.379204L172.259613,108.340157L172.468109,108.252136L172.850128,108.115173L173.169159,108.031143L173.330185,108.0112L173.375153,108.022186L173.425201,108.028229L173.462189,108.011948L173.516449,107.988007L173.661179,107.924156L173.758255,107.793869L173.842163,107.681152L173.854248,107.642113L173.880142,107.55809L174.104141,107.122147L174.438171,106.630112L174.511185,106.542099L174.707153,106.294144L175.217194,105.488129L175.741165,104.262154L175.745789,104.244133L175.958694,103.401901L176.14917,102.648109L176.178726,102.473602L176.259186,101.997101L176.270187,101.93206L176.249146,101.718079L176.215179,100.770027L176.236206,99.790062L176.313217,98.788086L176.44426,97.77404L176.629227,96.755997L176.793076,96.05204L176.864258,95.746048L177.1492,94.751091L177.477951,93.793549L177.481293,93.784065L177.619232,93.440865L177.662689,93.332367L177.663345,93.330864L177.553009,91.956039L177.224258,87.860039L177.108002,86.411118L176.929825,84.187798L176.914307,83.76403L176.863174,82.368828L176.833405,81.55484L176.833298,81.553223L176.805374,80.971245L176.800735,80.873741L176.800735,80.872559L176.82576,80.724037L176.856079,80.35582L176.869873,80.191559L176.869873,80.191238L176.869659,80.19059L176.800735,79.888809L176.750366,79.668144L176.518051,78.650528L176.400604,78.13649L176.400162,78.134766L176.400162,78.134117L176.373306,77.966187L176.339233,77.754044L176.337296,77.742393L176.064636,75.723457L175.942429,74.819954L175.098572,67.196457L174.720871,63.784359L174.662521,63.284019L174.057236,58.08876L174.056259,58.080566L173.462311,53.398373L172.673019,47.176014L172.63797,46.900017L172.053833,42.295155L172.053192,42.289867L171.550903,38.556477L171.55014,38.551189L170.381653,30.516115L169.675964,25.66416L169.190079,22.324112L168.836639,19.895653C168.593536,18.248171,168.325409,16.649223,168.162552,15.000446L168.077133,14.132107L167.995804,13.306478C167.991379,12.806787,168.01123,12.409019,168.037445,11.901129L168.19426,11.113249L168.264572,10.760779C168.331345,10.460619,168.362717,10.313074,168.453323,10.036211L168.663101,9.395014L168.795654,8.989911L168.875259,8.772368L168.875458,8.772152L169.208847,8.146379L169.357788,7.866387L169.358429,7.865309C169.549973,7.538077,169.563354,7.509064,169.785965,7.2267C170.084076,6.848453,170.326309,6.543763,170.675125,6.225268L170.98671,5.940208C171.130692,5.808517,171.201126,5.770984,171.379944,5.652344L171.591019,5.509544C172.107544,5.160094,172.234695,5.10498,172.827469,4.810321L173.1698,4.639587L173.185547,4.632253C173.442352,4.513289,173.53241,4.477697,173.803223,4.384079L174.336136,4.202991L175.527069,3.798427L175.52771,3.798211L175.935303,3.69672L177.67392,3.323219L178.452103,3.156152L178.937653,3.068358L178.940903,3.067819L179.441238,3.005371L180.639084,2.856207L180.643188,2.855668L181.654434,2.727213L182.671829,2.598003L187.204437,2.022166L189.846451,1.743361L198.038452,0.878905L199.779434,0.695228L202.134445,0.50659L206.230438,0.178604L207.17189,0.103213L207.308762,0.19036L207.37001,0.229403L207.474625,0.33165L207.714706,0.746891C207.879501,1.030441,207.882751,1.104969,208.00882,1.46693L208.009247,1.468224L208.164124,1.956375L208.51033,3.047326L208.761856,4.146475L208.874344,4.638401L208.873917,4.637542z"/>
    <path transform="translate(151.051758,336.137207)" style="stroke:#ff0000;stroke-width:0.05mm;fill:none" d="M202.287857,6.161422L202.496902,7.987404L202.731262,10.03546L203.200012,14.131462L205.075073,30.515472L206.22998,40.607986L206.950012,46.899483L208.825073,63.283493L209.488052,69.077454L211.950058,68.798431L211.319,63.28339L209.444046,46.899376L206.230087,18.814199L205.694153,14.131251L205.225418,10.035249L204.991043,7.987193L204.756775,5.939138L204.750092,5.881112L204.240692,5.939138L202.288101,6.161103L202.287857,6.161422z"/>
    <path transform="translate(151.051758,336.137207)" style="stroke:#ff0000;stroke-width:0.05mm;fill:none" d="M119.096092,70.108543L119.172348,70.254578L119.331863,70.429626L119.577881,70.805611L119.868874,71.161636L120.089867,71.38662L120.196968,71.475601L120.261887,71.529633L120.863953,72.04464L121.475906,72.588661L121.572884,72.681633L121.771873,72.860672L122.461807,73.301689L123.541763,73.72567L124.309799,73.865875L124.83979,73.96273L125.998802,74.025719L126.749786,74.010727L127.846786,73.899742L129.08075,73.576714L130.204712,73.006699L131.071747,72.375748L131.515793,71.986717L132.014832,71.490692L132.026154,71.4757L132.515808,70.821663L132.938812,69.969612L133.278763,69.078629L133.446808,68.587669L133.624771,68.008705L133.749771,67.398674L133.772736,66.790695L133.733704,66.215721L133.665756,65.572693L133.181702,63.582664L133.029846,63.283688L132.501785,62.24472L132.37883,62.002697L132.003815,61.547657L131.42485,60.990696L130.726395,60.424133L130.497849,60.238731L129.613861,59.661709L129.352753,59.530018L129.155807,59.430687L128.920792,59.424644L128.678757,59.365646L128.471786,59.258656L128.417755,59.207642L128.37471,59.187687L128.273758,59.140663L127.958717,59.028709L127.546707,58.910717L127.199738,58.824757L126.885773,58.75972L126.289757,58.644745L125.724716,58.582729L125.160744,58.60775L124.569702,58.682713L124.309662,58.720245L124.056633,58.756699L123.128647,59.024719L121.976662,59.575748L120.93866,60.333748L120.035713,61.273701L119.286652,62.366703L118.859222,63.283684L118.716637,63.589668L118.343681,64.915634L118.199699,65.96463L118.183731,66.564621L118.220718,67.315613L118.228706,67.379578L118.287697,67.852089L118.340652,68.276604L118.392097,68.490372L118.474609,68.833565L118.514732,69.000519C118.713287,69.397751,118.707039,69.557159,119.096069,70.108513L119.096092,70.108543z"/>
    <path transform="translate(151.051758,336.137207)" style="stroke:#ff0000;stroke-width:0.05mm;fill:none" d="M178.88089,12.327484L178.770874,11.592454L178.437943,10.92645L177.913986,10.395481L177.557953,10.210941L177.251984,10.052395L177.150269,10.035354L176.515991,9.929333L175.811264,10.035354L175.777939,10.040316L175.509918,10.173301L175.108917,10.372293L174.576874,10.892262L174.231842,11.552224L174.142761,12.083193L174.108902,12.285205L174.218918,13.021206L174.551865,13.686239L174.991913,14.131248L175.075928,14.216238L175.73793,14.560187L176.473938,14.683142L177.212967,14.573131L177.881012,14.241153L177.993286,14.131142L178.412964,13.720107L178.75798,13.060144L178.880951,12.327164L178.88089,12.327484z"/>
    <path transform="translate(151.051758,336.137207)" style="stroke:#ff0000;stroke-width:0.05mm;fill:none" d="M152.13385,55.189533L151.866699,55.091496L150.767883,54.688438L149.054932,54.454391L147.344894,54.709362L146.331482,55.091385L145.983871,55.222427L145.255844,55.611458L144.426865,56.247478L143.352859,57.326458L142.496811,58.502506L142.08783,59.302467L141.884842,60.149448L141.736862,62.781425L141.850006,63.283382L142.272903,65.161354L142.631958,65.918388L143.209946,66.822426L144.132004,67.862465L145.218964,68.703522L146.440948,69.339539L147.768967,69.75457L148.886032,69.899849L149.176041,69.937599L150.63208,69.878601L151.748047,69.6726L152.291092,69.509628L152.834137,69.315598L153.421188,69.022552L153.970184,68.624573L154.434158,68.205551L155.038147,67.615585L156.166199,66.039612L157.009201,63.817585L157.028839,63.2836L157.078232,61.938648L157.096237,61.448555L157.078232,61.370041L156.665253,59.568542L156.311264,58.75251L155.832291,58.109482L154.879272,57.114521L153.730301,56.161514L152.866272,55.57349L152.134262,55.189526L152.13385,55.189533z"/>
    <path transform="translate(151.051758,336.137207)" style="stroke:#ff0000;stroke-width:0.05mm;fill:none" d="M182.315948,95.542549L182.65387,96.051521L182.779938,96.241562L183.437958,96.762604L184.224991,97.054573L185.06398,97.09156L185.872986,96.867554L186.573944,96.405502L186.857056,96.051521L187.096939,95.751465L187.390945,94.967461L187.427933,94.131485L187.392227,94.003456L187.202942,93.324402L186.739914,92.626373L186.081894,92.105331L185.749924,91.981728L185.679062,91.955299L185.294998,91.812286L184.456009,91.776268L183.805862,91.955299L183.646027,91.999306L182.946045,92.462326L182.42305,93.116356L182.128067,93.900352L182.092056,94.737305L182.315948,95.542549z"/>
    <path transform="translate(151.051758,336.137207)" style="stroke:#ff0000;stroke-width:0.05mm;fill:none" d="M186.650101,107.585938L185.845062,107.550346L185.750031,107.576553L185.495819,107.646553L185.384079,107.677406L185.299423,107.700813L185.03508,107.774246L184.335098,108.235229L184.252151,108.339203L183.812103,108.891197L183.51712,109.675194L183.481094,110.510208L183.705109,111.317177L184.169098,112.014137L184.699966,112.435097L184.82605,112.535072L185.613068,112.829086L186.453049,112.865097L187.26207,112.642067L187.576126,112.435089L187.962997,112.180122L188.485992,111.525124L188.779999,110.741112L188.795746,110.387131L188.817001,109.905121L188.592026,109.099121L188.546616,109.030197L188.531952,109.008087L188.434341,108.86087L188.128998,108.401077L188.05069,108.339073L187.470978,107.880043L186.649994,107.585602L186.650101,107.585938z"/>
    <path transform="translate(151.051758,336.137207)" style="stroke:#ff0000;stroke-width:0.05mm;fill:none" d="M189.82814,126.891418L189.846161,126.843422L190.122162,126.107407L190.159149,125.271431L189.934174,124.464462L189.846161,124.331802L189.471146,123.766533L188.813126,123.245491L188.026108,122.952454L187.187119,122.916428L186.377136,123.139473L185.750153,123.554176L185.677155,123.602493L185.15416,124.256523L184.979111,124.723534L184.86026,125.040512L184.823257,125.877457L185.047272,126.682487L185.511261,127.381493L185.750259,127.570671L186.169281,127.902428L186.956299,128.194397L187.795288,128.231384L187.798309,128.230621L188.605286,128.007477L189.305267,127.545433L189.828247,126.891403L189.82814,126.891418z"/>
</svg>
