<?xml version="1.0" encoding="UTF-8" standalone="no"?>
<svg xmlns="http://www.w3.org/2000/svg" xmlns:xlink="http://www.w3.org/1999/xlink" width="215.100mm" height="201.337mm" viewBox="336.450012 298.331573 215.099976 201.336884">
    <path transform="translate(336.349243,298.2211)" style="stroke:#ff0000;stroke-width:0.05mm;fill:none" d="M127.684486,98.240349L127.369476,98.131348L126.957443,98.014359L126.610474,97.930351L126.295448,97.867348L126.086456,97.828079L125.700447,97.755371L125.135468,97.697395L124.572433,97.724442L124.038383,97.795097L123.98233,97.802521L123.470306,97.87957L122.544312,98.151558L121.397339,98.708549L120.438797,99.41655L120.364273,99.471565L119.466232,100.414574L118.725258,101.510513L118.161301,102.735558L117.947289,103.512604L117.79628,104.060577L117.657257,105.109619L117.645279,105.709648L117.685226,106.458618L117.810211,107.418633L117.857132,107.608681L117.859993,107.620552L117.946716,107.972328L117.988274,108.140678L118.134247,108.427742L118.235252,108.429787L118.382263,108.66275L118.604263,109.105713L118.647293,109.211746L118.678329,109.302711L118.812332,109.563744L118.873619,109.656769L119.059319,109.938797L119.35231,110.292847L119.54657,110.488831L119.573273,110.515877L119.746307,110.657883L119.942284,110.823723L120.350327,111.168869L120.958672,111.704857L120.964378,111.709892L121.062424,111.80188L121.26239,111.979927L121.954407,112.415939L123.034378,112.83596L124.03833,113.0131L124.332336,113.065033L125.490387,113.121986L126.240387,113.103027L127.335426,112.986053L128.566391,112.657097L129.686432,112.082077L130.197418,111.70507L130.548386,111.446091L130.990448,111.057114L131.486496,110.559128L131.983444,109.887077L132.230438,109.383621L132.401428,109.035156L132.73642,108.142143L132.901459,107.651123L132.914124,107.609123L133.076431,107.072113L133.198456,106.462151L133.217392,105.854149L133.1754,105.280144L133.104401,104.6371L132.825119,103.513062L132.61145,102.653038L132.230469,101.913544L131.800507,101.079079L131.422485,100.62606L130.842438,100.072037L130.024979,99.417L129.911407,99.326042L129.026382,98.755005L128.767059,98.626251L128.567322,98.527061L127.684486,98.240349z"/>
    <path transform="translate(336.349243,298.2211)" style="stroke:#ff0000;stroke-width:0.05mm;fill:none" d="M191.311417,135.52417L191.467026,135.717575L191.551376,135.810013L191.534027,136.281052L191.53038,136.378082L191.437927,136.734528L191.363159,136.980606L191.243546,137.20192L190.715317,138.088531L190.4254,138.476608L189.974564,139.027771L189.772537,139.243149L189.574295,139.444717L189.458664,139.562164L189.317017,139.688858L189.243164,139.754837L188.593018,140.290253L188.477859,140.376877L188.321152,140.494675L187.973938,140.736084L187.805145,140.853302L187.805023,140.853409L187.869049,140.883316L187.871567,140.884567L188.037186,140.96196L188.037766,140.962418L188.295151,141.121078L188.514175,141.302109L188.602859,141.401062L188.694168,141.503098L188.833176,141.723038L188.928146,141.958054L188.980194,142.20607L188.987045,142.42511L188.988297,142.46608L188.951309,142.734085L188.87027,143.008133L188.747238,143.286163L188.650223,143.449158L188.581161,143.565125L188.375137,143.842133L188.130081,144.115143L187.850098,144.380173L187.736542,144.473206L187.720779,144.486099L187.633133,144.557892L187.581085,144.600464L187.558136,144.619186L187.839142,144.663116L188.193192,144.749069L188.518143,144.860138L188.55011,144.875076L188.810104,144.997101L189.068054,145.156082L189.287079,145.337112L189.43045,145.497131L189.467209,145.538101L189.574142,145.70668L189.60611,145.757126L189.70108,145.992142L189.753128,146.24118L189.761108,146.500168L189.724121,146.769196L189.643097,147.044159L189.574036,147.199615L189.520035,147.321167L189.386734,147.545227L189.354095,147.600235L189.148056,147.877243L188.903,148.149231L188.623032,148.415283L188.433456,148.56926L188.309036,148.670273L187.965027,148.914291L187.730453,149.058228L187.657181,149.103073L187.621109,149.125336L187.623169,149.126358L187.916153,149.263321L188.173187,149.422318L188.381042,149.593307L188.393143,149.603348L188.573135,149.804352L188.711136,150.023376L188.807129,150.258392L188.858154,150.507446L188.861588,150.617462L188.86615,150.766418L188.8302,151.035431L188.749161,151.309479L188.625214,151.58844L188.459274,151.865448L188.253235,152.143494L188.009201,152.415482L187.744064,152.665451L187.72818,152.680389L187.4142,152.936401L187.298004,153.01915L187.264786,153.042664L187.264786,153.04277L187.328262,153.442139L187.36261,153.667786L187.608582,155.2939L187.753662,156.370331L187.806854,156.761475L187.97316,157.982529L188.037186,158.356552L188.111954,158.705017L188.299362,159.547119L188.403442,159.88623L188.556168,160.351563L188.8582,161.014587L189.229141,161.618607L189.374664,161.806122L189.574188,162.04274L189.879837,162.405121L190.128082,162.643219L190.371216,162.853577L190.908234,163.21962L191.475266,163.48967L191.680389,163.544907L192.364517,163.672058L192.519287,163.683807L192.8293,163.648773L193.269302,163.488754L193.66626,163.202728L193.87822,162.926743L194.023163,162.588776L194.296188,160.789734L194.5522,158.214798L194.657318,156.761826L194.66098,156.710251L194.729568,155.687225L194.791779,153.923691L194.819061,153.127808L194.820892,153.100067L194.959671,151.012726L195.122665,148.569717L195.379028,144.727722L195.385071,144.614731L195.528992,141.916733L195.61824,140.415482L195.619843,140.377823L195.655457,139.548721L195.661484,139.407654L195.654984,138.022354L195.620056,137.462509L195.584091,137.083694L195.460251,136.483444L195.418365,136.281754L195.401245,136.199814L195.193283,135.676834L194.967865,135.26857L194.749969,134.902191L194.426285,134.431152L194.16333,134.10849L193.647659,133.511551L193.320526,133.183395L192.689468,132.580521L192.431976,132.359665L192.20871,132.186066L191.629349,131.735794L191.123383,131.391098L190.353394,130.944931L190.055145,130.820175L189.76947,130.72316L189.574524,130.715515L189.569611,130.715302L189.412567,130.722595L189.122314,130.81105L188.972687,130.870758L188.71051,131.051544L188.542953,131.211121L188.266388,131.577377L188.178848,131.727814L188.172699,131.738419L188.03186,132.072617L187.989273,132.186188L187.964401,132.252625L187.864746,132.739532L187.832672,132.93425L187.830627,133.5103L187.85231,133.639618L187.968277,134.118652L188.062775,134.353317L188.298691,134.751083L188.36763,134.848312L188.459625,134.909271L188.824646,135.103302L189.078018,135.187637L189.574631,135.298019L189.764786,135.340363L190.338669,135.415573L191.034561,135.488281L191.311417,135.52417z"/>
    <path transform="translate(336.349243,298.2211)" style="stroke:#ff0000;stroke-width:0.05mm;fill:none" d="M169.277634,86.698296L169.385391,87.13031L169.482635,87.520317L169.596771,87.853371L170.115173,89.241974L170.354645,89.827614L170.924774,91.041245L171.013443,91.226486L171.100525,91.408424L171.236694,91.650169L171.555145,92.128517L171.629562,92.221657L171.80954,92.025688L171.969452,91.288124L171.982697,91.226723L172.309708,89.700928L172.431259,89.018845L172.658051,87.656494L172.689331,87.262154L172.69812,87.130898L172.714203,86.888695L172.699265,86.513863L172.68956,86.382835L172.592545,86.011887L172.411514,85.715927L172.15358,85.505913L171.869827,85.395775L171.669861,85.324097L171.461334,85.292366L170.766693,85.190216L170.452011,85.189758L170.055496,85.204819L169.753479,85.283806L169.481491,85.454781L169.29248,85.75074L169.225479,86.128769L169.277634,86.698296z"/>
    <path transform="translate(336.349243,298.2211)" style="stroke:#ff0000;stroke-width:0.05mm;fill:none" d="M153.032059,95.058685L152.230499,94.552811L151.498535,94.171822L150.129562,93.677826L148.614609,93.479568L148.418625,93.453888L146.710678,93.717888L145.353699,94.23893L144.62973,94.629967L143.804733,95.269936L143.752579,95.322891L142.736755,96.353897L141.888702,97.531914L141.48465,98.333954L141.286636,99.179947L141.274307,99.418953L141.151611,101.809914L141.699585,104.184891L142.062531,104.939919L142.644531,105.838867L143.570526,106.872833L144.533966,107.610863L144.660538,107.70787L145.884552,108.335854L147.213577,108.743889L148.614609,108.919319L148.619644,108.919891L150.073639,108.851868L151.18866,108.641853L151.730698,108.475891L152.271713,108.279907L152.710693,108.057808L152.856674,107.983963L153.363205,107.610962L153.402588,107.58197L153.863586,107.161949L154.463608,106.569L155.582626,104.990021L156.412628,102.763992L156.487625,100.398941L156.257629,99.418953L156.047607,98.524002L155.688644,97.709053L155.207672,97.069992L154.250626,96.080986L153.326797,95.32299L153.09761,95.13501L153.032059,95.058685z"/>
    <path transform="translate(333,279)" style="stroke:#ff0000;stroke-width:0.05mm;fill:none" d="M214.574844,20.132029L214.10231,19.949865L213.853424,19.523342L211.943619,19.609621L211.230591,19.331581L210.950607,19.479618L210.595657,19.841663L210.219681,20.168667L209.936752,20.31271L209.829926,20.33371L209.341766,20.429701L209.307739,20.451385L209.164154,20.543039L208.941589,20.719496L208.54245,21.104139L208.366882,21.303995L207.575729,21.306749L207.873016,21.955265L207.610947,22.340593L207.139099,23.300034L206.905701,23.7777L206.6707,24.021727L206.367645,24.168165L206.107651,24.293716L205.962708,24.625744L205.944565,24.790216L205.899704,25.193693L205.852692,26.723709L205.773712,27.289719L205.509705,27.974773L205.436646,28.347775L205.426147,28.525829L205.414398,28.723286L205.397507,29.052116L205.378555,29.427059L205.37822,29.429342L205.34819,29.621437L205.263031,29.982452L205.197296,30.162106L205.16272,30.244629L205.057724,30.495045L205.039352,30.522097L204.927383,30.687025L204.781631,30.961071L204.631531,31.422415L204.622971,31.460423L204.602997,31.54888L204.617035,32.119911L204.625381,32.316002L204.625824,32.474308L204.62674,32.812843L204.568863,33.134026L204.479614,33.588181L204.473206,33.620823L204.370819,33.926254L204.145401,34.626717L204.065842,35.076878L203.952393,35.814777L203.948959,36.079121L203.953415,36.717834L203.954224,36.828888L203.969742,37.157837L203.98024,37.533916L203.960602,37.734798L203.943253,37.911942L203.889618,38.155052L203.812683,38.399765L203.72023,38.621994L203.651978,38.722549L203.429749,39.136753L203.381119,39.253975L203.324158,39.629028L203.344147,40.011047L203.507126,40.747009L203.521271,40.876553L203.531189,41.372711L203.522186,41.503967L203.433289,41.713409L203.379181,41.841019L203.358185,41.96965L203.305801,42.466377L203.309235,42.927837L203.325653,43.678864L203.29541,43.939213L203.24028,44.308105L203.056412,44.829826L203.056305,44.83017L203.012466,44.910183L202.88327,45.146217L202.803253,45.708233L202.831207,46.279263L202.979248,47.019218L202.990219,47.151161L202.992966,47.649147L202.983261,47.779144L202.917526,48.037327L202.89035,48.144161L202.590408,48.813126L202.283478,49.360298L202.060333,49.758072L202.00795,49.872437L201.834335,50.32465L201.795303,50.448036L201.768265,50.830051L201.796906,50.954803L201.970627,51.534054L201.9729,51.541355L202.048447,51.776711L202.051636,51.804558L202.104721,52.269554L202.119217,52.466099L202.078232,53.036102L202.066605,53.102074L201.815155,54.53302L201.387146,57.945965L201.32814,58.321022L201.015167,59.80299L200.774231,60.508018L200.762238,60.526619L200.707809,60.611423L200.477127,61.02232L200.422333,61.134975L200.353256,61.50592L200.359192,61.63718L200.452225,62.247246L200.456436,62.267677L200.530853,62.628124L200.598297,62.991882L200.612686,64.117737L200.612686,64.1231L200.604126,64.941238L200.512482,66.006714L200.468323,66.434502L200.350983,67.235863L200.301346,67.558868L200.232285,67.93187L200.025696,68.804108L199.883255,69.404938L199.871506,69.485977L199.864655,69.534256L199.820023,70.031555L199.818085,70.083832L199.815231,70.163956L199.827667,70.294983L199.917496,70.77858L199.952316,70.901962L200.114273,71.220985L200.208313,71.582001L200.185379,71.728325L200.152161,71.941078L200.150223,71.953064L200.017944,72.158844L200.006073,72.178024L199.725311,72.633545L199.720047,72.641998L199.677139,72.711502L199.650208,72.755219L199.594498,72.853836L199.589233,72.863083L199.546097,73.089188L199.520187,73.225128L199.528976,73.280487L199.578171,73.592087L199.557175,74.546051L199.475235,75.798935L199.378326,77.048515L199.319656,77.677986L199.249924,78.425926L199.222076,78.688217L199.195145,78.932007L199.100754,79.677673L199.018814,80.264801L198.867462,80.992767L198.820206,81.180984L198.791336,81.375809L198.727066,81.93338L198.727509,82.394608L198.73732,83.084L198.680359,83.651947L198.534393,84.193985L198.4496,84.34465L198.314346,84.584793L198.181488,84.820946L198.173508,85.185959L198.212097,85.27327L198.315735,85.507713L198.318588,85.513985L198.374161,85.86998L198.435577,86.262962L198.4422,86.592476L198.459198,87.218979L198.455765,87.277306L198.429642,87.720276L198.39859,88.113823L198.34346,88.483398L198.294617,88.671951L198.222473,88.907875L197.911224,89.477875L197.879501,89.535858L197.894348,89.601151L197.906464,89.654793L198.034866,90.110886L198.103119,90.358345L198.155518,90.598831L198.143982,90.705658L198.115448,90.969887L197.868454,91.183891L197.580704,91.28479L197.326401,91.363091L196.961975,91.424835L196.836639,91.445152L195.825027,91.60894L195.458878,91.629257L194.812744,91.650253L194.499786,91.628571L193.564545,91.473915L192.943192,91.372902L192.92424,91.370964L192.001434,91.277824L191.106262,91.266754L190.2686,91.267776L189.896973,91.312408L189.476379,91.362854L189.269211,91.39801L188.832184,91.562027L188.420151,91.811073L187.910187,92.23304L187.6035,92.557419L187.399521,92.766289C185.133331,94.085266,187.592529,94.980453,183.5242,97.210014L176.313263,97.315102L175.781036,97.238625L175.382584,97.194679L175.198822,97.192169L174.47998,97.203239L174.305695,97.205986L174.019211,97.229042L173.177795,97.368629L172.634155,97.476151L171.85437,97.670753L171.318375,97.825981L170.890701,98.129471L170.527863,98.292572L170.468735,98.319054L170.224716,98.442207L170.095856,98.507149L169.694199,98.76738L169.438416,98.937332L168.987564,99.324608L168.794907,99.495239L168.643555,99.680031L168.289047,100.126877L168.192154,100.28405L168.091248,100.490181L167.931351,100.816727L167.877594,100.930862L167.81665,101.112106L167.708557,101.462753L167.666214,101.654503L167.584946,102.274384L167.567017,102.471153L167.568161,102.538147L167.57901,103.238159L167.61142,103.49839L167.720871,104.239601L167.845963,104.738724L168.019577,105.385536L168.285614,106.121391L168.492554,106.634216L168.557953,106.796303L168.706909,107.131287L168.825943,107.39917L169.276108,108.293671L169.671829,109.101646C170.264435,110.917351,169.985672,111.110497,169.783951,112.932938L169.845169,114.670242L170.261765,115.633217L170.57782,116.36348L170.842163,116.975937L170.900497,117.111198L170.905624,117.121017L171.523682,118.313072L171.689407,118.638023L172.100769,119.444977L172.523422,120.289017L172.584366,120.661003L172.498413,121.024979L172.401184,121.181122L171.951706,121.856117L171.812454,122.055061L171.468445,122.69001L171.138123,123.602768L170.934158,124.210213L170.774261,125.195099L170.729401,125.48774L170.724503,125.84967L170.720627,126.225761L170.777008,126.723846L170.789688,126.829987L170.800415,126.920052L170.801331,126.939217L170.825882,127.446777L170.84642,127.872978L170.840485,128.878189L170.818802,129.866058L170.69165,132.117065L170.64064,132.907471L170.631058,133.190079L170.627167,133.303864L170.612793,134.868011L170.616455,135.021881L170.621353,135.228912L170.656158,135.589127L170.769623,136.516388L170.819611,136.77182L171.003723,137.484161L171.168762,137.967407L171.421799,138.576111L171.574753,138.878799L171.711945,139.11792L172.312637,140.165131L172.661789,140.757278L172.847153,141.097061L173.096207,141.553497L173.419907,142.206375L173.671463,142.740417L173.856827,143.213867L173.978836,143.525467L174.103256,143.850861L174.609222,145.443893L174.773239,145.723877L175.831528,146.062622L176.490677,146.267731L176.540314,146.277771L176.774078,146.325607L177.953003,146.543839L178.120102,146.565186L178.187439,146.573746L178.553604,146.584015L179.347778,146.618835L179.552536,146.664597L179.843475,146.73674L179.890503,146.791626L180.003052,146.923233L180.05658,146.985779L180.058868,146.996857L180.082504,147.112579L180.121643,147.397461L180.166962,147.726654L180.185562,147.922729L180.195953,148.318115L180.206329,149.382324L180.186707,149.974457L180.158524,150.787689L180.187164,150.91394L180.352203,151.405762L180.37915,151.485992L180.479126,151.716553L180.984299,152.486511L181.254913,152.887146L181.294861,152.959625L181.478516,153.294037L181.599487,153.542969L181.820129,154.156921L181.837463,154.205078L181.806763,154.241943L181.653702,154.425812L181.4487,154.672241L181.35672,154.782715L181.352951,154.788086L180.852798,155.488678L180.844803,155.501678L180.636841,155.840332L180.376846,156.263641L179.931808,157.099609L179.539871,157.95163L179.538727,157.947296L179.512833,157.850647L179.476868,158.103668L179.153854,158.919647L178.925812,159.597626L178.827881,159.888672L178.54892,160.882721L178.318924,161.893738L178.139969,162.910706L178.042267,163.693695L178.038956,163.719696L177.663895,164.319733L177.469864,164.567749L177.397842,164.656799L177.065826,165.14975L176.844849,165.586792L176.820084,165.669891L176.807861,165.710754L176.784927,165.741791L176.627869,165.954773L176.540894,165.993225L176.392868,166.058746L176.34288,166.052704L176.297897,166.041748L176.136841,166.063782L175.818848,166.148804L175.525406,166.256104L175.438782,166.287842L175.137802,166.415771L174.917862,166.519775L174.546906,166.680817L174.49292,166.697144L174.265564,166.765839L174.162949,166.796875L173.874969,166.79483L173.831146,166.765839L173.670898,166.65979L173.535873,166.370819L173.516113,166.253815L173.468872,165.972351L173.458817,165.912872L173.450607,165.741913L173.42778,165.268921L173.425735,164.635895L173.430756,164.06189L173.409866,163.693909L173.33078,162.30191L173.063812,160.468842L173.046463,160.383026L172.982895,160.070862L172.932892,159.838806L172.882568,159.59787L172.787827,159.143829L172.62085,158.308807L172.567551,158.032013L172.446899,157.403442L172.446442,157.401398L172.429214,157.302673L172.366898,156.922028L172.34874,156.812897L172.341782,156.770691L172.226959,156.105927L172.083603,155.28598L171.642014,152.804291L171.493851,151.975647L171.393173,151.40564L171.055908,149.497589L170.538864,146.485626L170.103882,143.842651L170.005142,143.213638L169.84581,142.198608L169.778915,141.746857L169.764771,141.651672L169.724823,141.402618L169.462875,139.735626L169.369156,139.117584L169.194885,137.968552L169.166687,137.772339L169.134735,137.565308L169.101974,137.366486L169.048325,137.005219L168.847,135.651428L168.761734,135.021393L168.638016,134.107376L168.593033,133.719421L168.525009,133.211395L168.425034,132.54335L168.349014,132.095703L168.325958,131.960327L168.266953,131.644287L168.179977,131.25827L168.119034,130.947235L168.115372,130.925201L168.053055,130.552216L167.977036,130.026276L167.882065,129.312225L167.752747,128.28009L167.658585,127.525398L167.573441,126.829277L167.459198,125.895523L167.364349,125.118118L167.023193,122.358963L166.861237,121.050362L166.859634,121.03598L166.788193,120.418381L166.768433,120.235977L166.660233,119.240356L166.598831,118.637367L166.52121,117.876411L166.420212,116.830452L166.386642,116.468292L166.362228,116.20874L166.128586,113.959427L166.013077,112.850571L165.782059,110.724533L165.751022,110.44558L165.615082,109.226593L165.403122,107.389542L165.292404,106.349518L164.975113,103.370522L164.8685,102.253571L164.672882,100.205597L164.641266,99.874939L164.623001,99.682388L164.485123,98.238655L164.4785,98.157616L164.14592,94.061676L164.107101,93.584694L163.913071,90.645645L163.831116,88.960632L163.709106,86.850685L163.605957,85.834541L163.324127,83.732674L163.107147,82.970688L162.932175,82.500671L162.53714,81.887634L162.388535,81.773605L161.901169,81.399582L161.156204,81.283615L160.531189,81.450592L160.207153,81.64064L160.15715,81.684578L159.821136,81.97963L159.281158,82.621651L158.824829,83.335243L158.783279,83.40007L158.763077,83.431686L158.602722,83.743172L158.453781,84.03228L158.403091,84.130669L158.24411,84.501617L158.0681,84.895622L157.773056,85.531601L157.612808,85.86956L157.564423,85.971825L157.351547,86.417076L157.154083,86.826485L157.071121,86.982513L156.836105,87.456528L156.498138,88.167488L156.17514,88.870461L155.690277,89.9655L155.520203,90.349457L155.145142,91.169418L154.76358,91.976257L154.716217,92.076469L154.358612,92.821907L154.151337,93.254829L153.884949,93.834877L153.781204,94.061554L153.765213,94.096588C152.963852,95.908524,152.233139,97.50885,151.484863,99.336082L151.199173,100.033569L150.501205,101.443512L149.978683,102.253548L149.825165,102.491531L149.413132,102.95858L149.242157,103.049553L149.1642,103.095543L149.138733,103.104683L148.903275,103.188568L148.413284,103.314583L147.869293,103.410797L147.836319,103.416611L147.395401,103.471046L147.390274,103.471626L147.23082,103.483383L147.114624,103.491257L145.934784,103.568069L145.356903,103.606407L145.128067,103.621597L143.773132,103.716103L143.424667,103.74041L142.413177,103.810493L141.764191,103.854439L138.798203,104.038429L135.665237,104.19548L135.581223,104.197533L133.435211,104.251411L132.430237,104.236458L132.022202,104.179497L131.532211,104.083511L131.485184,104.067871L130.945206,103.888443L130.367218,103.56041L129.739227,103.044403L129.003265,102.286407L128.975082,102.253418L128.101242,101.23143L127.389252,100.341721L126.975281,99.824455L125.916313,98.465416L125.229309,97.579369L124.197273,96.301369L122.654243,94.452332L122.316399,94.061302L121.025284,92.567352L119.399269,90.744339L119.197243,90.524857L118.682487,89.965355L117.865257,89.077362L116.511253,87.670387L115.427292,86.618385L115.101318,86.328125L114.898262,86.147446L114.55722,85.923393L114.423447,85.869408L114.059242,85.722404L113.431259,85.656433L112.864227,85.81543L112.788559,85.869415L112.498306,86.076462L112.376289,86.233513L112.291252,86.372536L112.198227,86.602524L112.126213,86.927475L112.070168,87.398521L112.035927,87.917503L112.026108,88.065544L111.991074,88.977501L111.966522,89.965477L111.961037,90.184509L111.924049,92.161491L111.913094,93.437431L111.915489,94.061424L111.920059,95.248459L111.950081,97.090408L112.002121,98.88443L112.071167,100.556427L112.153122,102.024483L112.171379,102.253433L112.214523,102.793762L112.248093,103.213448L112.317139,103.839493L112.366096,104.115479L112.402061,104.429466L112.46701,105.099457L112.49942,105.494614L112.538002,105.964508L112.567337,106.349487L112.593018,106.687447L112.632973,107.255402L112.769928,108.98938L112.897079,110.445427L112.911003,110.604431L112.988037,111.324409L113.197021,113.489372L113.479973,116.707367L113.629494,118.637329L113.719994,119.806328L113.847031,121.699303L113.898041,122.703247L113.96402,123.826248L114.081009,125.62825L114.167419,126.829208L114.216026,127.505249L114.40802,129.940262L114.475021,130.925262L114.554001,132.087296L114.615967,133.967255L114.542923,135.02121L114.536079,135.121185L114.398087,135.654205L114.242073,135.935211L114.153603,136.045242L113.96608,136.278198L113.363091,136.743195L113.053093,136.91452L112.773232,137.069183L112.270111,137.347214L111.005119,137.969055L110.913132,138.014252L109.986107,138.458252L108.584152,139.154266L106.614143,140.147247L104.905151,141.029327L104.033127,141.494324L103.222191,141.96936L101.471207,143.038376L101.205383,143.213348L99.445145,144.372299L97.555145,145.74231L96.101143,146.877289L95.390175,147.458252L94.69622,148.050293L94.621239,148.117401L93.68325,148.956299L92.631241,149.93927L91.582207,150.958282L91.140152,151.405243L90.582245,151.969208L90.525284,152.029358L89.672333,152.930145L89.207001,153.453125L88.898254,153.80011L88.477203,154.305511L88.444214,154.345093L88.345261,154.477051L88.323112,154.5065L88.303253,154.53299L88.183868,154.680542L88.083763,154.804718L87.965294,154.952423L87.935959,154.988953L87.745239,155.226715L87.523354,155.500977L87.442657,155.600739L87.132202,155.981964L86.42923,156.825775L86.423187,156.832977L85.7742,157.667999L84.722191,159.076019L84.346336,159.597046L83.562096,160.684113L82.366051,162.388062L81.20607,164.085052L80.152122,165.676025L79.279083,167.054016L78.838051,167.789063L78.802101,167.849091L78.70565,168.027618L78.638535,168.15097L78.237,168.87326L77.887856,169.501343L77.352776,170.4617L76.760971,171.517487L76.735519,171.562897L76.609055,171.788116L76.253059,172.439148L75.816025,173.273163L75.616287,173.674347L75.465965,173.976135L75.367928,174.191284L75.297958,174.345032L75.207901,174.577057L74.932945,175.240082L74.668945,175.845123L74.603317,175.981201L74.488953,176.21814L74.12896,177.100189L73.519928,178.733154L72.841949,180.704224L72.132927,182.885162L71.735497,184.173187L71.43486,185.147247L70.787819,187.365295L70.229797,189.407318L69.984512,190.383209L69.901764,190.71225L69.69175,191.672272L69.53447,192.365326L69.38472,193.024353L69.364746,193.124329L69.330391,193.263794L69.329826,193.266327L69.242851,193.694336L69.065826,194.610291L68.848854,195.789337L68.348816,198.616272L68.094856,200.101318L68.01873,200.557312L68.013023,200.591339L67.754616,202.145905L67.752556,202.158783L67.680649,202.600281L67.647896,202.810272L67.526909,203.605255L67.154938,205.98822L67.06739,206.526154L66.740044,208.536224L66.702606,208.749207L66.430962,210.296234L66.288979,211.016205L66.228027,211.204193L66.098022,211.460205L65.949074,211.562592L65.852058,211.629242L65.43911,211.641235L64.939072,211.556213L64.650078,211.493225L64.282089,211.383179L63.873138,211.191193L63.507099,210.921143L63.379948,210.797211L63.228149,210.64917L63.029091,210.422119L62.659058,210.057129L61.890114,209.337128L61.85313,209.304138L61.231876,208.749084L60.90715,208.459045L59.785179,207.485016L58.598148,206.477966L57.421158,205.503906L56.329205,204.623901L55.629196,204.079926L54.764149,203.435974L53.661118,202.666199L52.83408,202.08902L50.420979,200.557068L50.350101,200.512085L49.56506,200.075287L47.886093,199.141083C41.56675,196.033905,37.651711,194.951294,30.315054,193.671021L29.085108,193.496521L28.229074,193.374939L25.466028,193.093933L22.768042,192.942932L20.892986,192.929108L20.182938,192.923859L17.761963,193.035828L15.553968,193.276794L13.607922,193.647736L12.70087,193.902496L12.372838,193.99472L11.32882,194.39566L9.446804,195.297699L7.24486,196.654694L5.490906,198.130707L4.54596,199.230652L4.100937,200.005676L3.907474,200.556732L3.67703,201.212677L3.45001,202.950653L3.63206,204.731659L4.02903,206.027679L4.263013,206.498718L4.39701,206.699707L4.508979,206.846252L4.657016,207.039703L4.989042,207.42276L5.371061,207.826813L5.782071,208.230865L6.202098,208.612885L6.365087,208.748932L6.607059,208.950958L6.882016,209.15802L7.123988,209.323975L7.580996,209.606018L8.18604,209.905945L8.605039,210.04599L8.868012,210.133881L9.700989,210.29892L10.653011,210.398804L10.759045,210.409882L12.11306,210.480865L12.701097,210.494446L13.840077,210.520813L14.400722,210.526978L15.470078,210.538727L16.952042,210.547729L19.772043,210.57077L20.892988,210.584015L22.830933,210.606842L25.271881,210.65387L27.179922,210.714813C32.749954,211.012939,36.063175,212.662415,39.794907,216.906494L39.960178,217.094482C40.220528,217.226776,40.357719,217.648865,40.639984,217.700012L44.463745,217.700012L44.465961,220.668335L49.465992,220.668335L49.463776,217.697052C57.370205,217.693634,69.946228,217.70163,84.310005,217.700012L84.310005,217.70047L84.318848,220.668457L89.318871,220.668457L89.310028,217.699554L124.179413,217.700714L124.171837,220.668457L129.171875,220.668457L129.179443,217.700012C142.213394,217.697968,154.446289,217.71286,164.024734,217.708405L164.024734,220.668457L169.024765,220.668457L169.024765,217.705658L172.959991,217.700012L172.803894,216.684814L172.854584,216.480865L172.891907,216.330872L171.817032,211.020966L171.731079,207.997009L171.777069,204.408051L172.024063,201.169037L172.120285,200.557037L172.492035,198.190063L173.200027,195.379059L174.167007,192.643066L175.413956,189.89212L176.540955,187.757965L176.550995,187.739044L177.114044,186.762024L177.629028,185.962036L178.467026,184.774994L178.930878,184.173035L179.423035,183.533966L180.450058,182.291931L181.50206,181.104889L182.480576,180.076843L182.529083,180.025818L183.488068,179.112854C183.820541,178.828522,184.163986,178.562805,184.484711,178.295624C184.702713,178.114716,184.770966,177.996582,185.14682,177.911652L185.837006,180.076843L186.292542,181.291748L186.721573,182.379242L187.082031,183.231873L187.231995,183.538666L187.546448,184.171661L187.547119,184.172943L187.637177,184.328949L187.986328,184.847931L188.174194,185.075073L188.339584,185.232697L189.299713,186.107452L189.738464,186.461731L190.781097,187.183197L191.104462,187.396271L191.436707,187.585754L192.728287,188.220703L192.924835,188.305481L193.197281,188.423065L193.919418,188.63797L194.30098,188.739319L194.457916,188.759308L195.496567,188.835419L195.703384,188.843658L196.069763,188.800262L196.857422,188.64563L197.165924,188.546783L197.410522,188.436523L197.896622,188.217255L198.226822,188.044128L198.233673,188.040466L198.418457,187.914215L199.166382,187.407684L199.230301,187.364532L199.728745,186.992004L200.420761,186.480194L201.097717,186.040192L201.645584,185.737518L202.224258,185.426483L202.776688,185.138184L203.154694,184.787201L203.245209,184.644531L203.341644,184.492279L203.480103,184.173248L203.559662,183.990295L203.688507,183.562164L204.077835,182.132263L204.153625,181.808228L204.336349,180.9151L205.099136,177.006775L205.288605,175.98114L205.652344,174.012848L206.288666,170.531189L206.539993,169.039398L206.742371,167.789246L207.649429,162.186218L207.905899,160.564453L208.050507,159.597229L213.595779,123.875679L214.161789,119.402618L214.256058,118.637093L214.743668,114.681091L214.866806,113.242043L214.985397,111.596512L215.117111,109.281342L215.176453,107.86467L215.306107,103.849533L215.328125,102.25309L215.333389,101.87027L215.326187,99.607491L215.299255,99.14386L215.212051,98.408012L215.154175,98.124039L214.825928,97.079453L214.762451,96.899002L214.593658,96.419281L214.030731,95.09951L213.672211,94.26368L213.58844,94.061081L213.398972,93.60305L213.191254,92.968788L213.083405,92.634827L212.998932,92.263084L212.987747,92.214119L212.93364,91.891449L212.918579,91.392097L212.923843,91.261063L213.011841,90.899017L213.246857,90.47831L213.364868,90.267044L213.393188,90.112846L213.432907,89.896095L213.427643,89.764839L213.377884,89.271301L213.356888,89.143127L213.014923,87.879166L212.982285,87.685814L212.923859,87.070496L212.925903,86.940155L212.968704,86.775681L212.974869,86.751938L213.085129,86.370262L213.111252,86.280205L213.219101,86.05204L213.307999,85.869194L213.533646,85.405907L213.539581,85.392441L213.636017,85.173981L213.70871,84.926521L213.817032,84.557404L213.915878,84.220695L213.948517,84.026321L213.96907,83.836975L213.989151,83.652184L213.981506,83.389893L213.961746,83.016434L213.919754,82.897842L213.72641,82.469376L213.666824,82.362427L213.657349,82.315971L213.617737,82.12262L213.609512,82.023087L213.591141,81.798233L213.598343,81.296951L213.622192,81.100403L213.658951,80.851349L213.738968,80.480408L213.763947,80.394348L213.842941,80.122467L214.113678,79.447464L214.290817,78.967621L214.350052,78.684677L214.391708,78.484818L214.403229,78.403671L214.41008,78.355499L214.393173,78.226639L214.364975,77.731285L214.365891,77.677643L214.367142,77.599686L214.393738,77.472191L214.52478,76.998413L214.616425,76.759857L214.767075,76.296463L214.772781,76.272385L214.797104,76.169655L214.798126,75.789688L214.653183,75.457664L214.624863,75.265343L214.565277,74.775116L214.569733,74.511459L214.584122,74.134689L214.671082,73.378647L214.806,72.777138L214.837051,72.638687L215.063049,72.141731L215.125931,71.903183L215.190063,71.517059L215.249084,71.021698L215.263565,70.758041L215.293716,70.130966L215.30455,69.485748L215.304871,69.470566L215.323135,68.340714L215.324493,68.286613L215.333054,67.960754L215.357605,67.432411L215.455872,65.805267L215.483032,65.477798L215.647049,64.542786L215.70195,64.428879L215.805008,64.214752L215.861389,63.973011L215.905106,63.715519L215.914352,63.631287L215.932053,63.467838L215.946213,62.743294L215.99826,61.293743L216.009094,60.990253L216.035583,60.69315L216.210556,59.392323L216.278809,58.90427L216.387573,58.355724L216.562332,57.559841L216.788193,56.635784L216.797455,56.597889L216.841965,56.306267L216.88385,55.932808L216.877808,55.549763L216.767776,54.999733L216.589722,54.476753L216.554688,54.095764L216.571365,54.018036L216.672729,53.545734L216.840271,53.160294L216.865738,53.101742L216.913544,52.9916L217.257797,52.199715L217.348648,51.835957L217.394897,51.650711L217.389877,51.079678L217.382004,50.706791L217.385666,50.586716L217.391708,50.380127L217.415558,50.250126L217.57341,49.265232L217.618958,49.007736L217.618378,48.507011L217.613113,48.283302L217.610703,48.178638L217.580338,47.96817L217.557632,47.810318L217.523499,47.617882L217.444183,47.129711L217.438477,47.091019L217.415863,46.936707L217.436874,46.364761L217.548843,46.010704L217.724838,45.696712L217.838867,45.141663L217.83075,44.909622L217.825043,44.748684L217.792969,43.875759L217.793655,43.8535L217.799149,43.678299L217.866013,43.185455L217.891815,43.057507L218.030029,42.778557L218.206497,42.422447L218.212891,42.409431L218.29393,42.039398L218.278961,41.540958L218.276917,41.469391L218.243805,41.27673L218.150787,40.791073L218.094849,40.537804L218.005707,40.052147L218.003067,40.02076L217.989136,39.856743L217.988113,39.78883L217.978638,39.105717L217.982742,38.841259L218.017212,38.547241L218.102371,37.866295L218.160461,37.571365L218.270721,37.011063L218.326645,36.717155L218.327896,36.710537L218.386902,36.4002L218.420456,36.139278L218.5298,35.271721L218.544403,34.948708L218.544632,34.942543L218.548721,34.511444L218.549973,34.378933L218.507614,34.12281L218.436859,33.761108L218.40799,33.566959L218.396469,33.451221L218.322052,32.698711L218.304825,32.237141L218.30278,31.859001L218.382782,30.486153L218.427856,29.697121L218.450104,28.939589L218.451126,28.52504L218.451828,28.213787L218.448059,27.9935L218.438797,27.46413L218.398163,26.963408L218.369186,26.63549L218.369186,26.635262L218.257202,26.027708L218.220566,25.835728L218.164078,25.651281L218.135086,25.583826L218.029739,25.339571L217.975967,25.214819L217.918793,25.106958L217.573746,24.740919L217.466919,24.600645L217.212631,24.226501L217.158524,24.113848L217.006485,23.656498L216.924072,23.346956L216.869522,23.128725L216.835052,22.990391L216.747177,22.751842L216.956604,22.172003L216.387421,22.006752L216.301605,21.841709L216.29509,21.832691L216.432571,21.152647L215.786957,21.143301L215.444992,20.788218L215.384979,20.348917L214.878418,20.332922L214.574844,20.132029z"/>
</svg>
