<?xml version="1.0" encoding="UTF-8" standalone="no"?>
<svg
   xmlns:dc="http://purl.org/dc/elements/1.1/"
   xmlns:cc="http://creativecommons.org/ns#"
   xmlns:rdf="http://www.w3.org/1999/02/22-rdf-syntax-ns#"
   xmlns:svg="http://www.w3.org/2000/svg"
   xmlns="http://www.w3.org/2000/svg"
   xmlns:sodipodi="http://sodipodi.sourceforge.net/DTD/sodipodi-0.dtd"
   xmlns:inkscape="http://www.inkscape.org/namespaces/inkscape"
   width="210mm"
   height="297mm"
   viewBox="0 0 210 297"
   version="1.1"
   id="svg71"
   inkscape:version="1.0.2 (e86c870879, 2021-01-15)"
   sodipodi:docname="template.svg">
  <defs
     id="defs65" />
  <sodipodi:namedview
     id="base"
     pagecolor="#ffffff"
     bordercolor="#666666"
     borderopacity="1.0"
     inkscape:pageopacity="0.0"
     inkscape:pageshadow="2"
     inkscape:zoom="3.959798"
     inkscape:cx="264.29153"
     inkscape:cy="604.93907"
     inkscape:document-units="mm"
     inkscape:current-layer="layer1"
     inkscape:document-rotation="0"
     showgrid="false"
     inkscape:window-width="1916"
     inkscape:window-height="1161"
     inkscape:window-x="0"
     inkscape:window-y="757"
     inkscape:window-maximized="1" />
  <metadata
     id="metadata68">
    <rdf:RDF>
      <cc:Work
         rdf:about="">
        <dc:format>image/svg+xml</dc:format>
        <dc:type
           rdf:resource="http://purl.org/dc/dcmitype/StillImage" />
        <dc:title></dc:title>
      </cc:Work>
    </rdf:RDF>
  </metadata>
  <g
     inkscape:label="Layer 1"
     inkscape:groupmode="layer"
     id="layer1">
    <path
       style="fill:#000000;stroke-width:0.0846667"
       d="m 77.818361,157.81281 v -3.87774 c 0,-2.55032 0.0299,-3.90762 0.0873,-3.96503 0.0536,-0.0536 0.0781,-0.51024 0.0635,-1.1811 l -0.0238,-1.0938 -24.78616,-0.0213 -24.78616,-0.0213 V 91.391692 35.130839 h 59.39366 59.393669 V 91.518842 147.90685 H 121.30783 95.455291 l -0.0555,1.15638 c -0.0305,0.63602 -0.0555,2.90297 -0.0555,5.03767 v 3.88128 h -8.97466 c -5.92667,0 -8.548156,0.0282 -8.548156,-0.0277 -0.0031,-0.14163 0,0 -0.0031,-0.14163 z m -14.18166,-27.73307 c 4.62491,-0.0289 8.37363,-0.0864 8.58114,-0.13143 0.48291,-0.10492 0.79431,-0.27129 1.20904,-0.64598 0.43433,-0.39239 0.56347,-0.65833 0.99741,-2.05415 0.19544,-0.62865 0.42842,-1.35255 0.51774,-1.60866 0.16559,-0.47484 0.34614,-1.04244 2.66629,-8.382 1.65991,-5.25098 1.69113,-5.34904 2.37152,-7.45067 0.90358,-2.79106 0.79347,-3.29191 -1.01848,-4.63253 -2.13523,-1.57981 -8.96511,-6.658768 -12.25682,-9.114628 -2.05147,-1.53055 -3.84767,-2.83185 -3.99156,-2.89178 -0.44052,-0.18347 -1.01875,-0.23154 -1.52384,-0.12669 -0.406,0.0843 -0.67882,0.24718 -1.80927,1.08027 -0.73214,0.53956 -2.07412,1.52028 -2.98217,2.17937 -0.90805,0.65909 -2.18984,1.59584 -2.84841,2.08166 -0.65857,0.48583 -1.80157,1.32403 -2.54,1.862678 -8.36574,6.10245 -8.3599,6.09801 -8.63837,6.57176 -0.20568,0.34993 -0.23947,0.49734 -0.23895,1.04256 5.1e-4,0.55079 0.0697,0.84269 0.52159,2.20133 0.28654,0.86148 0.92186,2.80458 1.41182,4.318 2.429,7.50278 2.7768,8.57941 3.06332,9.48267 0.16988,0.53551 0.43701,1.35466 0.59363,1.82033 0.15663,0.46567 0.44227,1.34197 0.63477,1.94733 0.5546,1.74413 0.87727,2.14915 1.9339,2.42756 0.48676,0.12825 0.86366,0.14296 2.84703,0.1111 1.2573,-0.0202 5.9817,-0.0598 10.49867,-0.0881 z m 67.715729,-2.26572 c 0.47038,-0.27649 0.86735,-0.78301 1.00013,-1.2761 0.0666,-0.24742 0.0816,-4.40733 0.0529,-14.65545 -0.0447,-15.916668 0,-14.799768 -0.61925,-15.523078 -0.16904,-0.19748 -0.46517,-0.44347 -0.65807,-0.54664 l -0.35074,-0.18758 -14.732,-0.0614 c -8.1026,-0.0338 -14.98074,-0.0709 -15.28475,-0.0825 -0.47439,-0.0181 -0.60992,0.0124 -0.956065,0.21525 -0.468284,0.27444 -0.865014,0.78131 -0.998154,1.27526 -0.0671,0.24913 -0.083,4.376048 -0.0561,14.655458 0.042,16.08885 -0.0284,14.57698 0.71651,15.37794 0.470764,0.50616 0.910049,0.72873 1.556929,0.7888 0.46152,0.0429 4.34533,0.0849 17.09597,0.18497 3.79519,0.0298 6.91371,0.0656 6.93005,0.0795 0.0164,0.0139 1.34984,0.0183 2.96333,0.01 l 2.93362,-0.0156 z M 64.653891,75.136392 c 8.96531,-0.0282 14.5927,-0.0769 14.77725,-0.1278 0.82066,-0.2266 1.52682,-0.95315 1.6899,-1.73869 0.14143,-0.68123 -0.016,-1.14679 -0.94456,-2.79358 -0.97608,-1.73107 -1.96531,-3.5087 -2.4013,-4.31515 -0.17623,-0.32597 -0.70259,-1.27847 -1.16968,-2.11667 -0.4671,-0.8382 -1.02679,-1.84785 -1.24375,-2.24366 -0.21696,-0.39582 -0.56614,-1.02447 -0.77596,-1.397 -0.20981,-0.37254 -0.52643,-0.94404 -0.70361,-1.27 -0.17717,-0.32597 -0.51372,-0.93557 -0.74788,-1.35467 -0.23416,-0.4191 -0.81421,-1.46685 -1.289,-2.32833 -0.47479,-0.86149 -1.25511,-2.27119 -1.73404,-3.13267 -0.47893,-0.86148 -1.05857,-1.90923 -1.2881,-2.32833 -0.22953,-0.4191 -0.70545,-1.276353 -1.0576,-1.905003 -0.99546,-1.777059 -1.26278,-2.260718 -2.5258,-4.569841 -1.33893,-2.447902 -1.77864,-3.010407 -2.51262,-3.214282 -0.80891,-0.224693 -1.60593,0.0045 -2.14418,0.616502 -0.17024,0.193575 -0.88246,1.323505 -1.58271,2.510954 -2.02934,3.441236 -3.42828,5.80606 -4.08198,6.90033 -0.33382,0.5588 -0.87521,1.4732 -1.20309,2.032 -0.32788,0.5588 -1.15962,1.9685 -1.8483,3.13267 -0.68869,1.16417 -1.73643,2.93582 -2.3283,3.937 -2.01324,3.40548 -3.57731,6.04963 -4.78284,8.08567 -3.11153,5.25511 -2.83696,4.72757 -2.83418,5.44534 0.002,0.57701 0.19783,1.04667 0.63952,1.53557 0.35574,0.39377 0.63704,0.56325 1.1127,0.6704 0.17614,0.0397 1.7109,0.0592 3.41058,0.0434 1.69969,-0.0158 9.60597,-0.0492 17.56953,-0.0742 z m 52.746139,-0.24591 c 0.32596,-0.12859 1.25071,-0.161547 1.62594,-0.318507 0.37523,-0.15696 2.81971,-0.936536 2.81971,-0.936536 1.86256,-0.80672 1.16285,-0.523427 2.98003,-1.600087 0.53582,-0.31746 2.95125,-2.50704 3.43659,-3.11525 0.17041,-0.21354 0.60135,-0.73361 0.95764,-1.1557 0.76781,-0.90961 0.82255,-1.00891 1.32031,-2.39518 0.58081,-1.61755 0.59397,-1.67172 0.82074,-3.37711 0.31336,-2.35672 0.35585,-2.83777 0.43862,-4.96599 0.0629,-1.61639 0.11395,-1.35943 -0.66678,-3.35328 -1.02743,-2.62389 -1.4252,-3.61018 -1.56793,-3.88776 -0.14151,-0.2752 -1.29078,-1.335367 -2.72454,-2.513307 -2.24505,-1.844472 -2.27133,-1.863083 -3.15382,-2.233654 -0.47731,-0.200431 -1.1536,-0.486983 -1.50285,-0.636781 -0.82411,-0.353476 -2.76874,-1.014382 -3.47133,-1.179779 -0.79704,-0.187629 -1.74922,-0.17482 -2.20524,-0.187089 0,0 -0.3563,-0.0055 -0.53673,-1.84e-4 -0.20348,0.006 -0.37681,0.0099 -0.8939,0.02736 -1.90247,0.06422 -4.10103,0.345585 -6.39713,1.33616 -0.46567,0.200896 -0.93632,0.392579 -1.04589,0.425962 -0.10957,0.03338 -0.51561,0.302096 -0.9023,0.597142 -0.38669,0.295047 -0.90664,0.638782 -1.15544,0.763857 -0.54862,0.275793 -2.36117,2.025207 -2.93361,2.831414 -0.21492,0.302683 -0.66262,0.912283 -0.99489,1.354673 -0.69764,0.92883 -0.76473,1.04875 -1.16048,2.07433 -0.793629,2.05664 -0.928009,2.44583 -1.183909,3.429 -0.27488,1.05602 -0.27544,1.0624 -0.2554,2.921 0.0177,1.63836 0.19844,4.25882 0.3271,4.74133 0.26944,1.01056 2.044239,4.24542 2.894889,5.27642 0.17982,0.21794 0.61464,0.77725 0.96626,1.24292 0.35163,0.46566 0.7297,0.9296 0.84016,1.03097 0.24844,0.22798 2.2952,1.38395 3.71451,2.09788 0.66755,0.33578 1.48038,0.65845 2.20133,0.87385 0.62865,0.18782 1.6034,0.47866 2.16611,0.64629 1.11706,0.33279 2.36021,0.47467 3.84523,0.43884 0.64808,-0.0156 0.91947,-0.0648 1.397,-0.25319 z"
       id="path34"
       sodipodi:nodetypes="csssccccccccccccscsccccsssssssssssscsssssssssccscssccssccscsccccccssssssssssssssssssssscscsccsssssssscssssssssssssssssscssssssscss" />
  </g>
</svg>
