<?xml version="1.0" encoding="UTF-8" standalone="no"?>
<svg xmlns="http://www.w3.org/2000/svg" xmlns:xlink="http://www.w3.org/1999/xlink" width="49.024mm" height="29.220mm" viewBox="245.487869 53.390240 49.024216 29.219517">
    <path transform="translate(116.395576,14.980316)" style="stroke:#ff0000;stroke-width:0.05mm;fill:none" d="M166.259277,38.424316L166.894043,38.472656C173.516403,39.152298,178.443527,44.903023,178.099609,51.55127C177.758911,58.197029,172.270706,63.409798,165.616211,63.408203C161.839447,63.412457,158.26442,61.704258,155.89502,58.763184L153.053223,60.128906L152.865234,60.544434C149.974014,66.553505,142.875732,69.23687,136.732422,66.643066C130.372711,63.95483,127.394737,56.620701,130.080078,50.259766C132.676193,44.118446,139.634216,41.093468,145.895996,43.383789C147.890869,44.114185,149.665695,45.342728,151.051758,46.952637L154.430664,45.329102L154.625,44.949707C156.920792,40.713654,161.447571,38.174683,166.259277,38.424316z"/>
</svg>
