<?xml version="1.0" encoding="UTF-8" standalone="no"?>
<svg xmlns="http://www.w3.org/2000/svg" xmlns:xlink="http://www.w3.org/1999/xlink" width="222.790mm" height="212.500mm" viewBox="9.605230 10.750210 222.789551 212.499542">
    <path transform="translate(9.50473,10.648903)" style="stroke:#ff0000;stroke-width:0.05mm;fill:none" d="M163.953491,0.731053L164.354462,1.363056L164.532425,1.847034L164.750458,2.632051L164.966415,3.925084L165.127411,5.838051L165.242416,8.007071L165.317429,9.739096L165.473129,12.297133L165.50145,12.762158L165.863434,17.546173L166.338425,22.822144L166.755478,26.954103L166.945602,28.681139L166.96344,28.84413L167.126434,30.385136L167.352463,32.571114L167.426086,33.314034L167.647919,35.567841L167.670761,35.800453L167.692398,36.020496L167.717346,36.30069L167.748672,36.663177L167.806534,37.305256L167.845627,37.739159L167.981598,39.141117L168.10759,40.353157L168.172714,40.949448L168.178604,41.003109L168.345169,42.414642L168.657166,45.065147L168.670639,45.179363L168.76828,46.017742L169.020645,48.154045L169.083496,48.685204L169.180466,49.499146L169.274429,50.234188L169.350418,50.775223L169.414459,51.180202L169.475494,51.501194L169.562485,51.89819L169.621429,52.223167L169.719391,52.823151L169.782623,53.257153L169.819427,53.510113L169.886475,54.032093L169.930466,54.432083L169.975342,54.778111L170.136444,56.019077L170.347519,57.496643L170.388397,57.78302L170.420425,57.982513L170.453949,58.20615L170.481476,58.403053L170.747498,60.219067L170.933334,61.449059L171.006546,61.934036L171.045547,62.189991L171.050735,62.226898L171.125549,62.753967L171.308777,63.963509L171.381592,64.443993L171.719147,66.562439L171.814606,67.162025L172.327606,70.260994L172.649582,72.14344L172.763596,72.810059L172.918304,73.703697L173.34671,76.190918L173.496429,77.07618L173.607651,77.743095L173.61235,77.772125L173.62233,77.833168L173.681564,78.196152L173.694931,78.287521L173.712997,78.395752L173.822327,78.984962L173.830002,79.02626L173.885468,79.325203L174.052444,80.183235L174.197479,80.898232L174.247452,81.13723L174.305191,81.429688L174.32843,81.547188L174.355469,81.739807L174.592468,83.432228L174.686432,85.241264L174.678452,85.830269L174.677841,86.025276L174.676437,86.482323L174.704468,87.143349L174.780472,87.615364L174.918427,87.912415L175.126389,88.05246L175.330368,88.055946L175.422348,88.057449L175.699844,87.973862L175.817352,87.938454L176.19838,87.776459L176.423416,87.670425L176.733429,87.540451L176.868698,87.491478L177.125351,87.398506L177.451324,87.313522L177.616302,87.292473L177.662277,87.304451L177.713242,87.309433L177.800522,87.27153L177.955231,87.204399L178.057663,87.066841L178.141266,86.95443L178.180267,86.826454L178.408279,86.379486L178.649368,86.025482L178.752319,85.874466L178.826324,85.783493L179.026321,85.529533L179.426315,84.899033L179.550293,84.703529L180.087341,83.443504L180.505386,81.787498L180.639145,80.993401L180.792358,80.084496L180.936386,79.044525L181.121109,77.833488L181.151428,77.634491L181.413467,76.355515L181.579544,75.835732L181.744415,75.319534L182.107407,74.45253L182.387405,73.831497L182.801361,72.804489L182.808746,72.777161L183.080368,71.778481L183.105392,70.874466L182.968445,70.125458L182.835876,69.641479L182.820526,69.585526L182.457535,68.731483L181.737564,67.32045L180.901566,65.932457L180.360733,65.153221L180.327515,65.105438L179.824493,64.522415L179.426483,64.054199L178.974518,63.522438L178.022537,62.372444L177.327499,61.488476L177.299164,61.449474L177.021469,61.066441L176.759445,60.580467L176.256409,59.391468L175.799362,57.813454L175.587402,56.268456L175.614441,54.804455L175.877472,53.469429L175.967529,53.257465L176.370422,52.30946L177.090393,51.37442L177.773376,50.833382L178.295364,50.578426L179.126373,50.265419L179.426407,50.167168L180.628372,49.773457L182.267334,49.31242L183.397369,49.036419L184.327332,48.851387L186.002304,48.661369L187.867294,48.744358L189.457275,49.221352L190.540253,49.845375L191.157288,50.343418L191.939316,51.198463L192.766327,52.666451L192.959839,53.257458L193.457382,54.776421L193.981354,57.038406L194.0439,57.353409L194.134857,57.812153L194.26712,58.476078L194.448166,59.364132L194.712891,60.620556L194.887451,61.449463L195.024002,62.097527L195.810318,65.794685L195.928711,66.351379L196.481506,68.958191L196.744339,70.204346L196.794922,70.436165L197.015854,71.44751L197.090378,71.788452L197.374374,72.981438L197.618362,73.865402L197.847397,74.519455L198.004883,74.85141L198.08638,75.023376L198.3564,75.457382L198.600388,75.793335L198.684387,75.902359L198.874405,76.141357L198.915009,76.201607L199.149811,76.549919L199.389389,76.905426L199.696411,77.611244L199.792969,77.833473L199.833374,77.926437L200.100388,79.208405L200.236359,80.552406L200.376389,82.636444L200.429367,83.300468L200.471466,83.764603L200.490326,83.97348L200.571304,84.739441L200.679337,85.680466L200.790756,86.600044L201.003616,88.354408L201.028549,88.56897L201.057388,88.825325L201.063461,88.869614L201.223358,90.031281L201.507339,91.853279L201.82634,93.666298L201.93338,94.217308L202.040314,94.767616L202.046906,94.801231L202.056366,94.850304L202.340546,96.171165L203.637177,102.21978L203.92923,103.58284L204.670364,107.078308L205.415482,110.601196L205.826645,112.545486L205.853882,112.674171L206.228546,114.433731L206.864624,117.422379L207.473282,120.274071L207.659317,121.132103L207.807541,121.827042L208.390076,124.566833L208.426392,124.738892L208.748871,126.266724L208.893799,126.955887L208.899887,126.985107L209.048798,127.693222L209.495682,129.840897L209.738373,131.00705L210.052383,132.465057L210.153214,132.919617L210.228119,133.257568L210.267136,133.433716L210.322388,133.682999L210.45256,134.249161L210.466339,134.309006L210.557098,134.683655L210.628906,134.981903L210.777832,135.6194L210.841354,135.892014L211.01033,136.666046L211.027084,136.74704L211.119247,137.191025L211.193268,137.57605L211.290527,138.051346L211.338196,138.284058L211.859283,140.75592L212.194138,142.344208L212.374191,143.198044L212.410889,143.369003L212.965195,145.94899L213.527176,148.657959L213.633606,149.185822L214.031296,151.174286L214.1492,151.767883L214.428299,153.203461L214.949875,155.88768L214.953857,155.908127L215.145676,156.902008L215.4552,158.504868L215.673447,159.624527L215.698395,159.752808L216.075729,161.69101L216.086807,161.745682L216.112823,161.873459L216.163315,162.115738L216.2854,162.721512L216.49028,163.737747L216.814255,165.390778L216.868225,165.657791L216.961197,166.16481L217.255157,167.683777L217.776154,170.30574L218.076477,171.772034L218.314178,172.932693L218.636154,174.472717L218.750168,174.985718L218.991455,176.136719L219.320114,177.704742L219.769073,179.964737L220.171066,182.142731L220.307037,182.923859L220.606888,184.648315L220.73526,185.399521L220.904022,186.391815L221.14502,187.840851L221.338028,189.050903L221.494034,190.110916L221.625015,191.113892L221.746017,192.144882L221.786316,192.520828L221.836182,192.986542L222.007446,194.587509L222.029282,194.808746L222.187195,196.353531L222.318054,197.625412L222.445236,198.797455L222.493912,199.24382L222.561951,199.787842L222.58519,200.080215L222.586884,200.101471L222.633972,200.694763L222.641953,200.795914L222.675278,201.383133L222.741013,202.542892L222.814026,204.52388L222.858017,206.564926L222.870987,208.48996L222.866196,208.904907L222.852036,210.130905C222.809036,211.088684,222.779022,211.453568,222.890045,212.600861L222.823807,212.569534C220.486313,211.464127,220.398743,211.316101,217.978043,209.558838L217.302338,208.904785L215.080063,206.753815L212.194061,203.281494L212.156052,203.235809C206.015152,194.410217,205.314636,192.68956,200.77301,182.809814L198.142059,176.362808L198.060059,176.13678L195.650055,169.493744L193.319046,162.272797L191.173065,154.766754L189.232071,147.048752L188.428299,143.368759L187.527084,139.242981L187.516113,139.192795L187.508926,139.154892L187.490158,139.05574L187.487381,139.050262L187.484177,139.043777L187.341141,138.558792L187.331161,138.391815L187.301346,138.147629L187.300156,138.137848L187.224152,137.678818L187.13118,137.194138L187.124207,137.157837L187.036331,136.734497L187.015182,136.632751L186.981171,136.497787L186.886215,136.089813L186.760223,135.521851L186.689102,135.176819L186.652206,134.997772L186.594238,134.686768L186.578278,134.582733L186.503281,134.151718L186.273254,132.86467L186.015411,131.518768L186.001251,131.444656L185.734222,130.158707L185.39418,128.633667L185.259232,128.006653L185.109222,127.245667L185.065842,126.984627L185.009277,126.643593L184.975266,126.371582L184.979263,126.188553L184.943253,125.911552L184.922211,125.77948L184.87973,125.511047L184.844208,125.287521L184.696381,124.501808L184.69519,124.495529L184.562225,123.836487L184.457199,123.345543L184.288223,122.528503L183.928238,120.71328L183.744705,119.785721L183.650635,119.31012L183.548782,118.792526L183.496521,118.526299L183.377808,117.90667L183.189194,116.919456L182.914185,115.535461L182.658234,114.297493L182.528259,113.695702L182.507217,113.598549L182.488174,113.515663L182.270828,112.53923L182.167282,112.071518L182.013763,111.313927L181.968277,111.089493L181.897049,110.600533L181.864243,110.375504L181.859253,109.881561L181.960297,109.56356L182.17128,109.370552L182.500244,109.259537L182.839294,109.196503L183.056244,109.161484L183.297134,109.11351L184.183304,108.932571L184.582489,108.848587L185.03833,108.75013L185.064758,108.744347L185.35173,108.682297L185.608078,108.62664L185.645187,108.618568L185.952423,108.544952L186.768051,108.351646L186.780533,108.348663L187.245346,108.241524L187.61821,108.15564L188.04393,108.057487L188.357635,107.986069L188.706146,107.908661L188.808594,107.884827L188.940247,107.853508L188.94165,107.853111L189.323288,107.740494L189.805267,107.571518L190.204254,107.395561L190.407242,107.283546L190.521255,107.182503L190.679245,107.010529L190.770218,106.788498L190.752853,106.504517L190.751251,106.478477L190.67276,106.130157L190.669281,106.114487L190.639252,105.995499L190.40126,105.247482L190.22731,104.756531L190.178329,104.637543L190.080276,104.341583L190.069412,104.308571L190.001373,104.021599L189.991791,103.960251L189.988403,103.938507L189.905411,103.671494L189.883163,103.61882L189.792389,103.403557L189.745911,103.332039L189.738419,103.320557L189.405457,102.765572L189.323456,102.625526L189.187103,102.408577L189.152481,102.353607L188.865509,101.928589L188.536545,101.473633L188.189529,101.016586L187.848495,100.585571L187.618469,100.31176L187.533493,100.21051L187.271454,99.92054L187.134491,99.782593L187.019501,99.6996L186.814499,99.584587L186.574509,99.566635L186.265488,99.716652L185.905487,99.96962L185.562454,100.220589L184.921478,100.763618L183.933456,101.696663L183.249893,102.408661L182.873444,102.800667L181.787491,104.014702L180.727478,105.28569L179.780869,106.504707L179.740463,106.556679L179.426453,106.996857L178.874451,107.770714L178.342484,108.590736L177.758453,109.590714L177.220016,110.600761L176.581436,111.798729L175.287399,114.619698L174.280441,117.425697L173.538422,120.311707L173.042358,123.36969L172.771347,126.697678L172.705322,130.384659L172.777344,133.493713L172.822037,134.470245L172.9991,138.263168L173.054245,139.425735L173.053543,139.428528L173.049652,139.442886L173.049255,139.58493L169.156891,139.586624L169.156891,142.584259L164.156921,142.584259L164.156921,139.588516C152.532181,139.592407,140.915741,139.592712,129.304077,139.59201L129.304077,142.584259L124.304108,142.584259L124.304108,139.591507C112.682968,139.590515,101.066422,139.588623,89.451164,139.587921L89.451164,142.584244L84.451195,142.584244L84.451195,139.587708L84.451195,139.584229C72.833748,139.583923,61.217091,139.588715,49.598351,139.593704L49.598351,142.559204L44.598385,142.559204L44.598385,139.596191L40.955585,139.59819L40.859627,139.580246L40.737633,139.552216L40.246674,139.07872L40.162689,138.982162L39.992916,138.786957L39.852669,138.625763L39.725891,138.393051L39.566292,138.157532L39.452682,137.989761L39.451187,137.988358L39.306454,137.858383L39.24461,137.802826L39.203609,137.812805L39.115631,137.773804L38.929604,137.6548L38.69659,137.470764L38.503578,137.297806L38.443531,137.237762L38.291515,137.076767L37.768536,136.659729L36.851555,136.045685C34.559242,134.776199,32.028637,133.735519,29.497532,133.163666L29.002483,133.034698L28.630123,132.927567L28.59551,132.917694L28.308537,132.830704L27.874533,132.731659L27.839521,132.723679L27.01251,132.596695L25.895533,132.490677L24.401506,132.404694L23.778482,132.381439L22.444452,132.331665L19.941477,132.269623L16.803505,132.21666L15.586478,132.199905L13.910513,132.176666L12.39155,132.159714L10.719574,132.133667L10.644663,132.131485L8.94755,132.082703L7.557562,132.002716L7.394574,131.984558L6.4736,131.881714L5.619558,131.709747L4.921521,131.471756L4.302485,131.158737L3.834467,130.865784L3.587491,130.695816L3.306501,130.481857L2.892547,130.131836L2.464528,129.736832L2.044489,129.319794L1.655472,128.901749L1.316429,128.505753L1.050401,128.155731L0.916439,127.947762L0.677443,127.462784L0.534105,126.984787L0.277453,126.128754L0.1005,124.297783L0.342489,122.511803L0.783475,121.274834L1.24451,120.480827L2.220545,119.354881L4.026582,117.846893L6.293555,116.46489L8.229563,115.548897L9.302552,115.14193L10.571547,114.790916L12.570497,114.419937L14.836473,114.183937L15.586477,114.153122L17.320496,114.081902L19.971498,114.115921L22.738508,114.285889L25.571552,114.589928L27.709551,114.903938L28.978745,115.132874L29.693737,115.261238L29.743511,115.270218L30.423193,115.384628L30.736601,115.437698L30.832857,115.451668L30.966419,115.470818L30.9736,115.472214L31.20402,115.516602L31.588448,115.59082L31.862955,115.650864L31.917217,115.662727L31.970383,115.674309L32.70443,115.834801L33.964447,116.140823L34.912453,116.386803L35.37748,116.514793L35.827442,116.647751L36.630413,116.897713L37.554379,117.194763L38.518345,117.512756L39.439316,117.825768L40.233311,118.10276L40.823322,118.317719L41.051342,118.404694L41.123363,118.444687L41.301414,118.528679L41.766937,118.747421L41.865189,118.792709L42.070572,118.887283L42.759129,119.201881L43.239414,119.417839L43.791218,119.664619L43.818352,119.678078L43.997601,119.767464L45.705288,120.619598L48.226322,122.041603L48.354298,122.123993L50.765308,123.676567L52.738323,125.070549L53.623287,125.737556L54.337284,126.300537L55.176064,126.98452L55.453266,127.210564L56.546303,128.126236L56.655331,128.217514L57.868362,129.258484L59.013371,130.265442L59.913597,131.08049L60.017437,131.174438L60.802456,131.917465L61.179501,132.29451L61.382488,132.529526L61.668465,132.810501L62.041424,133.089493L62.459469,133.288498L62.837513,133.40451L63.133465,133.470535L63.646473,133.560501L64.069504,133.550537L64.323463,133.377579L64.457428,133.11554L64.520462,132.921524L64.670486,132.183487L64.73851,131.806351L64.996559,130.375458L65.436546,127.759468L65.561333,126.984428L65.830551,125.313454L65.958534,124.496407L65.993736,124.285454L66.055283,123.918266L66.073433,123.81015L66.34066,122.242317L66.431534,121.714447L66.700554,120.189407L67.229515,117.287437L67.457535,116.076401L67.644562,115.136368L67.731743,114.714943L67.735535,114.696381L67.740326,114.677727L67.772545,114.552437L67.793587,114.44841L68.11557,113.060417L68.336617,112.075401L68.416214,111.764793L68.679649,110.736389L68.717453,110.600433L69.26268,108.640388L69.938667,106.364441L70.667633,104.043404L71.40567,101.805351L72.112679,99.783363L72.745682,98.108391L73.120636,97.204376L73.306664,96.821342L73.580673,96.202309L73.866646,95.520332L73.95961,95.283333L74.025742,95.140793L74.134666,94.906288L74.30085,94.575218L74.481094,94.216324L74.49765,94.183311L74.949608,93.330269L75.318581,92.662262L75.483765,92.371597L76.080956,91.317261L76.662285,90.284866L77.42057,88.936974L77.493088,88.805107L77.589539,88.627357L78.083496,87.812317L78.986511,86.399284L80.076553,84.771294L81.122513,83.252937L81.274529,83.032288L82.511505,81.2873L83.71048,79.641258L84.797432,78.200302L85.085808,77.832329L85.467438,77.34536L86.112709,76.577499L86.199394,76.474365L86.511414,76.095123L86.838882,75.693832L87.179726,75.2724L87.288246,75.139435L87.40844,74.992302L87.554466,74.800293L88.016602,74.248283L88.022484,74.241302L88.03775,74.224342L88.821472,73.352348L88.836136,73.336983L89.760399,72.369431L90.791397,71.335442L91.872368,70.294472L92.579185,69.640427L92.957428,69.290413L94.001396,68.364449L94.716385,67.758484L95.450432,67.166473L96.946457,66.007507L97.506439,65.604919L98.892441,64.608536L100.979469,63.249569L102.781517,62.159527L103.615517,61.676544L104.04702,61.448524L104.512543,61.202545L106.2715,60.305508L108.297493,59.294464L109.739441,58.588448L110.691437,58.13649L112.086411,57.4585L113.211372,56.843452L113.833397,56.368454L113.890358,56.298031L114.117378,56.017441L114.279373,55.729465L114.422409,55.182449L114.512383,53.997444L114.491631,53.256416L114.465103,52.308411L114.458321,52.065426L114.337822,50.137199L114.320374,49.856407L114.232384,48.679382L114.136429,47.353428L114.008453,45.4244L113.987,45.064411L113.898422,43.571384L113.890442,43.422558L113.836479,42.418396L113.789497,41.385406L113.687263,39.727795L113.669502,39.439423L113.439484,36.252377L113.16748,32.943336L112.964493,30.71736L112.889488,29.978327L112.82296,29.166079L112.783249,28.680307L112.753433,28.316326L112.743553,28.183361L112.621452,26.535326L112.58445,25.949306L112.531487,25.205284L112.507446,24.891678L112.463463,24.317228L112.399406,23.628267L112.36441,23.305285L112.31543,23.021303L112.249397,22.378328L112.217484,21.949711L112.158417,21.155319L112.144257,20.881311L112.080421,19.64633L112.058472,19.030287L112.025749,18.108017L112.019371,17.927275L111.976387,16.083233L111.955338,14.190215L111.958328,12.329216L111.958717,12.296199L111.975281,11.018228L112.024261,8.98626L112.061256,7.746293L112.103256,6.808263L112.151237,6.123294L112.211281,5.639316L112.286293,5.306357L112.384239,5.070354L112.471222,4.928313L112.597198,4.767319L112.974243,4.500294L113.557266,4.339301L113.890228,4.377106L114.201241,4.412317L114.710258,4.621289L115.05928,4.853303L115.600319,5.340272L116.706322,6.426229L118.086327,7.880256L119.652367,9.60021L121.309387,11.484251L122.002937,12.2963L122.97139,13.430335L124.544418,15.338315L125.596458,16.657284L126.296494,17.572271L127.374474,18.97323L128.522461,20.42626L129.443436,21.51531L130.193451,22.297333L130.274445,22.364763L130.835434,22.831385L131.426437,23.172422L132.02742,23.37541L132.529449,23.476454L132.948486,23.5375L133.978485,23.55855L136.267502,23.512564L139.481491,23.368528L139.85614,23.347084L142.525391,23.194469L143.174347,23.154869L144.262589,23.084846L145.965286,22.974224L146.322189,22.952381L146.658249,22.931831L146.833908,22.921158L148.013626,22.850735L148.138412,22.843254L148.298203,22.83238L148.307983,22.831182L148.757141,22.77742L149.348145,22.675377L149.851181,22.549397L150.103531,22.460323L150.120102,22.454437L150.201096,22.408451L150.376053,22.315485L150.802078,21.837494L151.501114,20.764503L151.63916,20.488503L151.675369,20.416185L152.224075,19.319456L152.523026,18.598677L152.749146,18.053453L152.952133,17.481499L153.116119,17.054478L153.317123,16.585463L153.417969,16.39245L153.482208,16.269461L153.567184,16.154451L153.579559,16.154652L153.619156,16.155449L153.699158,16.049417L153.744141,15.856404L153.746719,15.781593L153.74913,15.71137L153.806076,15.477363L153.90303,15.255323L153.925079,15.225299L153.952103,15.200262L154.169052,14.833289L154.230103,14.702919L154.435089,14.264327L154.539124,14.013361L154.850128,13.319314L154.88913,13.232334L155.250122,12.45031L155.287827,12.369714L155.323441,12.2963L155.490326,11.951172L155.512863,11.90449L155.874161,11.16027L155.988266,10.921871L156.319138,10.230319L156.708145,9.390341L157.388138,7.872376L157.575653,7.469394L157.72319,7.152394L158.074203,6.422439L158.318192,5.938461L158.403168,5.777468L158.603256,5.368301L158.834778,4.889411L159.045135,4.449522L159.207031,4.104494L159.351166,3.79747L159.53421,3.394488L159.70018,3.01345L159.755341,2.907418L159.893799,2.641091L160.073151,2.296362L160.609192,1.466359L161.166183,0.811314L161.564178,0.463293L161.897141,0.27028L162.540115,0.101307L163.042145,0.182901L163.303192,0.225294L163.953491,0.731053z"/>
    <path transform="translate(9.50473,10.648903)" style="stroke:#ff0000;stroke-width:0.05mm;fill:none" d="M131.122192,37.007271L130.701157,36.885281L130.648483,36.872311L130.344147,36.797302L130.274139,36.782738L130.022171,36.73037L129.411209,36.613365L128.832184,36.549328L128.255142,36.575363L127.64917,36.651371L127.124199,36.727383L126.624573,36.872417L126.173203,37.003384L124.991188,37.569355L123.928169,38.347389L123.003197,39.312351L122.236237,40.434315L121.652222,41.690346L121.269188,43.050308L121.122147,44.127289L121.106201,44.743328L121.121559,45.06432L121.143204,45.514282L121.211037,46.057812C121.347893,47.155041,121.922234,48.159904,122.534187,49.097336L122.585571,49.160374L122.831146,49.461414L123.058167,49.692432L123.234123,49.840458L123.852173,50.369419L124.47818,50.92741L124.578232,51.023369L124.782219,51.206406L125.10331,51.412086L125.489227,51.659363L126.596237,52.09536L127.926277,52.338345L129.113281,52.403381L129.884232,52.387421L130.274246,52.34782L131.007294,52.273407L132.272308,51.943439L133.424301,51.356422L134.312256,50.708458L134.767212,50.309467L135.278214,49.801449L135.792221,49.114483L136.225235,48.239491L136.574249,47.323505L136.746216,46.820473L136.92926,46.226479L137.057236,45.599461L137.076874,45.064411L137.08017,44.975437L137.040176,44.385429L136.970154,43.7244L136.475113,41.682358L136.112427,40.968361L135.651093,40.060352L135.267059,39.592335L134.674057,39.020382L134.002151,38.47496L133.723053,38.248333C132.820633,37.658024,132.096848,37.354389,131.122025,37.007366L131.122192,37.007271z"/>
    <path transform="translate(9.50473,10.648903)" style="stroke:#ff0000;stroke-width:0.05mm;fill:none" d="M146.896255,35.260578L146.658249,35.588547L146.021255,36.46653L145.814087,36.872505L145.601318,37.289551L145.393341,38.157558L145.241333,40.858536L145.790344,43.303558L146.15831,44.080593L146.65834,44.863121L146.751312,45.008652L146.800781,45.064606L147.695328,46.075653L148.809311,46.94067L150.062347,47.592621L151.423309,48.018642L152.864273,48.206669L154.356293,48.145622L155.50032,47.935654L156.057312,47.767681L156.613297,47.567688L157.214279,47.266647L157.777267,46.857681L158.252274,46.428665L158.871292,45.822697L159.412933,45.064709L160.027374,44.204681L160.890381,41.922649L160.981354,39.491688L160.539383,37.562664L160.240845,36.872707L160.1763,36.723686L159.685349,36.063652L158.708313,35.042633L157.531281,34.064602L156.645325,33.460629L155.895309,33.066624L154.495346,32.551624L152.741379,32.31163L150.987411,32.57267L149.593445,33.100636L148.847427,33.49963L147.998459,34.152576L146.896255,35.260578z"/>
    <path transform="translate(9.50473,10.648903)" style="stroke:#ff0000;stroke-width:0.05mm;fill:none" d="M188.470413,55.750614L187.618378,55.623234L187.487396,55.603683L186.75914,55.725475L186.50647,55.76767L185.624496,56.225712L185.534531,56.316685L185.44754,56.358677L185.018539,56.7057L184.742538,57.038658L184.536545,57.36364L184.343536,58.094589L184.373566,58.559616L184.337555,58.802601L184.421539,59.303535L184.501541,59.780632L184.960571,60.661606L185.669586,61.356651L185.854919,61.44862L186.559647,61.798634L187.542664,61.945667L188.523682,61.781681L189.164948,61.448723L189.405655,61.323742L190.101685,60.61673L190.54567,59.728771L190.649399,59.041607L190.693695,58.747845L190.62767,58.360825L190.622681,58.203819L190.543671,57.781788L190.365723,57.413815L190.321548,57.352768L190.286728,57.304787L190.069778,56.888741L189.778015,56.602661L189.360764,56.19379L188.47081,55.750809L188.470413,55.750614z"/>
    <path transform="translate(9.50473,10.648903)" style="stroke:#ff0000;stroke-width:0.05mm;fill:none" d="M188.55719,76.80423L188.502625,76.913452L188.462219,76.994247L188.455917,77.036644L188.407135,77.362518L188.336807,77.83223L188.31517,77.976265L188.479141,78.954292L188.938187,79.834274L189.647186,80.52932L190.537155,80.972298L191.521164,81.118332L192.50119,80.955345L193.383163,80.497307L194.080215,79.790291L194.523193,78.901337L194.671219,77.920311L194.656448,77.832336L194.506226,76.942383L194.047195,76.061409L193.339172,75.366364L192.44812,74.924377L191.714081,74.813858L191.465103,74.77636L190.641083,74.915405L190.466141,74.916405L190.321594,74.95002L190.144455,74.991211L190.12619,74.995399L190.082199,75.06443L190.065262,75.084473L189.899277,75.171455L189.695297,75.218437L189.574295,75.215446L189.412292,75.291458L189.186264,75.509506L189.148666,75.564865L188.999557,75.784508L188.964249,75.836479L188.759262,76.237465L188.589294,76.685432L188.55719,76.80423z"/>
    <path transform="translate(9.50473,10.648903)" style="stroke:#ff0000;stroke-width:0.05mm;fill:none" d="M197.501282,94.431404L197.4133,94.344429L197.15625,94.216446L196.523361,93.901443L195.810349,93.794807L195.55101,93.756012L195.540329,93.75441L194.559311,93.919395L194.313339,94.047371L193.935287,94.136345L193.794739,94.216339L193.66127,94.292351L193.39325,94.568352L193.228287,94.832382L192.980316,95.084343L192.622314,95.801826L192.537338,95.972298L192.390305,96.953316L192.554276,97.932343L192.752472,98.312378L193.013321,98.812416L193.722321,99.507454L194.612289,99.950439L195.595306,100.096474L195.810272,100.060753L196.576233,99.933479L197.458206,99.474442L198.154236,98.767433L198.49408,98.087852L198.598312,97.879478L198.641312,97.596489L198.777267,97.14254L198.733276,96.032547L198.263275,95.069572L197.643234,94.50061L197.501282,94.431404z"/>
</svg>
