<?xml version="1.0" encoding="UTF-8" standalone="no"?>
<svg xmlns="http://www.w3.org/2000/svg" xmlns:xlink="http://www.w3.org/1999/xlink" width="197.837mm" height="209.797mm" viewBox="16.081425 7.101571 197.837158 209.796860">
    <path transform="translate(15.980423,7.001251)" style="stroke:#ff0000;stroke-width:0.05mm;fill:none" d="M48.08004,199.32811L48.077606,202.287781L43.077618,202.287781L43.077618,199.327759L40.388828,199.327637L40.294888,199.309616L40.210316,199.290024L40.173931,199.281616L39.770172,198.932983L39.689857,198.891602L39.432735,198.595535L39.300827,198.443665L39.180603,198.222443L39.175858,198.213684C38.80751,197.670227,38.124729,197.205383,37.580906,196.77121L37.245903,196.503738L36.341892,195.897736C33.623165,194.391266,31.382666,193.72879,28.200922,192.810791L27.917877,192.725739L27.8619,192.712952L27.454859,192.619736L26.639801,192.494781L25.537806,192.389755L25.29285,192.375412L24.064909,192.303741L22.135929,192.232788L19.666903,192.171829L17.100893,192.127167L16.572895,192.11792L13.720921,192.079956L12.220887,192.062912L10.998665,192.043686L10.571909,192.03688L8.908937,191.99028L8.824972,191.987839L7.455996,191.908859L6.386977,191.789856L5.545026,191.617905L4.856035,191.383896L4.245046,191.075912L4.167288,191.026871L3.784948,190.785934L3.539992,190.617889L3.264007,190.406891L2.855017,190.061905L2.433007,189.671906L2.019029,189.259872L1.634985,188.847839L1.300955,188.456848L1.038963,188.111877L0.905959,187.905869L0.71698,187.520599L0.670982,187.426788L0.27696,186.110733L0.101001,184.30368L0.340968,182.541656L0.71698,181.482132L0.775024,181.318573L1.230011,180.536621L2.192067,179.425629L3.974049,177.936661L6.20907,176.572678L8.11712,175.668655L9.17616,175.266617L10.428196,174.921631L12.398184,174.554626L14.633206,174.320618L17.083248,174.221558L17.101257,174.221802L19.697201,174.254547L22.425177,174.420517L25.219229,174.722549C34.117455,176.035309,39.684017,177.632202,47.559223,182.076569L49.869205,183.564682L50.063171,183.689529L52.010162,185.066528L52.882172,185.724503L53.586132,186.27951L54.384274,186.930542L54.687027,187.177567L55.872013,188.172592L57.068073,189.199631L58.061039,190.073944L58.197086,190.19368L59.116428,191.026627L59.187004,191.090637L59.961052,191.824661L60.333046,192.196655L60.5331,192.428711L60.815048,192.705673L61.183029,192.980682L61.596035,193.177689L61.96706,193.291718L62.260082,193.356689L62.765083,193.445648L63.183079,193.435669L63.433025,193.265671L63.566029,193.00563L63.62809,192.814575L63.776066,192.085541L63.966747,191.026505L64.097076,190.30246L64.531128,187.72052L64.658295,186.930527L64.920036,185.30455L65.04599,184.499588L65.080421,184.288956L65.156967,183.83165L65.424919,182.262253L65.512047,181.7547L65.778053,180.248703L66.252998,177.632568L66.298027,177.384689L66.523994,176.189713L66.707985,175.261734L66.798035,174.827682L66.798882,174.824265L66.83503,174.684692L66.854988,174.582733L67.172951,173.213745L67.390892,172.240738L67.477898,171.901001L67.728935,170.91983L67.832611,170.54686L68.303909,168.850906L68.969902,166.604935L69.688942,164.312973L70.417,162.10495L71.114014,160.109894L71.738022,158.455933L72.108078,157.563965L72.291092,157.18602L72.562088,156.575027L72.84404,155.901978L72.936035,155.668945L72.997726,155.535217L73.107979,155.295853L73.290504,154.932495L73.465981,154.582764L73.688171,154.162827L73.911957,153.739838L74.275925,153.08078L74.434845,152.801392L75.032204,151.746246L75.590263,150.753281L76.347763,149.403778L76.41761,149.276489L76.514961,149.098831L76.568504,149.010498L76.589195,148.976303L76.756271,148.700562L76.922127,148.42688L77.002075,148.294861L77.893066,146.900818L78.967072,145.292847L80.150116,143.576828L81.369171,141.85582L82.551117,140.23082L83.623177,138.808777L84.28418,137.964752L84.4403,137.778687L84.959175,137.160645L85.005173,137.105774L85.317177,136.725739L85.632103,136.339142L85.973923,135.916275L86.077957,135.788742L86.197212,135.642715L86.201469,135.637238L86.341293,135.451782L86.756241,134.957123L86.803337,134.900787L86.812103,134.89093L87.591263,134.023682L88.517296,133.052628L89.534355,132.032639L90.600334,131.0056L91.669357,130.013611L92.151115,129.586609L92.699432,129.100586L93.404488,128.502625L94.127426,127.917679L95.604462,126.773697L97.523468,125.393646L99.021431,124.417107L99.58046,124.052658L101.357452,122.976707L102.18042,122.499687L103.064484,122.032654L104.313217,121.394661L104.798523,121.14666L106.796494,120.149681L108.218529,119.451683L109.157593,119.005699L110.533623,118.336647L111.604347,117.75061L111.642677,117.729553L112.255737,117.261551L112.536713,116.915604L112.695763,116.630608L112.837769,116.090561L112.924782,114.92054C112.602547,103.094528,110.883003,91.057388,110.467796,79.322525L110.424843,77.50148L110.404892,75.633469L110.406837,73.796486L110.42485,72.503448L110.431183,72.242424L110.472908,70.497437L110.509903,69.273392L110.549927,68.34845L110.564293,68.146454L110.597878,67.672478L110.656891,67.194496L110.730873,66.865456L110.826881,66.632423L110.912918,66.492485L111.037888,66.334534L111.408913,66.070473L111.983879,65.91143L112.618843,65.982376L113.120796,66.189362L113.464798,66.418373L113.997787,66.89843L115.088829,67.971466L115.254936,68.146454L115.405838,68.305496L116.450882,69.406517L117.993874,71.10453L118.995232,72.242546L119.628853,72.96257L121.266876,74.883514L121.68634,75.392166L122.819,76.765518L123.85601,78.067566L124.545967,78.970604L125.610008,80.355644L126.742073,81.787659L127.649117,82.861664L127.79953,83.018761L128.389099,83.634613L129.02211,84.162613L129.605118,84.49762L130.198105,84.698647L130.693115,84.798676L131.105164,84.859634L131.790131,84.873138L132.122101,84.879585L134.378052,84.833595L137.145325,84.709717L137.501022,84.693771L137.548004,84.691704L140.550018,84.520737L141.199203,84.479973L142.24559,84.412437L143.948608,84.302185L144.058975,84.295494L144.903122,84.24427L145.79715,84.190605L146.243011,84.163826L146.265167,84.161148L146.40303,84.144478L146.694962,84.108818L147.277969,84.008789L147.774933,83.88382L148.014053,83.798996L148.039963,83.789757L148.118942,83.743759L148.17395,83.71492L148.291977,83.652855L148.711914,83.181808L149.400909,82.121796L150.11496,80.694771L150.223022,80.434731C151.82576,76.576523,153.56929,72.916306,155.370132,69.04837L155.538071,68.687691L155.883041,67.968643L156.123978,67.488586L156.209045,67.329544L156.366028,67.007927L156.408844,66.920311L156.631302,66.460213L156.841934,66.020554L157.143967,65.376587L157.323929,64.977577L157.487,64.602539L157.533234,64.513588L157.77417,64.050446L157.854858,63.895416L158.382843,63.075367L158.932877,62.42836L159.324829,62.085323L159.65387,61.895374L160.28688,61.729389L161.039871,61.85144L161.680923,62.34938L162.076889,62.973389L162.251877,63.450405L162.418335,64.050446L162.466888,64.225426L162.67984,65.501434L162.839859,67.388428L162.951828,69.530479L163.025803,71.239449L163.086655,72.242386L163.206757,74.222351L163.563782,78.944412L163.698013,80.434464L164.032761,84.152489C165.525009,98.958855,167.095139,113.225647,169.432739,127.913612L169.710175,129.586563L169.939804,130.971619L170.296707,133.064865L170.368866,133.48761L170.517563,134.347443L170.946274,136.837769L171.090347,137.689087L171.105331,137.778656L171.201813,138.355698L171.226761,138.512909L171.287125,138.894165L171.304764,138.998566L171.421463,139.629517L171.474884,139.916565L171.639877,140.764603L171.831909,141.705612L171.91185,142.110596L171.938019,142.296768L172.000214,142.740799L172.17276,143.970566L172.264755,145.756561L172.261826,145.970612L172.256714,146.338593L172.253677,146.980606L172.282639,147.633575L172.35759,148.098541L172.492538,148.392548L172.698547,148.531509L172.749542,148.532104L172.883286,148.533447L172.990616,148.534546L173.239349,148.460449L173.379654,148.418579L173.7547,148.257584L173.978729,148.152573L174.283661,148.025513L174.303009,148.018463L174.669647,147.885468L174.991638,147.8004L175.122086,147.784332L175.153595,147.780441L175.1996,147.791397L175.249619,147.797363L175.341003,147.757202L175.488602,147.692337L175.5896,147.556046L175.671616,147.445313L175.709595,147.32132L175.935562,146.879349L176.273621,146.38031L176.321075,146.322632L176.39032,146.236237L176.470764,146.134384L176.49205,145.970337L176.543777,145.571335L176.729828,144.540268L176.96785,143.516281L177.255875,142.510284L177.473083,141.874237L177.590881,141.529266L177.96994,140.58522L178.387924,139.686188L178.433929,139.601135L178.434158,139.59967L178.434525,139.597L178.450836,139.491119L178.463486,139.542969L178.46373,139.544174L178.733383,139.041611L178.834381,138.853714L178.834274,138.853348L178.834274,138.853119L178.711731,137.802841L178.708801,137.778381L177.753326,129.586426L176.797836,121.39447L176.31279,117.236794L175.842239,113.202507L174.886505,105.010551L173.930771,96.818588L172.975052,88.626633L171.126389,72.780457L171.110931,72.64003L171.067001,72.242599L170.62442,68.22876L170.623566,68.221695L170.375458,65.972443L170.360855,65.839676L169.583511,58.748135L169.401703,56.20269L169.371521,55.54874L169.844894,54.420338L171.076111,51.517136L173.283157,46.295918L176.156418,39.474762L176.636963,38.333828L177.18103,37.042L177.494858,36.208447C177.714386,35.615952,177.881821,35.369781,177.908585,34.767555L177.907501,34.607658L177.605469,34.262676L177.551437,34.038651C177.917709,32.318607,178.708069,30.797886,179.422134,29.188335L179.747162,28.604116L180.210175,27.803417L180.272476,27.695601L180.460114,27.543127L180.941498,27.041779L181.023163,26.956718L181.122696,26.829557L181.189011,26.639118L181.322144,26.057211L181.342834,25.563162L181.349899,25.170235L181.261551,24.22278L181.219452,23.832531L180.961472,23.458588L180.941513,23.44581L180.579132,23.213755L180.380173,23.090607L180.336121,23.063349L179.695801,22.810606L177.662659,22.032661L176.319,21.563437L174.610504,20.970579L172.746521,20.341579C149.754517,13.027108,127.61348,13.126038,105.056763,21.611626L104.295128,21.894182L104.110046,21.967682L103.615997,22.163839L102.403389,22.685999L101.4692,23.090607L99.021347,24.150866L98.192299,24.509962L97.032257,25.055119L94.064072,26.56428L92.882004,27.181839L92.817635,27.215548L90.4552,28.571381L89.447754,29.148296L87.248512,30.550249L86.104172,31.282804L85.745926,31.512062L85.628983,31.58252L84.592094,32.207504L84.172272,32.448689L84.16777,32.371902L84.193687,32.29451L84.28653,31.875664L84.315247,31.803749L84.450081,31.528736L84.570671,31.282684L84.805893,30.802631L84.812096,30.790096L85.137123,30.164989L85.374168,29.70903L87.372139,26.371405L87.892838,25.505604L88.633423,24.442791L89.144386,23.711576L89.626144,23.090729L90.290436,22.234419L90.927582,21.434572L92.187286,19.98662L93.234032,18.875742L94.456139,17.643297L95.32048,16.861946L96.888046,15.457437L97.582993,14.904005L99.021095,13.773048L99.096542,13.713787L99.911484,13.125675L102.403633,11.442625L103.945152,10.500404L107.015297,8.799101L107.842171,8.365653L110.752182,6.99765L111.459427,6.706697L111.886543,6.530981L114.815063,5.35573L115.405121,5.151052L116.524147,4.762872L119.252983,3.862754L121.769234,3.099778L123.597198,2.613031L123.827682,2.551701L125.612091,2.09574L126.85817,1.799676L127.695137,1.610696L129.547089,1.216674L130.433456,1.061524L131.429703,0.911484L131.741348,0.865365L131.789047,0.859037L132.485474,0.768502L134.569244,0.56273L136.80426,0.371681L139.04451,0.233323L139.897293,0.197912L143.98172,0.116139L145.142975,0.10032L146.445023,0.142423L148.172974,0.235635L149.069687,0.284067L150.350204,0.393463L152.541168,0.599966L154.743576,0.883983L158.152023,1.339822L159.927078,1.628828L163.949188,2.300174L164.557129,2.41967L166.334976,2.768911L169.44043,3.41665L174.889679,4.765305L175.912567,5.023646L176.895798,5.296834L177.950455,5.605675L181.653015,6.706575L183.918701,7.380355L185.234756,7.786302L185.971817,8.024808L188.00946,8.698832L188.741287,8.943543L189.13324,9.080807L189.359085,9.159903L192.184402,10.203367L193.130157,10.567698L194.041107,11.015748L194.495239,11.240503L194.940247,11.687459L195.167206,12.142447L195.196045,12.321691L195.236206,12.80284L195.189957,13.123607C194.865906,15.106007,193.092819,18.89509,192.414154,20.516081L191.447845,22.791502L191.313263,23.090364C191.193405,23.356617,189.227921,28.153753,188.554504,28.531836L188.360901,28.673115L188.07579,29.069206L188.015427,29.153048L187.882782,29.404451L187.732147,29.941454L187.684067,30.157448L187.726059,30.842422L187.63942,31.282442L187.560074,31.684494L187.199646,32.670891L186.755722,33.802334L186.059067,35.378422L185.723816,36.136772L185.491272,36.656376L185.254593,36.977993L184.955856,37.310444L184.728897,37.346462L184.051956,37.220512L183.981506,37.257751L183.759537,37.445999L183.516052,37.952461L183.134201,38.766666L182.833633,39.474518L178.071167,50.690151L175.53801,56.652561L175.538391,56.654873L177.784607,72.242584L179.13205,81.592636L179.165024,81.811668L180.21785,88.62674L180.786011,92.304726L180.94104,93.346611L182.676422,105.010773L185.113922,121.394814L186.332748,129.586777L186.942154,133.682739L187.551559,137.778717L187.571274,137.911713L187.591965,138.050568L187.604248,138.132935L187.610703,138.176254L187.612167,138.185623L187.744186,138.187561L188.15123,138.22261L188.535278,138.285645L188.892303,138.374588L189.13324,138.459045L189.220245,138.489594L189.515213,138.629532L189.775269,138.792587L189.996246,138.976578L190.1772,139.181625L190.316162,139.405655L190.411194,139.644638L190.462189,139.895676L190.469254,140.159744L190.430313,140.432678L190.347321,140.709641L190.221375,140.991577L190.051376,141.272552L189.841354,141.552551L189.593353,141.828537L189.544189,141.874542L189.387466,142.020798L189.307388,142.095505L189.133377,142.236298L188.988327,142.353485L188.639343,142.598434L188.435883,142.722443L188.355316,142.771484L188.557312,142.761505L188.982361,142.769547L189.133377,142.782562L189.389404,142.804581L189.773453,142.866638L190.130478,142.956696L190.45842,143.071686L190.753403,143.211624L191.013443,143.374695L191.234421,143.558685L191.415375,143.763718L191.51442,143.922775L191.554337,143.986771L191.649368,144.225769L191.700363,144.477783L191.707428,144.741837L191.668488,145.013809L191.585495,145.291855L191.459549,145.57283L191.289551,145.854782L191.202545,145.970749L191.079514,146.134781L190.831512,146.40979L190.545547,146.676773L190.227585,146.934753L189.877625,147.180801L189.683289,147.298965L189.547485,147.381332L189.500641,147.409805L189.329666,147.501801L189.346832,147.503265L189.662613,147.529785L190.046646,147.591843L190.404648,147.6819L190.732605,147.79689L191.027573,147.936829L191.157898,148.01886L191.286636,148.099899L191.507629,148.28389L191.688583,148.488922L191.827545,148.711975L191.923553,148.949997L191.974548,149.202988L191.980515,149.467041L191.942535,149.738037L191.859543,150.017059L191.836914,150.067078L191.732498,150.29805L191.563477,150.579987L191.353455,150.859985L191.104477,151.134995L190.819489,151.401978L190.500549,151.659958L190.150589,151.906006L189.807419,152.115067L189.774567,152.13501L189.698517,152.175049L189.699234,152.179306L189.997482,154.163162L191.062485,161.246063L191.092545,161.443573L191.108597,161.551025L191.230896,162.35524L191.731766,165.648331L191.732483,165.653076L191.825699,166.273315L192.467972,170.547195L194.031525,180.950806L194.926529,186.931229L195.989334,194.033234L196.141205,195.032272L196.192551,195.329803L196.983398,199.902557L197.140137,200.862549L197.274475,201.49556L197.325333,201.598022L197.329849,201.607025L197.524658,201.825821L197.586365,201.870361L197.608017,201.919403L197.706589,202.143066L197.805771,202.44873L197.850418,202.654388L197.8694,202.742249L197.894714,202.980026L197.908707,203.315277L197.938156,204.018372L197.921005,204.462296L197.75087,205.351349L197.659241,205.748276L197.434006,206.308029L197.325455,206.546768L197.248917,206.715073L197.112503,206.917068L196.415726,207.893127L196.254379,208.075424L195.559418,208.684464L195.054901,209.007919L194.487228,209.31517L193.724854,209.626801L193.292877,209.731567L193.229477,209.745331L192.634415,209.874435L192.270813,209.897186L191.074036,209.856888L190.75145,209.820389L189.857422,209.57045L189.309464,209.314682L189.133499,209.21077L188.678757,208.942322L187.837769,208.304077L187.608521,208.076157L187.404572,207.858566L186.755615,206.91951L186.456268,206.229294L186.225189,205.624374L185.968063,204.45752L185.916458,204.22084L185.905502,203.896545L185.918533,203.594513L186.05069,203.315491L186.09024,203.232147L186.090469,203.2314L186.087433,202.740158L186.082199,201.850266L186.081482,201.725891L185.729553,198.253189L185.527924,196.196564L184.446121,186.93132L182.533081,170.547287L181.861969,164.799896L181.576492,162.355347L181.519913,161.869934L181.507736,161.881378L181.505188,161.88382L181.383377,161.998444L181.38266,161.999298L181.380707,162.001251L181.040344,162.355484L180.941299,162.458679L180.33725,163.087433L179.267258,164.287399L178.222214,165.540405L177.247269,166.794373L176.394241,167.993362L175.869293,168.802338L175.29335,169.789352L174.889587,170.547333L174.132324,171.968399L172.856323,174.75235L171.863358,177.521332L171.132385,180.370392L170.643326,183.388336L170.375366,186.672302L170.370743,186.931259L170.310394,190.312195L170.381332,193.380173L170.81308,198.731461C170.683243,199.244003,170.747742,199.063293,170.248215,199.329803L167.636948,199.329681L167.636948,202.288254L162.636963,202.288254L162.636963,199.329315C151.019394,199.32872,139.401581,199.328598,127.784027,199.328598L127.784027,199.329208L127.784027,202.288254L122.78405,202.288254L122.78405,199.329208L87.931,199.329086L87.931,202.288254L82.931007,202.288254L82.931007,199.332611C82.931007,199.332611,51.026917,199.32872,48.080391,199.328598L48.08004,199.32811z"/>
    <path transform="translate(15.980423,7.001251)" style="stroke:#ff0000;stroke-width:0.05mm;fill:none" d="M130.275955,98.553543L130.031967,98.494522L129.822922,98.38549L129.767929,98.333534L129.622879,98.265511L129.304901,98.152466L128.888855,98.032486L128.536819,97.946449L128.219818,97.879402L127.692802,97.777924L127.617844,97.763443L127.04689,97.701378L126.476913,97.725357L125.878937,97.801407L125.3619,97.876366L124.422836,98.148338L123.596832,98.545044L123.258781,98.707367L122.209717,99.475334L121.297684,100.426323L120.540657,101.53537L119.964722,102.774391L119.58773,104.117447L119.465813,105.010513L119.44268,105.17952L119.426743,105.787468L119.463737,106.5485L119.584686,107.521507L119.637627,107.741882L119.719757,108.084557L119.760773,108.255402L119.906799,108.547447L120.008774,108.550499L120.155769,108.787537L120.313843,109.106491L120.3787,109.237541L120.421661,109.345596L120.451714,109.43856L120.483971,109.501717L120.586792,109.703484L120.810944,110.048714L120.834793,110.085449L121.11795,110.431282L121.128777,110.444427L121.334671,110.654938L121.35183,110.67247L121.525841,110.818489L122.13488,111.339432L122.75293,111.891403L122.850883,111.984367L123.052879,112.166412L123.596939,112.515289L123.749901,112.613358L124.84095,113.043404L125.710152,113.202454L126.152969,113.283493L127.32299,113.347504L128.083054,113.333504L129.19101,113.219467L129.255859,113.202438L130.437927,112.892372L131.573868,112.314362L131.788879,112.157509L132.44989,111.67527L132.898926,111.28125L133.402954,110.779289L133.90892,110.100281L134.336899,109.238251L134.680893,108.334244L134.849915,107.837273L135.029892,107.251228L135.156937,106.632202L135.179932,106.016228L135.139893,105.434196L135.095718,105.010239L135.071869,104.782204L134.582809,102.766212L133.770782,101.166153L133.390747,100.704109L132.806778,100.139122L131.869781,99.37809L131.788742,99.325157L130.976715,98.794113L130.707672,98.657578L130.513687,98.559135L130.275955,98.553543z"/>
    <path transform="translate(15.980423,7.001251)" style="stroke:#ff0000;stroke-width:0.05mm;fill:none" d="M158.748688,100.603233L158.312683,98.700165L157.954681,97.872208L157.47171,97.221184L156.507706,96.213135L155.346695,95.247185L154.473709,94.652138L153.734695,94.262131L152.353668,93.754089L150.623657,93.517044L148.894608,93.775993L148.172638,94.048698L147.517593,94.295959L146.782608,94.68998L145.94455,95.333946L144.859589,96.429008L144.577026,96.818047L143.995605,97.618019L143.581635,98.430031L143.376602,99.28804L143.226547,101.95311L143.768555,104.366158L144.073364,105.010117L144.131546,105.133148L144.715515,106.048119L145.647522,107.102173L146.745499,107.956169L147.979523,108.599159L148.172531,108.659523L149.323563,109.019218L150.744629,109.205276L152.21666,109.145287L153.344711,108.936234L153.89267,108.772186L154.441711,108.57518L155.034698,108.277161L155.589722,107.874138L156.057724,107.449089L156.668716,106.852097L157.80867,105.255074L157.901276,105.010117L158.659637,103.003143L158.748581,100.603111L158.748688,100.603233z"/>
</svg>
