<?xml version="1.0" encoding="UTF-8" standalone="no"?>
<!-- Created with Inkscape (http://www.inkscape.org/) -->

<svg
   version="1.1"
   id="svg1"
   width="168"
   height="121.6"
   viewBox="0 0 168 121.6"
   sodipodi:docname="cassette_bin.svg"
   inkscape:version="1.4 (e7c3feb100, 2024-10-09)"
   xmlns:inkscape="http://www.inkscape.org/namespaces/inkscape"
   xmlns:sodipodi="http://sodipodi.sourceforge.net/DTD/sodipodi-0.dtd"
   xmlns="http://www.w3.org/2000/svg"
   xmlns:svg="http://www.w3.org/2000/svg">
  <defs
     id="defs1" />
  <sodipodi:namedview
     id="namedview1"
     pagecolor="#ffffff"
     bordercolor="#666666"
     borderopacity="1.0"
     inkscape:showpageshadow="2"
     inkscape:pageopacity="0.0"
     inkscape:pagecheckerboard="0"
     inkscape:deskcolor="#d1d1d1"
     inkscape:zoom="7.4835527"
     inkscape:cx="84.050988"
     inkscape:cy="60.799999"
     inkscape:window-width="1916"
     inkscape:window-height="1161"
     inkscape:window-x="0"
     inkscape:window-y="757"
     inkscape:window-maximized="1"
     inkscape:current-layer="g1" />
  <g
     inkscape:groupmode="layer"
     inkscape:label="Image"
     id="g1">
    <path
       style="fill:#000000"
       d="m 14.680092,113.238 c -2.363518,-0.8185 -3.891842,-2.16386 -5.1055874,-4.49438 l -1.04,-1.99691 V 60.745788 14.744859 l 0.979097,-1.959347 C 10.539845,10.73182 12.057483,9.2808502 14.186282,8.3181012 15.339996,7.7963342 19.597894,7.7626372 84.374505,7.7626372 H 153.3345 l 1.83176,0.899504 c 2.16456,1.062929 3.72954,2.7726748 4.49653,4.9124698 0.80751,2.25285 0.85919,91.891599 0.0543,94.253709 -0.6961,2.04295 -2.40085,3.89902 -4.55087,4.9548 l -1.83172,0.89951 -68.479996,0.0711 c -65.68302,0.0682 -68.549205,0.0471 -70.174412,-0.5157 z m 15.604587,-13.07537 c 1.639732,-4.992483 3.147609,-9.055113 3.444348,-9.279993 0.416864,-0.31593 10.736752,-0.4 49.098422,-0.4 h 48.570611 l 0.44449,0.88 c 0.24446,0.484 1.72416,4.66472 3.28821,9.290503 l 2.84374,8.4105 7.57486,-0.0905 7.57486,-0.0905 0.86638,-0.8 c 1.83943,-1.69849 1.7439,0.89574 1.7439,-47.359994 0,-48.257601 0.0956,-45.662082 -1.74452,-47.359999 l -0.86701,-0.8 -68.37423,-0.08006 c -77.7344214,-0.09104 -69.789415,-0.384242 -71.120386,2.624639 -0.934967,2.113649 -0.816204,90.370714 0.123538,91.804824 1.2525,1.9114 2.07865,2.12807 8.119427,2.12938 l 5.496814,10e-4 z m -14.094789,6.02461 c -2.698131,-2.69813 1.020714,-6.915023 4.082403,-4.62914 2.45028,1.8294 1.22335,5.56453 -1.827858,5.56453 -1.031353,0 -1.523238,-0.20408 -2.254545,-0.93539 z m 3.558697,-1.16158 c 1.083442,-1.30547 -0.978608,-3.37732 -2.232214,-2.24282 -0.847198,0.7667 -0.847737,1.93331 -0.0012,2.52627 0.723226,0.50657 1.678324,0.38535 2.23338,-0.28345 z m 128.464383,1.32453 c -1.68524,-1.68524 -1.19041,-4.26905 0.99223,-5.18101 3.18467,-1.330643 5.71032,2.29555 3.46085,4.9689 -1.09928,1.30642 -3.25604,1.40915 -4.45308,0.21211 z m 3.57412,-1.64921 c 0.29427,-0.76687 -0.17541,-2.00342 -0.84125,-2.21475 -1.25803,-0.39929 -2.47685,0.86177 -2.07046,2.1422 0.39233,1.23612 2.44557,1.28728 2.91171,0.0726 z M 29.343201,82.246937 c -5.68792,-2.00752 -5.768696,-2.42998 -5.768696,-30.170194 V 28.824859 l 0.978569,-1.95829 c 1.081948,-2.16517 2.291702,-3.34594 4.461431,-4.354545 l 1.44,-0.669387 53.262197,-0.08463 c 58.853888,-0.09351 55.163908,-0.216856 57.989678,1.938435 0.75592,0.57656 1.80949,1.751922 2.34126,2.611915 l 0.96686,1.563625 0.0879,24.005874 0.0879,24.005871 -0.8259,1.68807 c -1.00483,2.0538 -3.19202,4.04782 -5.18471,4.7268 -2.25552,0.76853 -107.65315,0.71895 -109.836549,-0.0517 z m 109.974509,-2.56224 c 0.75683,-0.40452 1.80455,-1.38239 2.4,-2.24 l 1.05679,-1.52206 0.0971,-22.880001 c 0.11356,-26.758766 0.19842,-26.131841 -3.81405,-28.178852 -1.92695,-0.983053 -107.457236,-0.973825 -109.384841,0.0096 -3.91348,1.996508 -3.858204,1.599029 -3.858204,27.743582 v 22.380041 l 0.839331,1.68432 c 0.897135,1.80031 2.521418,3.13147 4.356059,3.56994 0.574536,0.13732 24.87661,0.22755 54.004609,0.20053 l 52.959996,-0.0491 z M 44.069002,66.45308 C 31.112364,63.913252 30.075353,45.773797 42.614505,41.010938 c 1.8553,-0.704715 73.268615,-1.136544 77.587515,-0.469164 14.52706,2.244802 15.0965,22.820503 0.71673,25.897951 -2.05687,0.440196 -74.607949,0.452804 -76.849748,0.01336 z m 7.616974,-3.333924 c 10.153841,-5.532299 6.031841,-20.882416 -5.435847,-20.242815 -11.489894,0.640838 -14.142932,16.147485 -3.528631,20.62437 2.639533,1.113299 6.524338,0.94795 8.964478,-0.381555 z m -7.054444,-1.240692 c -9.779576,-2.656374 -7.910625,-16.909457 2.21797,-16.914779 7.407791,-0.0039 11.225366,8.627974 6.360926,14.382602 -1.802536,2.132399 -5.755343,3.299124 -8.578896,2.532177 z m 1.401718,-3.635828 c 0.144315,-1.254233 1.340098,-1.238913 1.484345,0.01902 0.07391,0.644567 0.255053,0.867522 0.64,0.78774 0.295301,-0.0612 0.50691,-0.321761 0.470243,-0.579017 -0.03667,-0.257257 -0.108666,-0.750222 -0.16,-1.095479 -0.146579,-0.985862 0.854294,-0.965112 1.306368,0.02708 0.372366,0.817254 0.423369,0.834227 0.93705,0.311833 0.51155,-0.520228 0.499223,-0.58856 -0.211275,-1.17107 -0.8738,-0.716395 -0.723513,-1.796177 0.197221,-1.417003 1.394844,0.57442 1.677303,0.556817 1.677303,-0.104526 0,-0.47783 -0.239075,-0.683576 -0.88,-0.757323 -1.254233,-0.144315 -1.238913,-1.340098 0.01902,-1.484345 0.644567,-0.07391 0.867522,-0.255052 0.787739,-0.64 -0.113289,-0.5466 -0.482901,-0.588457 -1.766759,-0.200074 -0.583292,0.176453 -0.72,0.0933 -0.72,-0.43795 0,-0.380758 0.276022,-0.743364 0.658199,-0.864662 0.385722,-0.122423 0.616025,-0.427889 0.556325,-0.737889 -0.152211,-0.790367 -1.124743,-0.843324 -1.368748,-0.07453 -0.121298,0.382176 -0.483903,0.658198 -0.864662,0.658198 -0.531248,0 -0.614402,-0.136707 -0.437949,-0.72 0.388382,-1.283857 0.346526,-1.65347 -0.200075,-1.766756 -0.384947,-0.07978 -0.566087,0.143172 -0.64,0.787739 -0.07469,0.651321 -0.279423,0.899017 -0.74309,0.899017 -0.463667,0 -0.668403,-0.247696 -0.74309,-0.899017 -0.07391,-0.644567 -0.255053,-0.867521 -0.64,-0.787739 -0.546601,0.113286 -0.588457,0.482899 -0.200075,1.766756 0.176453,0.583293 0.0933,0.72 -0.437949,0.72 -0.380759,0 -0.743364,-0.276022 -0.864662,-0.658198 -0.244005,-0.768791 -1.216537,-0.715834 -1.368748,0.07453 -0.06038,0.31351 0.173649,0.616433 0.574524,0.743665 0.408368,0.129611 0.632626,0.425752 0.565938,0.74734 -0.113536,0.547497 -0.625816,0.616198 -1.603241,0.215007 -0.373139,-0.153158 -0.62413,-0.0546 -0.759532,0.298253 -0.252795,0.658775 -0.02493,0.895656 0.906707,0.942606 1.135465,0.05722 0.989177,1.287089 -0.168889,1.419885 -0.644567,0.07391 -0.867522,0.255052 -0.787739,0.64 0.0612,0.2953 0.35776,0.500909 0.659017,0.456909 l 1.095478,-0.16 c 0.910301,-0.132954 0.836541,0.889757 -0.09477,1.314093 -0.828775,0.377615 -0.836217,0.405621 -0.273108,1.027849 0.575752,0.636199 0.582754,0.634841 1.295627,-0.251143 0.855334,-1.063039 1.737994,-0.671834 1.114161,0.493809 -0.508737,0.950584 -0.431193,1.335392 0.2691,1.335392 0.437114,0 0.648468,-0.258321 0.72,-0.88 z m 62.80199,4.32 c -4.7998,-5.310062 -4.76216,-13.095454 0.0876,-18.127038 l 1.57396,-1.632962 H 82.576413 54.656056 l 1.525978,1.566664 c 4.95541,5.087531 4.974573,13.145804 0.04343,18.261968 l -1.553095,1.611368 h 27.840723 27.840718 z m 13.43178,1.0228 c 8.59257,-3.214894 9.21007,-15.488373 0.98853,-19.648093 -6.55681,-3.317444 -14.59628,0.949913 -15.46231,8.207402 -0.97982,8.211115 6.7581,14.327496 14.47378,11.440691 z m -5.57252,-1.551654 c -10.11139,-2.155979 -8.57367,-17.071146 1.76,-17.071146 5.84141,0 9.77543,5.482694 8.14541,11.351918 -1.04784,3.772918 -5.89847,6.573599 -9.90541,5.719228 z m 1.01874,-3.78841 c 0.15104,-1.308568 1.22126,-1.401634 1.22126,-0.106199 0,0.760162 0.14103,0.983463 0.62111,0.983463 0.78018,0 1.16479,-0.582103 0.69501,-1.051882 -0.19587,-0.195865 -0.35612,-0.615318 -0.35612,-0.932118 0,-0.798156 1.18305,-0.745576 1.44,0.064 0.2233,0.703561 0.95102,0.852304 1.31203,0.268176 0.12931,-0.209231 -0.0723,-0.616473 -0.46112,-0.931294 -1.27924,-1.035869 -0.77382,-1.98629 0.65082,-1.223843 0.50649,0.271064 0.72338,0.252489 0.93407,-0.08 0.44051,-0.695171 0.3327,-0.913039 -0.4518,-0.913039 -0.4048,0 -0.90537,-0.169373 -1.11239,-0.376386 -0.5218,-0.521799 0.10199,-1.223614 1.08757,-1.223614 0.80832,0 0.91982,-0.213611 0.47662,-0.913038 -0.21069,-0.332489 -0.42758,-0.351065 -0.93407,-0.08 -0.95678,0.512055 -1.34173,0.435912 -1.34173,-0.265398 0,-0.340139 0.288,-0.709843 0.64,-0.821564 0.77779,-0.246859 0.83898,-0.97517 0.10558,-1.256601 -0.48822,-0.187349 -1.04861,0.265215 -1.06068,0.856601 -0.003,0.132 -0.2929,0.24 -0.6449,0.24 -0.70689,0 -0.87879,-0.913208 -0.28388,-1.508117 0.46978,-0.469779 0.0852,-1.051883 -0.69501,-1.051883 -0.48008,0 -0.62111,0.223301 -0.62111,0.983464 0,1.308795 -1.07076,1.199174 -1.22309,-0.125217 -0.0739,-0.64202 -0.2554,-0.864713 -0.64,-0.785003 -0.2953,0.0612 -0.50691,0.321761 -0.47024,0.579017 0.0367,0.257257 0.10866,0.750222 0.16,1.095479 0.14676,0.987116 -0.94897,1.012904 -1.39552,0.03284 -0.35654,-0.78252 -0.40669,-0.79711 -0.97432,-0.283417 -0.58068,0.52551 -0.57201,0.562829 0.29237,1.258319 1.06304,0.855333 0.67184,1.737994 -0.49381,1.11416 -0.99439,-0.532182 -1.33539,-0.424832 -1.33539,0.420397 0,0.571165 0.14463,0.735381 0.56,0.635839 0.308,-0.07381 0.76098,-0.0029 1.00663,0.157662 0.67151,0.438822 0.16712,1.316457 -0.75659,1.316457 -0.59671,0 -0.81004,0.168551 -0.81004,0.64 0,0.720599 0.37793,0.802773 1.33539,0.290355 1.16565,-0.623833 1.55685,0.258827 0.49381,1.114161 -0.86329,0.694611 -0.87238,0.733418 -0.29431,1.25656 0.56465,0.510999 0.61969,0.496455 1.0312,-0.272462 0.24192,-0.452029 0.65629,-0.76611 0.93432,-0.708184 0.511,0.10647 0.54656,0.490848 0.16275,1.75957 -0.17647,0.583369 -0.0933,0.72 0.43826,0.72 0.47726,0 0.68367,-0.239097 0.75732,-0.877264 z M 17.006749,20.28841 c -2.905327,-1.303299 -1.901694,-5.965773 1.284178,-5.965773 1.517063,0 2.279682,0.432193 2.908586,1.64836 1.388374,2.68482 -1.409556,5.565931 -4.192764,4.317413 z m 2.576525,-1.815463 c 0.842684,-0.931156 0.322312,-2.350738 -0.91401,-2.493433 -1.157406,-0.133586 -1.814759,0.433806 -1.814759,1.566404 0,1.513049 1.681468,2.084284 2.728769,0.927029 z m 129.448746,1.844255 c -3.04358,-1.5403 -1.97668,-5.994565 1.43584,-5.994565 3.25937,0 4.24717,4.695277 1.25116,5.94709 -1.31761,0.550533 -1.68031,0.556941 -2.687,0.04747 z m 2.24352,-1.525824 c 0.70151,-0.375437 0.84343,-1.876271 0.23496,-2.484741 -1.35481,-1.354808 -3.42801,0.394295 -2.37402,2.002891 0.57311,0.874662 1.15863,1.006559 2.13906,0.48185 z m -19.21447,83.771252 c -1.2091,-3.564003 -2.36746,-6.948483 -2.57414,-7.521063 l -0.37578,-1.04107 -46.594735,0.0811 -46.594738,0.0811 -2.310574,7.040003 c -1.270817,3.87199 -2.32093,7.21999 -2.333587,7.43999 -0.01832,0.31844 10.478543,0.4 51.479455,0.4 h 51.502459 z m -12.96669,4.75651 c -2.44194,-1.06425 -2.93923,-3.85201 -1.04739,-5.87161 1.44416,-1.541693 4.51854,-1.07603 5.50626,0.834 1.61886,3.13054 -1.29109,6.41819 -4.45887,5.03761 z m 2.36173,-2.68477 c 0.42599,-0.79599 -0.13905,-1.67174 -1.07863,-1.67174 -0.94506,0 -1.24265,0.43965 -0.98701,1.45819 0.23782,0.94753 1.59759,1.08811 2.06564,0.21355 z m -78.255152,2.26454 c -1.738897,-0.33562 -2.913685,-2.35809 -2.536772,-4.36721 0.772969,-4.120273 6.910319,-3.284893 6.910319,0.94059 0,1.53427 -1.266946,3.33034 -2.349213,3.33034 -0.263143,0 -0.67022,0.0518 -0.904615,0.11507 -0.234395,0.0633 -0.738268,0.0548 -1.119719,-0.0188 z m 1.749547,-2.72028 c 0.593752,-0.59375 0.455185,-1.47539 -0.294987,-1.87687 -0.993253,-0.53157 -2.113451,0.58863 -1.581878,1.58188 0.40148,0.75017 1.283113,0.88874 1.876865,0.29499 z m 33.846857,2.44114 c -0.593804,-0.5938 -0.726528,-6.16128 -0.171598,-7.198173 0.400642,-0.74861 7.20923,-0.95048 7.92474,-0.23497 0.71317,0.71317 0.51261,7.204653 -0.23496,7.604743 -1.04091,0.55708 -6.92378,0.4228 -7.518182,-0.1716 z m 5.833866,-3.73714 -0.09672,-1.68 -1.84,-0.0171 -1.84,-0.0171 v 1.69713 1.69714 h 1.936723 1.936723 z m -29.93948,0.29593 c -2.234693,-1.24108 -2.435411,-4.640323 -0.359844,-6.094113 1.944396,-1.3619 5.155445,-0.0847 5.588333,2.22281 0.548534,2.923933 -2.658566,5.298543 -5.228489,3.871303 z m 2.418757,-2.19993 c 0.557085,-0.55708 0.470732,-1.842803 -0.139495,-2.076973 -1.131773,-0.4343 -2.164489,1.05561 -1.383747,1.996343 0.468935,0.56503 1.010188,0.59368 1.523242,0.0806 z m 49.121425,1.99811 c -1.34398,-0.81948 -1.97604,-2.72893 -1.3798,-4.168383 0.95645,-2.30909 3.82797,-3.02431 5.72694,-1.42644 3.37346,2.838583 -0.56158,7.903023 -4.34714,5.594823 z m 2.71857,-1.99811 c 0.99808,-0.998083 0.0947,-2.432003 -1.26108,-2.001693 -1.02806,0.3263 -0.5748,2.385693 0.52508,2.385693 0.1936,0 0.5248,-0.1728 0.736,-0.384 z"
       id="path1"
       sodipodi:nodetypes="sscccssscsssscssscsscsscccssscssscccsssssssssssssssssscscsscssscccsscccscsscscsssccssssssssssssssssssssssssssssssssssssssssssssssssssssssssssssscccsscccsssssssssssssssscsssssssssscsssscssssssssscsssssssssssssssssssssssssssssscccssscssssssssssssssssssssssssscccccccccsssscssccssssssss" />
  </g>
</svg>
