<?xml version="1.0" encoding="UTF-8" standalone="no"?>
<!-- Created with Inkscape (http://www.inkscape.org/) -->

<svg
   width="210mm"
   height="297mm"
   viewBox="0 0 210 297"
   version="1.1"
   id="svg1"
   xml:space="preserve"
   sodipodi:docname="happy_dolphin.svg"
   inkscape:version="1.4 (e7c3feb100, 2024-10-09)"
   xmlns:inkscape="http://www.inkscape.org/namespaces/inkscape"
   xmlns:sodipodi="http://sodipodi.sourceforge.net/DTD/sodipodi-0.dtd"
   xmlns="http://www.w3.org/2000/svg"
   xmlns:svg="http://www.w3.org/2000/svg"><sodipodi:namedview
     id="namedview1"
     pagecolor="#ffffff"
     bordercolor="#cccccc"
     borderopacity="1"
     inkscape:showpageshadow="0"
     inkscape:pageopacity="1"
     inkscape:pagecheckerboard="0"
     inkscape:deskcolor="#d1d1d1"
     inkscape:document-units="mm"
     inkscape:zoom="8.0630806"
     inkscape:cx="308.07084"
     inkscape:cy="392.34384"
     inkscape:window-width="2556"
     inkscape:window-height="1396"
     inkscape:window-x="0"
     inkscape:window-y="0"
     inkscape:window-maximized="0"
     inkscape:current-layer="layer1" /><defs
     id="defs1" /><g
     inkscape:label="Layer 1"
     inkscape:groupmode="layer"
     id="layer1"><path
       style="fill:#1e1e1e;stroke:none"
       d="m 95.573543,132.81437 c 10.093547,3.19186 24.013567,2.15929 29.425707,13.49375 1.83906,3.8515 1.56763,8.39843 0.50283,12.43542 -0.37622,1.42637 -0.72336,3.35237 -2.15892,4.08185 -2.84581,1.4461 -5.87636,-1.19839 -8.45503,-2.08564 -4.89289,-1.6835 -11.6866,-0.65262 -16.139587,1.82412 -1.761149,0.97955 -3.903335,2.24318 -4.233334,4.38175 2.070227,-0.0889 3.718496,0.19561 5.722391,1.01382 3.01317,1.23029 5.1261,3.3593 7.77136,5.13795 2.40591,1.6177 4.83212,2.05032 7.67292,2.05032 -1.10684,4.27803 1.13119,7.23613 1.3125,11.37708 0.10781,2.46228 -1.39664,3.84795 -1.84167,6.08541 7.67099,-0.0635 13.598,-7.75758 14.7005,-14.81666 0.45384,-2.90588 -0.50065,-6.0018 0.85969,-8.73125 2.86923,-5.75692 8.21225,-9.96215 11.09414,-15.875 8.59997,-17.64482 4.46222,-35.72443 -6.28815,-51.32916 -3.48918,-5.064738 -7.3842,-9.852487 -11.64535,-14.287301 -1.74898,-1.820262 -4.83255,-3.440394 -5.75621,-5.82229 -2.50072,-6.448766 4.25574,-14.784286 8.37738,-18.643772 1.51544,-1.419059 3.32611,-3.923426 0.56302,-5.280772 -2.39091,-1.174525 -5.65967,-0.731819 -8.20085,-0.459759 -6.47441,0.693158 -12.39656,2.688821 -17.99167,6.024583 -2.112363,1.259371 -3.731708,3.088063 -6.023929,3.827965 -1.57683,0.50898 -4.825381,-0.02968 -6.411489,-0.373072 -3.708595,-0.802907 -7.841467,-1.470058 -11.641667,-1.209818 -11.608215,0.794945 -23.554842,7.549652 -26.485283,19.555483 -0.738813,3.026866 -1.787202,6.686551 -1.824115,9.789583 -0.02318,1.948258 0.958921,4.813046 0.486295,6.61458 -1.395227,5.31827 -13.747455,0.79168 -12.255558,8.20209 0.127592,0.63376 0.360439,1.27723 0.654722,1.85208 2.02198,3.94973 7.327186,5.48216 11.378104,6.15054 1.257341,0.20746 3.911483,-0.006 4.91929,0.73597 0.931662,0.68594 0.02366,3.64645 0.187414,4.75516 0.507503,3.43609 3.41403,4.91262 6.534963,5.40007 5.552387,0.86721 11.977714,-4.68004 16.830034,-0.68576 1.671777,1.37616 2.464615,4.77484 3.543086,6.66277 2.4968,4.37079 5.623115,8.53423 9.789382,11.45078 1.677978,1.17465 5.194988,3.61068 7.347905,2.41677 1.316211,-0.72991 0.611958,-2.72232 0.202317,-3.81339 -1.537382,-4.09478 -3.089948,-7.42133 -2.523138,-11.90625 M 116.74021,81.220627 c -6.99625,-4.869575 -13.50451,-9.6643 -21.695834,-12.435416 1.337261,-1.859213 3.407124,-2.874867 5.291664,-4.124443 5.29557,-3.511309 12.14388,-6.260662 18.52084,-6.699799 1.85615,-0.127818 8.53789,-0.882278 8.8764,1.833311 0.27346,2.193688 -5.08139,5.919562 -6.403,7.762317 -3.10278,4.326286 -4.59007,8.41536 -4.59007,13.66403 m -0.52917,110.860413 c 0.51464,-1.78644 1.64056,-3.34837 1.53198,-5.29167 -0.29149,-5.21657 -2.92192,-8.16966 -0.73823,-13.49375 -1.96889,1.90596 -5.19466,1.06699 -7.40833,-0.0686 -5.44003,-2.79066 -7.60257,-7.07515 -14.287501,-7.07515 3.711337,-5.15645 13.043091,-6.37706 18.785421,-4.90051 3.5164,0.9042 5.70004,2.96479 9.525,2.25468 l -4.49792,7.14375 c 2.69938,-2.72194 4.92936,-5.91491 6.26528,-9.525 0.86357,-2.33368 1.60698,-4.90392 1.66835,-7.40833 0.43486,-17.74725 -20.67043,-19.26943 -33.598214,-21.85467 -2.765279,-0.55298 -5.492135,-1.17684 -8.202084,-1.95783 -3.435667,-0.99015 -8.301791,-1.96259 -11.1125,-4.23333 l 4.7625,-1.05834 v -0.26458 c -5.970704,0.0494 -11.414293,4.35708 -17.462501,3.91995 -5.432122,-0.39259 -8.578171,-4.76221 -6.614584,-10.00537 h 2.38125 c -0.34517,1.21023 -1.027047,2.40686 -0.678812,3.70417 1.056367,3.93537 6.339792,3.43433 9.145479,2.14279 4.969065,-2.2874 9.564651,-8.57874 12.170834,-13.25529 l 2.381251,1.32292 c -1.960996,-1.85906 -3.506142,-2.05537 -6.085417,-1.85209 v 0.26459 h 2.116666 v 0.26458 c -9.186701,5.66917 -18.770379,8.69888 -29.633335,5.91882 -3.568249,-0.91318 -10.491436,-3.6401 -9.145682,-8.56445 1.02079,-3.73526 6.830099,-2.97182 9.674849,-3.14908 3.419387,-0.21305 6.662336,-3.05912 7.932805,-6.11154 1.180506,-2.836277 1.572801,-6.229481 1.134688,-9.260416 -0.185523,-1.283465 -0.559091,-3.145545 -2.18853,-3.268502 -1.259005,-0.095 -2.463049,1.044017 -3.439379,1.681002 0.06919,-3.352024 0.956627,-7.051814 5.027083,-6.085417 -0.80459,-1.024332 -1.595972,-1.500352 -2.910417,-1.322916 1.514766,-3.201985 4.077552,-6.036469 6.879167,-8.167581 14.921026,-11.350025 35.910643,-5.09928 50.139573,4.428732 3.53576,2.36762 7.06999,4.833081 10.18543,7.731281 16.38315,15.240727 31.39545,38.146207 23.98604,61.359647 -1.57184,4.92451 -4.21184,9.6668 -7.25492,13.85677 -1.97711,2.72226 -4.22132,4.92934 -5.91586,7.83906 -2.05284,3.52497 -0.90754,6.77742 -1.5771,10.58334 -1.21078,6.88238 -6.39241,11.89962 -12.94233,13.75833 M 55.621457,82.014377 l 0.264584,0.264584 -0.264584,-0.264584 m 25.135418,1.322917 v 0.264583 c 1.316526,-0.170023 2.634477,-0.629944 3.96875,-0.405248 4.933166,0.830747 7.140747,5.652691 7.143751,10.194831 1.547507,-3.687913 -1.155744,-10.089314 -5.027084,-11.208246 -2.144225,-0.619746 -4.185545,0.251543 -6.085417,1.15408 m -24.870834,7.143749 c -6.1822,-1.281438 -6.385089,7.665714 -2.645834,10.583337 l -2.910417,2.11666 c -1.408851,-3.657356 -2.164172,-8.439154 -0.561218,-12.17083 1.447599,-3.370006 5.500397,-5.303455 6.117469,-0.529167 m 18.256251,16.404167 -2.910417,1.5875 v 0.26458 c 2.982057,-0.85248 5.537271,-2.18982 8.73125,-2.11279 11.223601,0.27067 14.986671,11.7979 23.812505,16.45827 2.56921,1.35665 5.37248,2.01706 7.9375,3.29116 3.81679,1.89587 7.20765,4.0294 11.37708,5.1849 1.93462,0.53615 4.07592,0.96603 6.08542,0.98994 1.45751,0.0173 3.68684,0.69873 5.05188,1.43465 1.52606,0.82274 4.14317,6.74265 4.24135,10.64083 0.29753,11.81278 -8.45091,20.69707 -18.02448,26.29012 v 0.26459 c 2.52965,-0.73014 4.83171,-2.53987 6.87916,-4.14392 6.99482,-5.48 12.7001,-14.93134 11.56593,-24.1665 -0.52664,-4.2882 -2.64556,-7.09403 -4.95134,-10.58333 1.66712,-0.13617 4.62102,-0.83911 3.77113,-3.175 -0.82389,-2.26441 -3.92394,-3.31753 -5.62322,-4.8113 -4.28455,-3.76639 -7.29272,-10.76753 -13.75833,-11.0637 v 0.26458 c 6.59157,0.98806 9.36409,8.65878 14.2875,12.22759 1.15158,0.83474 5.36513,2.69237 4.2515,4.64919 -1.34817,2.36897 -6.58801,1.56959 -8.74942,1.37947 -8.67782,-0.76332 -17.91983,-5.78948 -22.48958,-13.22916 h -0.26458 c 0.76671,2.66144 2.82401,5.33445 5.29166,6.61458 v 0.26458 c -4.25262,-1.36026 -8.36756,-3.23495 -11.641664,-6.36041 -4.318426,-4.12239 -7.265024,-9.59711 -13.229167,-11.63125 1.735008,-1.73981 3.20519,-3.44224 3.961196,-5.82084 0.981304,-3.087446 0.870825,-6.941312 -0.754144,-9.78958 -2.776442,-4.866595 -8.809573,-6.016888 -12.972752,-2.067873 -1.145747,1.086812 -1.94716,2.490376 -2.587035,3.919956 -0.814066,1.818744 -1.147185,3.839898 -1.140814,5.820833 0.0086,2.667024 0.854401,4.976384 1.851882,7.408334 m 9.789583,-0.26458 3.041674,-2.7771 c -5.821746,4.79192 -12.598524,-2.37807 -9.030117,-8.599987 2.128299,-3.710925 7.412206,-3.987135 9.428233,0 1.477659,2.922391 1.581074,6.882117 -0.373505,8.345687 l 0.666557,-0.38557 c 0,0 0.934318,-1.47376 0.952736,-3.253048 0.01225,-1.183657 -0.249012,-3.067723 -0.698454,-4.177902 -1.57947,-3.901522 -6.215751,-5.241347 -9.229795,-2.091757 -2.261748,2.363462 -2.679375,6.034087 -1.403762,8.970927 0.582091,1.34014 1.497264,2.3411 2.677683,3.175 -0.999991,0.41961 -4.788237,1.08288 -5.649138,0.35911 -1.479057,-1.24347 -1.493942,-4.43864 -1.494612,-6.17995 -0.0023,-6.02584 4.895389,-13.956953 11.90625,-10.604767 1.374384,0.657154 2.533204,1.904825 3.312807,3.196437 2.01308,3.335181 1.943119,8.0283 0.0039,11.37708 -0.836936,1.44526 -2.231752,3.73973 -4.110433,2.64584 M 55.886041,92.862293 c -4.283672,-1.02979 -4.759665,4.477973 -1.587501,6.35 -1.291097,3.640207 -3.475686,-2.064263 -3.384053,-3.704166 0.08597,-1.538521 0.62169,-3.366356 1.845551,-4.383179 1.695841,-1.408958 3.067505,-0.06392 3.126003,1.737345 m -2.032556,0.429335 c 0.947221,-0.430392 1.919314,0.772845 0.890111,1.360075 -0.949761,0.5419 -1.923325,-0.890611 -0.890111,-1.360075 m 27.69714,1.574225 c -5.000062,1.432874 -3.496125,10.483107 1.852084,9.113637 5.115535,-1.30989 3.739944,-10.716155 -1.852084,-9.113637 m 0.568364,1.071608 c 1.411062,-0.545792 2.662403,1.419285 1.003621,2.008469 -1.393766,0.495052 -2.491995,-1.43277 -1.003621,-2.008469 m -27.291282,4.862329 v 0.26459 c 3.425867,0.0707 5.98637,1.50533 8.995834,2.91041 -1.776878,-2.30087 -6.13668,-4.012236 -8.995834,-3.175 m -5.291667,1.5875 0.529167,1.32292 -2.116667,0.79375 1.5875,-2.11667 m 30.691669,9.78959 0.264583,0.26458 -0.264583,-0.26458 m -6.085417,3.175 c -2.67384,4.63104 -7.985915,9.81962 -13.758335,8.99583 3.76e-4,-3.4034 1.536076,-6.82217 5.291667,-7.40833 l -2.645833,3.96875 c 3.017837,-2.87994 7.039707,-4.76598 11.112501,-5.55625 m -11.377084,5.55625 0.264583,0.26458 -0.264583,-0.26458 m 16.139584,7.40833 c 4.839663,2.55018 10.816721,3.49502 16.139584,4.49791 -0.681471,3.67068 0.394114,7.25042 1.913126,10.58334 0.463401,1.01676 1.739364,3.29699 0.790484,4.33827 -1.476642,1.62042 -5.705966,-1.26896 -6.936944,-2.15444 -4.299031,-3.09242 -7.730152,-7.5395 -10.118678,-12.238 -0.690554,-1.3584 -2.217714,-3.47614 -1.787572,-5.02708 m 39.984898,42.56303 -1.09736,0.77542 -0.55576,1.8376 z"
       id="path1"
       sodipodi:nodetypes="cssssscsscscssssssssssssssssssssssssssscccssssccscscsccsssscccsccssccccccsssssscccsssssssccccccscsccccsccccsssscssccsscssccsssccccscssssscccssccsssscssssscccssccsccsccsccccccccccccccccccccccssssccccc" /></g></svg>
