<?xml version="1.0" encoding="UTF-8" standalone="no"?>
<!-- Created with Inkscape (http://www.inkscape.org/) -->

<svg
   version="1.1"
   id="svg2"
   width="639.65149"
   height="1055.0415"
   viewBox="0 0 639.65149 1055.0415"
   xmlns="http://www.w3.org/2000/svg"
   xmlns:svg="http://www.w3.org/2000/svg">
  <defs
     id="defs6" />
  <g
     id="g8"
     transform="translate(-23.06858,-22.398403)">
    <path
       style="fill:#000000;stroke-width:0.32"
       d="m 24.030509,1075.12 c 0.529095,-1.276 1.090964,-2.608 1.248597,-2.96 0.348725,-0.7787 1.260243,-3.0796 2.408659,-6.08 0.471552,-1.232 0.986713,-2.3768 1.144801,-2.544 0.158089,-0.1672 0.287434,-0.5092 0.287434,-0.76 0,-0.2508 0.34744,-1.266 0.772089,-2.256 0.672193,-1.5671 1.8931,-4.6671 3.607581,-9.16 0.268647,-0.704 0.752458,-1.928 1.075133,-2.72 0.643946,-1.5805 1.825856,-4.7083 2.720765,-7.2 0.316051,-0.88 0.680995,-1.744 0.810992,-1.92 0.129994,-0.176 0.673981,-1.616 1.208854,-3.2 2.095837,-6.2067 4.464103,-12.6905 5.96104,-16.32 0.217764,-0.528 0.699917,-1.752 1.071447,-2.72 0.371533,-0.968 1.476121,-3.848 2.454643,-6.4 0.978522,-2.552 1.912374,-4.928 2.075226,-5.28 0.423984,-0.9164 3.411523,-8.76288 4.629936,-12.16 0.568118,-1.584 1.537836,-4.248 2.154934,-5.92 0.617098,-1.672 1.744029,-4.768 2.504291,-6.88 0.760263,-2.112 1.717722,-4.69283 2.127683,-5.73517 0.409962,-1.04233 0.745386,-2.02857 0.745386,-2.19165 0,-0.16304 0.203197,-0.7502 0.451549,-1.30483 0.248355,-0.55459 0.815907,-1.94435 1.261229,-3.08835 0.445321,-1.144 1.627244,-3.808 2.626492,-5.92 0.999248,-2.112 2.433386,-5.28 3.18697,-7.04 0.753584,-1.76 2.016262,-4.568 2.805955,-6.24 0.789693,-1.672 1.626755,-3.616 1.860138,-4.32 0.233382,-0.704 0.660976,-1.64 0.950208,-2.08 0.578598,-0.88022 1.716835,-3.66272 3.401033,-8.31414 0.60424,-1.6688 1.197124,-3.1088 1.31752,-3.2 0.120397,-0.0912 0.571226,-1.24586 1.001844,-2.56586 0.430614,-1.32 1.177372,-3.26733 1.659459,-4.32739 0.482089,-1.06007 1.380211,-3.29207 1.99583,-4.96 1.786839,-4.84122 2.319043,-6.11754 2.644487,-6.34202 0.167916,-0.11584 0.721827,-1.65059 1.230912,-3.41059 0.509084,-1.76 1.022096,-3.272 1.140025,-3.36 0.11793,-0.088 0.692723,-1.816 1.277319,-3.84 0.584592,-2.024 1.158915,-3.752 1.276272,-3.84 0.117356,-0.088 0.527881,-1.204 0.912278,-2.48 0.384397,-1.276 0.838755,-2.32 1.00969,-2.32 0.170934,0 0.31079,-0.27459 0.31079,-0.61021 0,-0.33561 0.700422,-2.69539 1.556496,-5.2439 1.287136,-3.83181 1.529741,-4.91213 1.401904,-6.24253 -0.142045,-1.4783 -0.09621,-1.61757 0.564819,-1.7161 0.605347,-0.0903 0.884563,-0.61894 1.761101,-3.33459 0.57293,-1.77501 1.14696,-3.71901 1.27563,-4.32 0.12867,-0.60096 0.41578,-1.45267 0.63801,-1.89267 0.22224,-0.44 0.56562,-1.196 0.76306,-1.68 0.19744,-0.484 0.4932,-1.204 0.65726,-1.6 0.34142,-0.82413 5.86315,-12.74659 8.33647,-18 0.91148,-1.936 2.37795,-5.176 3.25882,-7.2 0.88088,-2.024 2.00826,-4.544 2.50529,-5.6 0.49703,-1.056 1.83589,-4.008 2.97523,-6.56 1.13935,-2.552 2.64947,-5.864 3.35583,-7.36 0.70636,-1.496 2.00812,-4.376 2.8928,-6.4 0.88469,-2.024 2.67664,-6.056 3.98212,-8.96 1.30547,-2.904 2.62131,-6.02784 2.92408,-6.94189 0.30277,-0.91405 0.82962,-2.01677 1.17078,-2.45046 0.34117,-0.43373 0.6203,-1.07415 0.6203,-1.42317 0,-0.34902 0.28484,-1.2623 0.63297,-2.02954 0.39088,-0.8614 0.63566,-2.09868 0.64,-3.23494 0.007,-1.73258 0.0524,-1.84 0.78357,-1.84 0.86811,0 1.10592,-0.43984 4.23889,-7.84 0.96866,-2.288 2.45034,-5.744 3.29263,-7.68 0.84228,-1.936 1.93351,-4.528 2.42495,-5.76 0.49144,-1.232 1.14766,-2.816 1.45826,-3.52 0.31061,-0.704 1.12971,-2.648 1.82024,-4.32 0.69053,-1.672 2.05955,-4.984 3.04227,-7.36 3.33342,-8.05946 5.57676,-13.59405 6.25544,-15.4329 0.37206,-1.00809 0.81749,-2.08809 0.98983,-2.4 0.45909,-0.83084 3.86095,-9.6103 3.86095,-9.96425 0,-0.16576 0.56336,-1.5032 1.25192,-2.97213 0.68855,-1.4689 1.75247,-3.82272 2.36426,-5.23072 1.62912,-3.74931 3.8283,-8.66272 4.94138,-11.04 0.53564,-1.144 1.79634,-3.952 2.80155,-6.24 1.00521,-2.288 2.02037,-4.592 2.25591,-5.12 0.23554,-0.528 1.45791,-3.336 2.71637,-6.24 1.25846,-2.904 3.07438,-7.08 4.03537,-9.28 3.15426,-7.22102 5.86362,-13.7311 9.9054,-23.80074 0.76841,-1.91443 1.52414,-3.64243 1.6794,-3.84 0.15526,-0.1976 0.67176,-1.36726 1.14776,-2.59926 0.47601,-1.232 1.05293,-2.672 1.28204,-3.2 0.22912,-0.528 1.06767,-2.688 1.86345,-4.8 3.31553,-8.79949 12.86154,-33.46061 13.37772,-34.56 0.4014,-0.85491 4.25543,-11.42406 5.47817,-15.02314 0.535,-1.57468 1.90597,-5.24668 3.04661,-8.16 1.14063,-2.91328 2.26065,-5.87286 2.48891,-6.57686 0.22827,-0.704 0.98767,-2.576 1.68756,-4.16 0.69988,-1.584 1.66854,-3.888 2.15257,-5.12 0.48402,-1.232 1.56829,-3.896 2.40947,-5.92 2.27847,-5.48234 6.42151,-15.71926 12.95084,-32 3.21158,-8.008 6.20169,-15.352 6.64469,-16.32 0.443,-0.968 1.67838,-4.208 2.74529,-7.2 1.06691,-2.992 3.39776,-9.4 5.17967,-14.24 1.78192,-4.84 3.74131,-10.24 4.35421,-12 0.6129,-1.76 1.5891,-4.424 2.16933,-5.92 0.58022,-1.496 1.67605,-4.448 2.43516,-6.56 0.75911,-2.112 1.86054,-5.11446 2.4476,-6.67213 0.58706,-1.55763 1.06739,-2.96096 1.06739,-3.11846 0,-0.15747 1.168,-3.20304 2.59555,-6.76787 1.42755,-3.56484 3.35563,-8.42554 4.28461,-10.80154 2.44002,-6.2407 4.29734,-10.89757 4.78599,-12 0.23404,-0.528 1.10688,-2.688 1.93963,-4.8 1.80384,-4.57482 7.22059,-17.51078 8.37472,-20 0.44882,-0.968 1.01687,-2.32397 1.26235,-3.01325 0.81382,-2.28509 3.05439,-6.6288 3.50934,-6.80339 0.37389,-0.14346 0.44734,-2.37146 0.44493,-13.4976 -0.002,-7.32915 0.16417,-16.5585 0.36833,-20.50966 0.27988,-5.41655 0.28059,-7.21408 0.003,-7.30666 -0.26561,-0.0885 -0.36833,-2.52493 -0.36833,-8.7361 V 334.08 h -0.77195 -0.77194 L 297.7706,298 c -0.11302,-19.844 -0.23365,-37.20142 -0.26805,-38.57205 -0.0475,-1.89072 0.0502,-2.56164 0.40473,-2.78046 0.40177,-0.24799 0.38862,-0.37532 -0.0938,-0.9084 -0.7746,-0.85592 -1.15317,-9.08238 -1.2176,-26.45909 -0.0889,-23.98212 -0.554,-69.40988 -0.72236,-70.56 -0.0902,-0.616 -0.32348,-4.216 -0.51847,-8 -0.46826,-9.08749 -1.44941,-23.35115 -2.23419,-32.48 -0.34799,-4.048 -0.86795,-11.32 -1.15546,-16.16 -0.28751,-4.84 -0.75734,-12.614435 -1.04407,-17.276525 L 290.4,76.32695 285.92,75.458845 c -2.464,-0.477459 -5.2,-0.881344 -6.08,-0.897523 -0.88,-0.01619 -2.16357,-0.230228 -2.85238,-0.475668 -0.68881,-0.24544 -2.23681,-0.622182 -3.44,-0.837203 -1.20319,-0.215021 -2.18762,-0.485942 -2.18762,-0.602045 0,-0.116099 -1.152,-0.398176 -2.56,-0.626828 -1.408,-0.228656 -2.56,-0.542602 -2.56,-0.697658 0,-0.155056 -0.36,-0.28192 -0.8,-0.28192 -0.49778,0 -0.8,-0.181334 -0.8,-0.48 0,-0.266666 -0.28444,-0.48 -0.64,-0.48 -0.35556,0 -0.64,-0.213334 -0.64,-0.48 0,-0.264 -0.216,-0.48 -0.48,-0.48 -0.32458,0 -0.48,-0.32479 -0.48,-1.003104 0,-1.322896 0.70297,-5.193114 0.98027,-5.396896 0.11975,-0.088 0.47517,-1.597283 0.78983,-3.353962 0.31466,-1.756678 0.73583,-3.35768 0.93593,-3.557782 0.68164,-0.681642 0.43721,-0.642141 11.69397,-1.889773 2.376,-0.263341 5.472,-0.622659 6.88,-0.798483 1.408,-0.175824 4.504,-0.524266 6.88,-0.774314 5.49686,-0.578483 7.04,-0.838576 7.04,-1.186585 0,-0.153504 0.20454,-0.279101 0.45453,-0.279101 0.49789,0 0.56497,-0.519398 1.15721,-8.96 0.19141,-2.728 0.48307,-6.461008 0.64814,-8.295578 0.16506,-1.834566 0.30012,-4.238068 0.30012,-5.341114 0,-1.103045 0.15275,-2.099943 0.33945,-2.215328 0.35049,-0.216616 3.26715,-0.488559 20.46055,-1.907701 5.544,-0.457601 12.48147,-1.040864 15.41661,-1.29614 2.93517,-0.255277 7.11117,-0.464856 9.28,-0.465734 6.55126,-0.0027 34.58227,2.835176 36.93942,3.739703 0.23642,0.09072 0.45536,1.365621 0.58451,3.403475 0.11357,1.79213 0.33639,4.842417 0.49514,6.778417 0.15878,1.936 0.46422,5.86 0.67878,8.72 0.35479,4.729011 0.44436,5.2 0.98909,5.2 0.32944,0 0.91789,0.208294 1.30771,0.46288 0.48544,0.31704 2.82599,0.618957 7.42874,0.958266 3.696,0.27246 7.728,0.63272 8.96,0.800572 1.232,0.167853 3.536,0.462807 5.12,0.655453 1.584,0.192647 3.816,0.480963 4.96,0.640704 1.144,0.159741 3.02061,0.377664 4.17024,0.484279 1.14963,0.106614 2.24397,0.293744 2.43187,0.415846 0.18791,0.122099 0.43075,1.014 0.53965,1.982 0.1089,0.968 0.37453,3.128 0.59027,4.8 0.21575,1.672 0.40032,4.192 0.41011,5.6 l 0.0179,2.56 -1.04,0.100275 c -0.572,0.05515 -1.04,0.218016 -1.04,0.36192 0,0.143904 -1.152,0.448727 -2.56,0.677383 -1.408,0.228652 -2.56,0.516652 -2.56,0.64 0,0.123344 -1.152,0.411344 -2.56,0.64 -1.408,0.228652 -2.56,0.516652 -2.56,0.64 0,0.123344 -1.152,0.411344 -2.56,0.64 -1.408,0.228652 -2.56,0.51342 -2.56,0.632812 0,0.119392 -1.08,0.401818 -2.4,0.62761 -1.32,0.225792 -2.4,0.517571 -2.4,0.648394 0,0.130825 -0.792,0.336816 -1.76,0.45776 -0.968,0.120944 -1.76,0.353536 -1.76,0.516873 0,0.163335 -0.432,0.296973 -0.96,0.296973 -0.78076,0 -0.96092,0.134432 -0.96496,0.72 -0.003,0.396 -0.14096,2.808 -0.3072,5.36 -0.16624,2.552 -0.52662,9.32 -0.80083,15.04 -0.27424,5.72 -0.71296,13.712 -0.97494,17.76 -0.51219,7.91357 -1.24739,20.60188 -1.76151,30.4 -0.17545,3.344 -0.45491,8.456 -0.62102,11.36 -0.16608,2.904 -0.30816,6.54 -0.31574,8.08 -0.0128,2.59126 0.0339,2.8 0.6262,2.8 0.63335,0 0.63984,0.20854 0.62564,20.08 -0.01,13.34514 -0.20285,24.80245 -0.57629,34.16 -0.30909,7.744 -0.54634,17.176 -0.5273,20.96 0.0363,7.19642 -0.36809,29.53029 -0.63437,35.04 -0.0851,1.76 -0.3376,10.688 -0.56118,19.84 -0.70912,29.02781 -0.27296,93.85846 0.6335,94.16019 0.22,0.0732 0.4,0.48115 0.4,0.90647 0,0.42534 0.144,0.77334 0.32,0.77334 0.176,0 0.32,0.36 0.32,0.8 0,0.44 0.144,0.8 0.32,0.8 0.176,0 0.32,0.36 0.32,0.8 0,0.44 0.144,0.8 0.32,0.8 0.176,0 0.32,0.36 0.32,0.8 0,0.44 0.144,0.8 0.32,0.8 0.176,0 0.32,0.36 0.32,0.8 0,0.44 0.144,0.8 0.32,0.8 0.176,0 0.32,0.432 0.32,0.96 0,0.528 0.144,0.96 0.32,0.96 0.176,0 0.32,0.36 0.32,0.8 0,0.44 0.144,0.8 0.32,0.8 0.176,0 0.32,0.36 0.32,0.8 0,0.49779 0.18135,0.8 0.48,0.8 0.29866,0 0.48,0.30221 0.48,0.8 0,0.44 0.144,0.8 0.32,0.8 0.176,0 0.32,0.36 0.32,0.8 0,0.44 0.144,0.8 0.32,0.8 0.176,0 0.32,0.36 0.32,0.8 0,0.44 0.144,0.8 0.32,0.8 0.176,0 0.32,0.36 0.32,0.8 0,0.44 0.144,0.8 0.32,0.8 0.176,0 0.32,0.36 0.32,0.8 0,0.44 0.144,0.8 0.32,0.8 0.176,0 0.32,0.36 0.32,0.8 0,0.44 0.144,0.8 0.32,0.8 0.176,0 0.32,0.36 0.32,0.8 0,0.44 0.144,0.8 0.32,0.8 0.176,0 0.32,0.36 0.32,0.8 0,0.44 0.144,0.8 0.32,0.8 0.176,0 0.32,0.36 0.32,0.8 0,0.44 0.144,0.8 0.32,0.8 0.176,0 0.32,0.36 0.32,0.8 0,0.44 0.144,0.8 0.32,0.8 0.176,0 0.32,0.36 0.32,0.8 0,0.44 0.144,0.8 0.32,0.8 0.176,0 0.32,0.432 0.32,0.96 0,0.528 0.144,0.96 0.32,0.96 0.176,0 0.32,0.36 0.32,0.8 0,0.44 0.144,0.8 0.32,0.8 0.176,0 0.32,0.36 0.32,0.8 0,0.44 0.144,0.8 0.32,0.8 0.176,0 0.32,0.36 0.32,0.8 0,0.44 0.144,0.8 0.32,0.8 0.176,0 0.32,0.36 0.32,0.8 0,0.44 0.144,0.8 0.32,0.8 0.176,0 0.32,0.36 0.32,0.8 0,0.44 0.144,0.8 0.32,0.8 0.176,0 0.32,0.36 0.32,0.8 0,0.44 0.144,0.8 0.32,0.8 0.176,0 0.32,0.36 0.32,0.8 0,0.44 0.144,0.8 0.32,0.8 0.176,0 0.32,0.36 0.32,0.8 0,0.44 0.144,0.8 0.32,0.8 0.176,0 0.32,0.36 0.32,0.8 0,0.44 0.144,0.8 0.32,0.8 0.176,0 0.32,0.36 0.32,0.8 0,0.44 0.144,0.8 0.32,0.8 0.176,0 0.32,0.36 0.32,0.8 0,0.44 0.144,0.8 0.32,0.8 0.176,0 0.32,0.36 0.32,0.8 0,0.44 0.144,0.8 0.32,0.8 0.176,0 0.32,0.432 0.32,0.96 0,0.528 0.144,0.96 0.32,0.96 0.176,0 0.32,0.36 0.32,0.8 0,0.44 0.144,0.8 0.32,0.8 0.176,0 0.32,0.36 0.32,0.8 0,0.44 0.144,0.8 0.32,0.8 0.176,0 0.32,0.36 0.32,0.8 0,0.44 0.144,0.8 0.32,0.8 0.176,0 0.32,0.36 0.32,0.8 0,0.44 0.144,0.8 0.32,0.8 0.176,0 0.32,0.36 0.32,0.8 0,0.44 0.144,0.8 0.32,0.8 0.176,0 0.32,0.36 0.32,0.8 0,0.49779 0.18135,0.8 0.48,0.8 0.29866,0 0.48,0.30221 0.48,0.8 0,0.44 0.144,0.8 0.32,0.8 0.176,0 0.32,0.36 0.32,0.8 0,0.44 0.144,0.8 0.32,0.8 0.176,0 0.32,0.36 0.32,0.8 0,0.44 0.144,0.8 0.32,0.8 0.176,0 0.32,0.36 0.32,0.8 0,0.44 0.144,0.8 0.32,0.8 0.176,0 0.32,0.36 0.32,0.8 0,0.44 0.144,0.8 0.32,0.8 0.176,0 0.32,0.36 0.32,0.8 0,0.44 0.144,0.8 0.32,0.8 0.176,0 0.32,0.432 0.32,0.96 0,0.528 0.144,0.96 0.32,0.96 0.176,0 0.32,0.36 0.32,0.8 0,0.44 0.144,0.8 0.32,0.8 0.176,0 0.32,0.36 0.32,0.8 0,0.44 0.144,0.8 0.32,0.8 0.176,0 0.32,0.36 0.32,0.8 0,0.44 0.144,0.8 0.32,0.8 0.176,0 0.32,0.36 0.32,0.8 0,0.44 0.144,0.8 0.32,0.8 0.176,0 0.32,0.36 0.32,0.8 0,0.44 0.144,0.8 0.32,0.8 0.176,0 0.32,0.36 0.32,0.8 0,0.44 0.144,0.8 0.32,0.8 0.176,0 0.32,0.36 0.32,0.8 0,0.44 0.144,0.8 0.32,0.8 0.176,0 0.32,0.36 0.32,0.8 0,0.44 0.144,0.8 0.32,0.8 0.176,0 0.32,0.36 0.32,0.8 0,0.44 0.144,0.8 0.32,0.8 0.176,0 0.32,0.36 0.32,0.8 0,0.44 0.144,0.8 0.32,0.8 0.176,0 0.32,0.36 0.32,0.8 0,0.44 0.144,0.8 0.32,0.8 0.176,0 0.32,0.36 0.32,0.8 0,0.44 0.144,0.8 0.32,0.8 0.176,0 0.32,0.35149 0.32,0.78112 0,0.4296 0.144,0.87011 0.32,0.97888 0.176,0.10877 0.32,0.47923 0.32,0.82323 0,0.344 0.1272,0.87549 0.28266,1.18112 0.51312,1.00867 0.94205,2.11187 2.39334,6.15565 0.78954,2.2 2.2913,6.376 3.33722,9.28 1.69254,4.6993 8.11987,21.0807 10.60928,27.04 0.51462,1.232 2.44992,6.056 4.30058,10.72 3.19622,8.05498 6.5064,16.24746 13.70531,33.92 1.75651,4.312 3.69277,9.352 4.30281,11.2 1.93872,5.87293 6.52557,18.52445 8.81728,24.32 2.36253,5.97456 4.44912,11.33206 8.41271,21.6 1.35878,3.52 3.15613,7.84 3.99411,9.6 1.87517,3.9383 2.19206,4.66416 3.70221,8.48 2.30777,5.83123 7.7344,18.93328 10.20544,24.64 0.57155,1.32 1.43129,3.336 1.91053,4.48 0.47923,1.144 1.00128,2.368 1.16009,2.72 0.15885,0.352 0.59056,1.432 0.95936,2.4 0.59543,1.56272 1.9384,4.70893 7.23943,16.96 0.79961,1.848 1.71526,3.936 2.03475,4.64 0.31949,0.704 1.17235,2.70976 1.89523,4.45728 0.72291,1.74749 1.43584,3.33149 1.58432,3.52 0.14845,0.18848 0.45443,0.91872 0.67994,1.62272 0.53596,1.67322 2.30342,5.41011 2.62345,5.54666 0.13747,0.0587 0.24995,0.45468 0.24995,0.88 0,0.42534 0.144,0.77334 0.32,0.77334 0.176,0 0.32,0.432 0.32,0.96 0,0.528 0.144,0.96 0.32,0.96 0.176,0 0.32,0.36 0.32,0.8 0,0.44 0.144,0.8 0.32,0.8 0.176,0 0.32,0.36 0.32,0.8 0,0.44 0.144,0.8 0.32,0.8 0.176,0 0.32,0.36 0.32,0.8 0,0.44 0.144,0.8 0.32,0.8 0.176,0 0.32,0.36 0.32,0.8 0,0.44 0.144,0.8 0.32,0.8 0.176,0 0.32,0.36 0.32,0.8 0,0.44 0.144,0.8 0.32,0.8 0.176,0 0.32,0.36 0.32,0.8 0,0.44 0.144,0.8 0.32,0.8 0.176,0 0.32,0.36 0.32,0.8 0,0.44 0.144,0.8 0.32,0.8 0.176,0 0.32,0.36 0.32,0.8 0,0.44 0.144,0.8 0.32,0.8 0.176,0 0.32,0.36 0.32,0.8 0,0.44 0.144,0.8 0.32,0.8 0.176,0 0.32,0.36 0.32,0.8 0,0.44 0.144,0.8 0.32,0.8 0.176,0 0.32,0.36 0.32,0.8 0,0.44 0.144,0.8 0.32,0.8 0.176,0 0.32,0.36 0.32,0.8 0,0.44 0.144,0.8 0.32,0.8 0.176,0 0.32,0.36 0.32,0.8 0,0.44 0.144,0.8 0.32,0.8 0.176,0 0.32,0.432 0.32,0.96 0,0.528 0.144,0.96 0.32,0.96 0.176,0 0.32,0.36 0.32,0.8 0,0.44 0.144,0.8 0.32,0.8 0.176,0 0.32,0.36 0.32,0.8 0,0.44 0.144,0.8 0.32,0.8 0.176,0 0.32,0.36 0.32,0.8 0,0.44 0.144,0.8 0.32,0.8 0.176,0 0.32,0.36 0.32,0.8 0,0.44 0.144,0.8 0.32,0.8 0.176,0 0.32,0.36 0.32,0.8 0,0.44 0.144,0.8 0.32,0.8 0.176,0 0.32,0.36 0.32,0.8 0,0.44 0.144,0.8 0.32,0.8 0.176,0 0.32,0.36 0.32,0.8 0,0.44 0.144,0.8 0.32,0.8 0.176,0 0.32,0.36 0.32,0.8 0,0.49779 0.18135,0.8 0.48,0.8 0.29866,0 0.48,0.30221 0.48,0.8 0,0.44 0.144,0.8 0.32,0.8 0.176,0 0.32,0.36 0.32,0.8 0,0.44 0.144,0.8 0.32,0.8 0.176,0 0.32,0.36 0.32,0.8 0,0.44 0.144,0.8 0.32,0.8 0.176,0 0.32,0.36 0.32,0.8 0,0.44 0.144,0.8 0.32,0.8 0.176,0 0.32,0.432 0.32,0.96 0,0.528 0.144,0.96 0.32,0.96 0.176,0 0.32,0.36 0.32,0.8 0,0.44 0.144,0.8 0.32,0.8 0.176,0 0.32,0.36 0.32,0.8 0,0.44 0.144,0.8 0.32,0.8 0.176,0 0.32,0.36 0.32,0.8 0,0.44 0.144,0.8 0.32,0.8 0.176,0 0.32,0.36 0.32,0.8 0,0.44 0.144,0.8 0.32,0.8 0.176,0 0.32,0.36 0.32,0.8 0,0.44 0.144,0.8 0.32,0.8 0.176,0 0.32,0.36 0.32,0.8 0,0.44 0.144,0.8 0.32,0.8 0.176,0 0.32,0.36 0.32,0.8 0,0.44 0.144,0.8 0.32,0.8 0.176,0 0.32,0.36 0.32,0.8 0,0.44 0.144,0.8 0.32,0.8 0.176,0 0.32,0.36 0.32,0.8 0,0.44 0.144,0.8 0.32,0.8 0.176,0 0.32,0.36 0.32,0.8 0,0.44 0.144,0.8 0.32,0.8 0.176,0 0.32,0.36 0.32,0.8 0,0.44 0.144,0.8 0.32,0.8 0.176,0 0.32,0.36 0.32,0.8 0,0.44 0.144,0.8 0.32,0.8 0.176,0 0.32,0.432 0.32,0.96 0,0.528 0.144,0.96 0.32,0.96 0.176,0 0.32,0.36 0.32,0.8 0,0.44 0.144,0.8 0.32,0.8 0.176,0 0.32,0.36 0.32,0.8 0,0.44 0.144,0.8 0.32,0.8 0.176,0 0.32,0.36 0.32,0.8 0,0.44 0.144,0.8 0.32,0.8 0.176,0 0.32,0.36 0.32,0.8 0,0.44 0.144,0.8 0.32,0.8 0.176,0 0.32,0.36 0.32,0.8 0,0.44 0.144,0.8 0.32,0.8 0.176,0 0.32,0.36 0.32,0.8 0,0.44 0.144,0.8 0.32,0.8 0.176,0 0.32,0.36 0.32,0.8 0,0.44 0.144,0.8 0.32,0.8 0.176,0 0.32,0.36 0.32,0.8 0,0.44 0.144,0.8 0.32,0.8 0.176,0 0.32,0.36 0.32,0.8 0,0.44 0.144,0.8 0.32,0.8 0.176,0 0.32,0.36 0.32,0.8 0,0.44 0.144,0.8 0.32,0.8 0.176,0 0.32,0.36 0.32,0.8 0,0.44 0.144,0.8 0.32,0.8 0.176,0 0.32,0.36 0.32,0.8 0,0.44 0.144,0.8 0.32,0.8 0.176,0 0.32,0.36 0.32,0.8 0,0.49779 0.18135,0.8 0.48,0.8 0.32,0 0.48,0.32 0.48,0.96 0,0.528 0.144,0.96 0.32,0.96 0.176,0 0.32,0.36 0.32,0.8 0,0.44 0.144,0.8 0.32,0.8 0.176,0 0.32,0.36 0.32,0.8 0,0.44 0.144,0.8 0.32,0.8 0.176,0 0.32,0.36 0.32,0.8 0,0.44 0.144,0.8 0.32,0.8 0.176,0 0.32,0.36 0.32,0.8 0,0.44 0.144,0.8 0.32,0.8 0.176,0 0.32,0.36 0.32,0.8 0,0.44 0.144,0.8 0.32,0.8 0.176,0 0.32,0.36 0.32,0.8 0,0.44 0.144,0.8 0.32,0.8 0.176,0 0.32,0.36 0.32,0.8 0,0.44 0.144,0.8 0.32,0.8 0.176,0 0.32,0.36 0.32,0.8 0,0.44 0.144,0.8 0.32,0.8 0.176,0 0.32,0.36 0.32,0.8 0,0.44 0.144,0.8 0.32,0.8 0.176,0 0.32,0.36 0.32,0.8 0,0.44 0.144,0.8 0.32,0.8 0.176,0 0.32,0.36 0.32,0.8 0,0.44 0.144,0.8 0.32,0.8 0.176,0 0.32,0.36 0.32,0.8 0,0.44 0.144,0.8 0.32,0.8 0.176,0 0.32,0.432 0.32,0.96 0,0.528 0.144,0.96 0.32,0.96 0.176,0 0.32,0.36 0.32,0.8 0,0.44 0.144,0.8 0.32,0.8 0.176,0 0.32,0.36 0.32,0.8 0,0.44 0.144,0.8 0.32,0.8 0.176,0 0.32,0.36 0.32,0.8 0,0.44 0.144,0.8 0.32,0.8 0.176,0 0.32,0.36 0.32,0.8 0,0.44 0.144,0.8 0.32,0.8 0.176,0 0.32,0.36 0.32,0.8 0,0.44 0.144,0.8 0.32,0.8 0.176,0 0.32,0.36 0.32,0.8 0,0.44 0.144,0.8 0.32,0.8 0.176,0 0.32,0.36 0.32,0.8 0,0.44 0.144,0.8 0.32,0.8 0.176,0 0.32,0.36 0.32,0.8 0,0.44 0.144,0.8 0.32,0.8 0.176,0 0.32,0.36 0.32,0.8 0,0.44 0.144,0.8 0.32,0.8 0.176,0 0.32,0.36 0.32,0.8 0,0.44 0.144,0.8 0.32,0.8 0.176,0 0.32,0.36 0.32,0.8 0,0.44 0.144,0.8 0.32,0.8 0.176,0 0.32,0.36 0.32,0.8 0,0.44 0.144,0.8 0.32,0.8 0.176,0 0.32,0.432 0.32,0.96 0,0.528 0.144,0.96 0.32,0.96 0.176,0 0.32,0.36 0.32,0.8 0,0.44 0.144,0.8 0.32,0.8 0.176,0 0.32,0.36 0.32,0.8 0,0.44 0.144,0.8 0.32,0.8 0.176,0 0.32,0.36 0.32,0.8 0,0.44 0.144,0.8 0.32,0.8 0.176,0 0.32,0.36 0.32,0.8 0,0.49779 0.18135,0.8 0.48,0.8 0.29866,0 0.48,0.30221 0.48,0.8 0,0.44 0.144,0.8 0.32,0.8 0.176,0 0.32,0.36 0.32,0.8 0,0.44 0.144,0.8 0.32,0.8 0.176,0 0.32,0.36 0.32,0.8 0,0.44 0.144,0.8 0.32,0.8 0.176,0 0.32,0.36 0.32,0.8 0,0.44 0.144,0.8 0.32,0.8 0.176,0 0.32,0.36 0.32,0.8 0,0.44 0.144,0.8 0.32,0.8 0.176,0 0.32,0.36 0.32,0.8 0,0.44 0.144,0.8 0.32,0.8 0.176,0 0.32,0.36 0.32,0.8 0,0.44 0.144,0.8 0.32,0.8 0.176,0 0.32,0.36 0.32,0.8 0,0.44 0.144,0.8 0.32,0.8 0.176,0 0.32,0.432 0.32,0.96 0,0.528 0.144,0.96 0.32,0.96 0.176,0 0.32,0.36 0.32,0.8 0,0.44 0.144,0.8 0.32,0.8 0.176,0 0.32,0.36 0.32,0.8 0,0.44 0.144,0.8 0.32,0.8 0.176,0 0.32,0.36 0.32,0.8 0,0.44 0.144,0.8 0.32,0.8 0.176,0 0.32,0.36 0.32,0.8 0,0.44 0.144,0.8 0.32,0.8 0.176,0 0.32,0.36 0.32,0.8 0,0.44 0.144,0.8 0.32,0.8 0.176,0 0.32,0.36 0.32,0.8 0,0.44 0.144,0.8 0.32,0.8 0.176,0 0.32,0.36 0.32,0.8 0,0.44 0.144,0.8 0.32,0.8 0.176,0 0.32,0.36 0.32,0.8 0,0.44 0.144,0.8 0.32,0.8 0.176,0 0.32,0.36 0.32,0.8 0,0.44 0.144,0.8 0.32,0.8 0.176,0 0.32,0.36 0.32,0.8 0,0.44 0.144,0.8 0.32,0.8 0.176,0 0.32,0.36 0.32,0.8 0,0.44 0.144,0.8 0.32,0.8 0.176,0 0.32,0.36 0.32,0.8 0,0.44 0.144,0.8 0.32,0.8 0.176,0 0.32,0.36 0.32,0.8 0,0.44 0.144,0.8 0.32,0.8 0.176,0 0.32,0.432 0.32,0.96 0,0.528 0.144,0.96 0.32,0.96 0.176,0 0.32,0.36 0.32,0.8 0,0.44 0.144,0.8 0.32,0.8 0.176,0 0.32,0.36 0.32,0.8 0,0.44 0.144,0.8 0.32,0.8 0.176,0 0.32,0.36 0.32,0.8 0,0.44 0.144,0.8 0.32,0.8 0.176,0 0.32,0.36 0.32,0.8 0,0.44 0.144,0.8 0.32,0.8 0.176,0 0.32,0.36 0.32,0.8 0,0.44 0.144,0.8 0.32,0.8 0.176,0 0.32,0.36 0.32,0.8 0,0.44 0.144,0.8 0.32,0.8 0.176,0 0.32,0.36 0.32,0.8 0,0.44 0.144,0.8 0.32,0.8 0.176,0 0.32,0.36 0.32,0.8 0,0.44 0.144,0.8 0.32,0.8 0.176,0 0.32,0.36 0.32,0.8 0,0.49779 0.18135,0.8 0.48,0.8 0.29866,0 0.48,0.30221 0.48,0.8 0,0.44 0.144,0.8 0.32,0.8 0.176,0 0.32,0.36 0.32,0.8 0,0.44 0.144,0.8 0.32,0.8 0.176,0 0.32,0.36 0.32,0.8 0,0.44 0.144,0.8 0.32,0.8 0.176,0 0.32,0.432 0.32,0.96 0,0.528 0.144,0.96 0.32,0.96 0.176,0 0.32,0.36 0.32,0.8 0,0.44 0.144,0.8 0.32,0.8 0.176,0 0.32,0.36 0.32,0.8 0,0.44 0.144,0.8 0.32,0.8 0.176,0 0.32,0.36 0.32,0.8 0,0.44 0.144,0.8 0.32,0.8 0.176,0 0.32,0.36 0.32,0.8 0,0.44 0.144,0.8 0.32,0.8 0.176,0 0.32,0.36 0.32,0.8 0,0.44 0.144,0.8 0.32,0.8 0.176,0 0.32,0.36 0.32,0.8 0,0.44 0.144,0.8 0.32,0.8 0.176,0 0.32,0.36 0.32,0.8 0,0.44 0.144,0.8 0.32,0.8 0.176,0 0.32,0.36 0.32,0.8 0,0.44 0.144,0.8 0.32,0.8 0.176,0 0.32,0.36 0.32,0.8 0,0.44 0.144,0.8 0.32,0.8 0.176,0 0.32,0.36 0.32,0.8 0,0.44 0.144,0.8 0.32,0.8 0.176,0 0.32,0.36 0.32,0.8 0,0.44 0.144,0.8 0.32,0.8 0.176,0 0.32,0.36 0.32,0.8 0,0.44 0.144,0.8 0.32,0.8 0.176,0 0.32,0.432 0.32,0.96 0,0.528 0.144,0.96 0.32,0.96 0.176,0 0.32,0.36 0.32,0.8 0,0.44 0.144,0.8 0.32,0.8 0.176,0 0.32,0.36 0.32,0.8 0,0.44 0.144,0.8 0.32,0.8 0.176,0 0.32,0.36 0.32,0.8 0,0.44 0.144,0.8 0.32,0.8 0.176,0 0.32,0.36 0.32,0.8 0,0.44 0.144,0.8 0.32,0.8 0.176,0 0.32,0.36 0.32,0.8 0,0.44 0.144,0.8 0.32,0.8 0.176,0 0.32,0.36 0.32,0.8 0,0.44 0.144,0.8 0.32,0.8 0.176,0 0.32,0.36 0.32,0.8 0,0.44 0.144,0.8 0.32,0.8 0.176,0 0.32,0.36 0.32,0.8 0,0.44 0.144,0.8 0.32,0.8 0.176,0 0.32,0.36 0.32,0.8 0,0.44 0.144,0.8 0.32,0.8 0.176,0 0.32,0.36 0.32,0.8 0,0.44 0.144,0.8 0.32,0.8 0.176,0 0.32,0.36 0.32,0.8 0,0.44 0.144,0.8 0.32,0.8 0.176,0 0.32,0.36 0.32,0.8 0,0.44 0.144,0.8 0.32,0.8 0.176,0 0.32,0.36 0.32,0.8 0,0.44 0.144,0.8 0.32,0.8 0.176,0 0.32,0.432 0.32,0.96 0,0.64 0.16,0.96 0.48,0.96 0.29866,0 0.48,0.30221 0.48,0.8 0,0.44 0.144,0.8 0.32,0.8 0.176,0 0.32,0.36 0.32,0.8 0,0.44 0.144,0.8 0.32,0.8 0.176,0 0.32,0.36 0.32,0.8 0,0.44 0.144,0.8 0.32,0.8 0.176,0 0.32,0.36 0.32,0.8 0,0.44 0.144,0.8 0.32,0.8 0.176,0 0.32,0.36 0.32,0.8 0,0.44 0.144,0.8 0.32,0.8 0.176,0 0.32,0.36 0.32,0.8 0,0.44 0.144,0.8 0.32,0.8 0.176,0 0.32,0.36 0.32,0.8 0,0.44 0.144,0.8 0.32,0.8 0.176,0 0.32,0.36 0.32,0.8 0,0.44 0.144,0.8 0.32,0.8 0.176,0 0.32,0.36 0.32,0.8 0,0.44 0.144,0.8 0.32,0.8 0.176,0 0.32,0.36 0.32,0.8 0,0.44 0.144,0.8 0.32,0.8 0.176,0 0.32,0.36 0.32,0.8 0,0.44 0.144,0.8 0.32,0.8 0.176,0 0.32,0.36 0.32,0.8 0,0.44 0.144,0.8 0.32,0.8 0.176,0 0.32,0.432 0.32,0.96 0,0.528 0.144,0.96 0.32,0.96 0.176,0 0.32,0.36 0.32,0.8 0,0.44 0.144,0.8 0.32,0.8 0.176,0 0.32,0.36 0.32,0.8 0,0.44 0.144,0.8 0.32,0.8 0.176,0 0.32,0.36 0.32,0.8 0,0.44 0.144,0.8 0.32,0.8 0.176,0 0.32,0.36 0.32,0.8 0,0.44 0.144,0.8 0.32,0.8 0.176,0 0.32,0.36 0.32,0.8 0,0.44 0.144,0.8 0.32,0.8 0.176,0 0.32,0.36 0.32,0.8 0,0.44 0.144,0.8 0.32,0.8 0.176,0 0.32,0.36 0.32,0.8 0,0.44 0.144,0.8 0.32,0.8 0.176,0 0.32,0.36 0.32,0.8 0,0.44 0.144,0.8 0.32,0.8 0.176,0 0.32,0.36 0.32,0.8 0,0.44 0.144,0.8 0.32,0.8 0.176,0 0.32,0.36 0.32,0.8 0,0.44 0.144,0.8 0.32,0.8 0.176,0 0.32,0.36 0.32,0.8 0,0.44 0.144,0.8 0.32,0.8 0.176,0 0.32,0.36 0.32,0.8 0,0.44 0.144,0.8 0.32,0.8 0.176,0 0.32,0.432 0.32,0.96 0,0.528 0.144,0.96 0.32,0.96 0.176,0 0.32,0.36 0.32,0.8 0,0.44 0.144,0.8 0.32,0.8 0.176,0 0.32,0.36 0.32,0.8 0,0.44 0.144,0.8 0.32,0.8 0.176,0 0.32,0.36 0.32,0.8 0,0.44 0.144,0.8 0.32,0.8 0.176,0 0.32,0.36 0.32,0.8 0,0.44 0.144,0.8 0.32,0.8 0.176,0 0.32,0.36 0.32,0.8 0,0.4978 0.18135,0.8 0.48,0.8 0.29866,0 0.48,0.3022 0.48,0.8 0,0.44 0.144,0.8 0.32,0.8 0.176,0 0.32,0.36 0.32,0.8 0,0.44 0.144,0.8 0.32,0.8 0.176,0 0.32,0.36 0.32,0.8 0,0.44 0.144,0.8 0.32,0.8 0.176,0 0.32,0.36 0.32,0.8 0,0.44 0.144,0.8 0.32,0.8 0.176,0 0.32,0.36 0.32,0.8 0,0.44 0.144,0.8 0.32,0.8 0.176,0 0.32,0.36 0.32,0.8 0,0.44 0.144,0.8 0.32,0.8 0.176,0 0.32,0.36 0.32,0.8 0,0.44 0.144,0.8 0.32,0.8 0.176,0 0.32,0.36 0.32,0.8 0,0.44 0.144,0.8 0.32,0.8 0.176,0 0.32,0.432 0.32,0.96 0,0.528 0.144,0.96 0.32,0.96 0.176,0 0.32,0.36 0.32,0.8 0,0.44 0.144,0.8 0.32,0.8 0.176,0 0.32,0.36 0.32,0.8 0,0.44 0.144,0.8 0.32,0.8 0.176,0 0.32,0.36 0.32,0.8 0,0.44 0.144,0.8 0.32,0.8 0.176,0 0.32,0.36 0.32,0.8 0,0.44 0.144,0.8 0.32,0.8 0.176,0 0.32,0.36 0.32,0.8 0,0.44 0.144,0.8 0.32,0.8 0.176,0 0.32,0.36 0.32,0.8 0,0.44 0.144,0.8 0.32,0.8 0.176,0 0.32,0.36 0.32,0.8 0,0.44 0.144,0.8 0.32,0.8 0.176,0 0.32,0.36 0.32,0.8 0,0.44 0.144,0.8 0.32,0.8 0.176,0 0.32,0.36 0.32,0.8 0,0.44 0.144,0.8 0.32,0.8 0.176,0 0.32,0.36 0.32,0.8 0,0.44 0.144,0.8 0.32,0.8 0.176,0 0.32,0.36 0.32,0.8 0,0.44 0.144,0.8 0.32,0.8 0.176,0 0.32,0.36 0.32,0.8 0,0.44 0.144,0.8 0.32,0.8 0.176,0 0.32,0.432 0.32,0.96 0,0.528 0.144,0.96 0.32,0.96 0.176,0 0.32,0.36 0.32,0.8 0,0.44 0.144,0.8 0.32,0.8 0.176,0 0.32,0.36 0.32,0.8 0,0.44 0.144,0.8 0.32,0.8 0.176,0 0.32,0.36 0.32,0.8 0,0.44 0.144,0.8 0.32,0.8 0.176,0 0.32,0.36 0.32,0.8 0,0.44 0.144,0.8 0.32,0.8 0.176,0 0.32,0.36 0.32,0.8 0,0.44 0.144,0.8 0.32,0.8 0.176,0 0.32,0.36 0.32,0.8 0,0.44 0.144,0.8 0.32,0.8 0.176,0 0.32,0.36 0.32,0.8 0,0.44 0.144,0.8 0.32,0.8 0.176,0 0.32,0.36 0.32,0.8 0,0.44 0.144,0.8 0.32,0.8 0.176,0 0.32,0.36 0.32,0.8 0,0.44 0.144,0.8 0.32,0.8 0.176,0 0.32,0.36 0.32,0.8 0,0.4978 0.18135,0.8 0.48,0.8 0.29866,0 0.48,0.3022 0.48,0.8 0,0.44 0.144,0.8 0.32,0.8 0.176,0 0.32,0.36 0.32,0.8 0,0.44 0.144,0.8 0.32,0.8 0.176,0 0.32,0.432 0.32,0.96 0,0.528 0.144,0.96 0.32,0.96 0.176,0 0.32,0.36 0.32,0.8 0,0.44 0.144,0.8 0.32,0.8 0.176,0 0.32,0.36 0.32,0.8 0,0.44 0.144,0.8 0.32,0.8 0.176,0 0.32,0.288 0.32,0.64 0,0.6396 -0.21334,0.64 -319.82572,0.64 H 23.068581 l 0.961992,-2.32 z"
       id="path219" />
  </g>
</svg>
