<?xml version="1.0" encoding="UTF-8" standalone="no"?>
<!-- Created with Inkscape (http://www.inkscape.org/) -->

<svg
   version="1.1"
   id="svg2"
   width="765.44"
   height="1089.28"
   viewBox="0 0 765.44 1089.28"
   sodipodi:docname="house_mono.svg"
   inkscape:version="1.2.2 (b0a8486541, 2022-12-01)"
   xmlns:inkscape="http://www.inkscape.org/namespaces/inkscape"
   xmlns:sodipodi="http://sodipodi.sourceforge.net/DTD/sodipodi-0.dtd"
   xmlns="http://www.w3.org/2000/svg"
   xmlns:svg="http://www.w3.org/2000/svg">
  <defs
     id="defs6" />
  <sodipodi:namedview
     id="namedview4"
     pagecolor="#ffffff"
     bordercolor="#666666"
     borderopacity="1.0"
     inkscape:showpageshadow="2"
     inkscape:pageopacity="0.0"
     inkscape:pagecheckerboard="0"
     inkscape:deskcolor="#d1d1d1"
     showgrid="false"
     inkscape:zoom="110.92832"
     inkscape:cx="0.54990467"
     inkscape:cy="1089.591"
     inkscape:window-width="1916"
     inkscape:window-height="1156"
     inkscape:window-x="0"
     inkscape:window-y="762"
     inkscape:window-maximized="1"
     inkscape:current-layer="g8" />
  <g
     inkscape:groupmode="layer"
     inkscape:label="Image"
     id="g8">
    <path
       style="fill:#000000;stroke-width:0.32"
       d="M 0.00400584,825.56863 V 561.85467 l 2.80001996,0.20167 c 1.54,0.11094 8.2719992,0.48163 14.9599992,0.82381 6.688,0.34214 13.21592,0.70576 14.50649,0.80803 1.89992,0.15053 2.32623,0.10185 2.24,-0.25584 -0.0586,-0.24298 -7.59449,-7.30531 -16.74649,-15.69408 -9.1519995,-8.3888 -16.77918916,-15.46259 -16.94929916,-15.71962 -0.22236,-0.33593 -0.11563,-0.67366 0.37973996,-1.20166 0.37896,-0.40391 21.6982192,-31.72899 47.3761392,-69.61133 l 46.68712,-68.87696 0.21315,-88.85625 c 0.11723,-48.87093 0.21638,-125.2283 0.22033,-169.68304 l 0.007,-80.826793 13.906425,-15.2 c 7.64853,-8.36 14.11725,-15.33818 14.37493,-15.50708 0.36512,-0.23932 3.32907,2.53213 13.43239,12.56 8.58092,8.51685 13.18499,12.86708 13.61788,12.86708 0.40614,0 0.65401,0.20939 0.65401,0.55248 0,0.30386 1.02712,1.5865 2.2825,2.85031 l 2.2825,2.29783 -1.80685,125.198683 c -0.99376,68.85927 -1.76733,125.23818 -1.71904,125.28647 0.0483,0.0483 46.45424,-68.29755 103.12434,-151.87965 L 358.88382,0.02128634 l 1.48829,-0.009 c 1.45843,-0.009 1.80713,0.22511 17.37206,11.67066066 8.73607,6.424 16.02231,11.68 16.19159,11.68 0.16931,0 8.46556,-4.536 18.43612,-10.08 9.97056,-5.5440006 18.28663,-10.0788507 18.48013,-10.0774407 0.19351,10e-4 1.50381,1.8722501 2.91181,4.1574401 1.408,2.28519 2.668,4.1560406 2.8,4.1574506 0.132,10e-4 0.24,0.15354 0.24,0.33809 0,0.28113 1.82534,3.30334 5.59555,9.26446 0.3896,0.616 1.1513,1.84 1.69261,2.72 0.54134,0.88 1.17498,1.8199 1.40806,2.08867 0.23306,0.26877 0.85018,1.31277 1.37133,2.32 0.52119,1.00723 1.02519,1.83298 1.12,1.835 0.0949,0.002 0.44762,0.57802 0.78394,1.28 0.33632,0.70198 0.73232,1.27633 0.88,1.27633 0.14768,0 0.26851,0.13458 0.26851,0.29907 0,0.16449 1.41674,2.57649 3.14829,5.36 2.87078,4.61488 67.79181,108.738173 99.82317,160.100933 7.29894,11.704 17.89216,28.696 23.54041,37.76 5.64826,9.064 10.38176,16.528 10.51885,16.58667 0.13712,0.0587 0.24928,0.23661 0.24928,0.39544 0,0.15883 3.21459,5.43883 7.14349,11.73334 3.92893,6.2945 14.18893,22.74507 22.8,36.55682 l 15.65651,25.11227 0.19354,-55.99227 c 0.10643,-30.79575 0.21443,-85.95571 0.24,-122.57768 l 0.0465,-66.585423 15.69706,-18.61458 c 9.6,-11.38428 15.90796,-18.60983 16.24,-18.60235 0.34755,0.008 4.63097,5.83609 11.90294,16.19582 6.248,8.90097 11.54,16.25487 11.76,16.342 0.22,0.0871 0.4,0.32481 0.4,0.52818 0,0.20337 0.72,1.4319 1.6,2.73008 l 1.6,2.36032 0.004,16.995685 c 0.003,9.347618 0.36054,82.659678 0.79616,162.915678 0.43565,80.256 0.79386,149.664 0.79603,154.24 l 0.004,8.32 35.05056,56 c 19.27783,30.8 35.33376,56.39018 35.67987,56.86704 0.56816,0.78272 0.62928,1.40509 0.62884,6.4 v 5.53296 l -13.11863,7.2 c -7.21526,3.96 -12.90304,7.24656 -12.63949,7.30346 0.26352,0.0569 0.47914,0.35779 0.47914,0.6686 0,0.52109 0.67702,0.58157 8.692,0.77652 4.78058,0.11628 10.46858,0.21142 12.64,0.21142 h 3.948 v 261.76 261.76005 H 382.7245 0.00450584 V 825.56863 Z M 536.08402,1048.7563 l 188.08,-0.1933 V 828.44277 608.32261 h -338.88 -338.879995 l -0.0363,124.08 c -0.02,68.244 -0.0713,164.25603 -0.11404,213.36003 -0.0428,49.10398 -0.0106,92.48606 0.0716,96.40466 l 0.14934,7.1247 150.764695,-0.1711 c 82.92058,-0.094 235.40069,-0.2582 338.8447,-0.3646 z M 726.70997,563.17637 C 726.17589,562.17842 394.85554,27.107367 394.48143,26.638597 394.24514,26.342527 379.08639,48.871487 337.74616,110.95859 306.71911,157.5568 226.63049,277.83461 159.77144,378.24261 l -121.561895,182.56 22.89724,0.0983 c 12.59348,0.054 151.921235,0.71891 309.617235,1.47747 157.696,0.75856 302.38506,1.39834 321.53126,1.42173 l 34.81127,0.0425 z"
       id="path198" />
  </g>
</svg>
