<?xml version="1.0" encoding="utf-8"?>
<!-- Generator: Adobe Illustrator 13.0.1, SVG Export Plug-In  -->
<!DOCTYPE svg PUBLIC "-//W3C//DTD SVG 1.1//EN" "http://www.w3.org/Graphics/SVG/1.1/DTD/svg11.dtd" [
	<!ENTITY ns_flows "http://ns.adobe.com/Flows/1.0/">
]>
<svg version="1.1"
	 xmlns="http://www.w3.org/2000/svg" xmlns:xlink="http://www.w3.org/1999/xlink" xmlns:a="http://ns.adobe.com/AdobeSVGViewerExtensions/3.0/"
	 x="0px" y="0px" width="188px" height="159px" viewBox="-0.835 -0.645 188 159" enable-background="new -0.835 -0.645 188 159"
	 xml:space="preserve">
<defs>
</defs>
<path fill-rule="evenodd" clip-rule="evenodd" fill="#006CB7" d="M0,93.542c0-9.361,7.589-16.951,16.951-16.951
	c9.363,0,16.953,7.59,16.953,16.951c0,9.363-7.59,16.953-16.953,16.953C7.589,110.496,0,102.906,0,93.542L0,93.542z"/>
<path fill-rule="evenodd" clip-rule="evenodd" fill="#006CB7" d="M38.295,93.542c0-9.361,7.59-16.951,16.951-16.951
	c9.364,0,16.953,7.59,16.953,16.951c0,9.363-7.589,16.953-16.953,16.953C45.885,110.496,38.295,102.906,38.295,93.542L38.295,93.542
	z"/>
<path fill-rule="evenodd" clip-rule="evenodd" fill="#006CB7" d="M76.591,93.542c0-9.361,7.589-16.951,16.951-16.951
	c9.363,0,16.953,7.59,16.953,16.951c0,9.363-7.59,16.953-16.953,16.953C84.181,110.496,76.591,102.906,76.591,93.542L76.591,93.542z
	"/>
<path fill-rule="evenodd" clip-rule="evenodd" fill="#006CB7" d="M114.887,93.542c0-9.361,7.589-16.951,16.95-16.951
	c9.364,0,16.953,7.59,16.953,16.951c0,9.363-7.589,16.953-16.953,16.953C122.476,110.496,114.887,102.906,114.887,93.542
	L114.887,93.542z"/>
<path fill-rule="evenodd" clip-rule="evenodd" fill="#006CB7" d="M153.182,93.542c0-9.361,7.59-16.951,16.954-16.951
	c9.361,0,16.951,7.59,16.951,16.951c0,9.363-7.59,16.953-16.951,16.953C160.771,110.496,153.182,102.906,153.182,93.542
	L153.182,93.542z"/>
<path fill-rule="evenodd" clip-rule="evenodd" fill="#739DD3" d="M0,55.247c0-9.362,7.589-16.951,16.951-16.951
	c9.363,0,16.953,7.589,16.953,16.951c0,9.364-7.59,16.954-16.953,16.954C7.589,72.2,0,64.611,0,55.247L0,55.247z"/>
<path fill-rule="evenodd" clip-rule="evenodd" fill="#739DD3" d="M38.295,55.247c0-9.362,7.59-16.951,16.951-16.951
	c9.364,0,16.953,7.589,16.953,16.951c0,9.364-7.589,16.954-16.953,16.954C45.885,72.2,38.295,64.611,38.295,55.247L38.295,55.247z"
	/>
<path fill-rule="evenodd" clip-rule="evenodd" fill="#739DD3" d="M76.591,55.247c0-9.362,7.589-16.951,16.951-16.951
	c9.363,0,16.953,7.589,16.953,16.951c0,9.364-7.59,16.954-16.953,16.954C84.181,72.2,76.591,64.611,76.591,55.247L76.591,55.247z"/>
<path fill-rule="evenodd" clip-rule="evenodd" fill="#739DD3" d="M114.887,55.247c0-9.362,7.589-16.951,16.95-16.951
	c9.364,0,16.953,7.589,16.953,16.951c0,9.364-7.589,16.954-16.953,16.954C122.476,72.2,114.887,64.611,114.887,55.247
	L114.887,55.247z"/>
<path fill-rule="evenodd" clip-rule="evenodd" fill="#739DD3" d="M153.182,55.247c0-9.362,7.59-16.951,16.954-16.951
	c9.361,0,16.951,7.589,16.951,16.951c0,9.364-7.59,16.954-16.951,16.954C160.771,72.2,153.182,64.611,153.182,55.247L153.182,55.247
	z"/>
<path fill-rule="evenodd" clip-rule="evenodd" fill="#BFDCF3" d="M0,16.951C0,7.59,7.589,0,16.951,0
	c9.363,0,16.953,7.59,16.953,16.951c0,9.364-7.59,16.954-16.953,16.954C7.589,33.905,0,26.315,0,16.951L0,16.951z"/>
<path fill-rule="evenodd" clip-rule="evenodd" fill="#BFDCF3" d="M38.295,16.951C38.295,7.59,45.885,0,55.246,0
	c9.364,0,16.953,7.59,16.953,16.951c0,9.364-7.589,16.954-16.953,16.954C45.885,33.905,38.295,26.315,38.295,16.951L38.295,16.951z"
	/>
<path fill-rule="evenodd" clip-rule="evenodd" fill="#BFDCF3" d="M76.591,16.951C76.591,7.59,84.181,0,93.542,0
	c9.363,0,16.953,7.59,16.953,16.951c0,9.364-7.59,16.954-16.953,16.954C84.181,33.905,76.591,26.315,76.591,16.951L76.591,16.951z"
	/>
<path fill-rule="evenodd" clip-rule="evenodd" fill="#BFDCF3" d="M114.887,16.951C114.887,7.59,122.476,0,131.837,0
	c9.364,0,16.953,7.59,16.953,16.951c0,9.364-7.589,16.954-16.953,16.954C122.476,33.905,114.887,26.315,114.887,16.951
	L114.887,16.951z"/>
<path fill-rule="evenodd" clip-rule="evenodd" fill="#BFDCF3" d="M153.182,16.951C153.182,7.59,160.771,0,170.136,0
	c9.361,0,16.951,7.59,16.951,16.951c0,9.364-7.59,16.954-16.951,16.954C160.771,33.905,153.182,26.315,153.182,16.951
	L153.182,16.951z"/>
<path fill-rule="evenodd" clip-rule="evenodd" fill="#ED1C24" d="M40.379,135.989c0.037,5.508-3.554,12.065-4.778,13.29l6.161,6.161
	l-8.452,2.025l-3.431-3.607c-2.818,1.144-5.606,2.049-9.33,2.022c-11.305-0.089-20.917-9.21-20.488-20.508
	c0.413-10.808,9.323-19.053,20.134-19.067C31.192,116.293,40.306,124.995,40.379,135.989L40.379,135.989z M20.284,124.047
	c6.487,0.034,11.468,5.284,11.76,11.767c0.135,2.972-0.933,6.424-1.902,7.394l-2.992-3.346l-8.537,1.32l5.81,6.249
	c-1.176,0.329-2.886,0.704-4.754,0.616c-6.588-0.312-11.52-6.004-11.284-12.595C8.615,129.03,13.855,124.012,20.284,124.047
	L20.284,124.047z"/>
<polygon fill-rule="evenodd" clip-rule="evenodd" fill="#ED1C24" points="151.404,117.638 159.087,117.638 175.329,140.313 
	175.329,117.638 183.782,117.638 183.782,154.869 175.827,154.869 159.401,132.012 159.401,154.869 151.404,154.869 
	151.404,117.638 "/>
<polygon fill-rule="evenodd" clip-rule="evenodd" fill="#ED1C24" points="42.411,154.726 42.411,117.496 51.083,117.496 
	51.083,154.726 42.411,154.726 "/>
<polygon fill-rule="evenodd" clip-rule="evenodd" fill="#ED1C24" points="126.131,117.496 148.175,117.496 148.175,124.722 
	134.912,124.722 134.912,132.194 148.175,132.194 148.175,139.846 134.912,139.846 134.912,147.5 148.175,147.5 148.175,154.726 
	126.131,154.726 126.131,117.496 "/>
<path fill-rule="evenodd" clip-rule="evenodd" fill="#ED1C24" d="M65.725,117.496h10.155l14.086,37.23h-9.421l-2.653-6.677H63.439
	l-2.744,6.677h-9.332v-0.091L65.725,117.496L65.725,117.496z M70.756,127.285l4.573,13.721h-9.42L70.756,127.285L70.756,127.285z"/>
<path fill-rule="evenodd" clip-rule="evenodd" fill="#ED1C24" d="M122.478,125.986c-0.547-1.468-5.699-10.208-18.045-9.764
	c-12.962,0.467-19.246,11.615-18.984,20.075c0.354,11.458,8.696,19.72,19.784,19.72c9.147,0,19.796-5.712,19.595-20.839h-18.618
	v6.98l9.573,0.037c-1.779,4.617-6.286,5.95-10.373,5.947c-5.957-0.005-11.71-5.471-11.706-11.846
	c0.005-6.983,5.393-12.008,11.355-12.078c4.705-0.057,8.448,1.806,10.479,4.884L122.478,125.986L122.478,125.986z"/>
</svg>
