<?xml version="1.0"?>
<!DOCTYPE svg PUBLIC "-//W3C//DTD SVG 1.1//EN" "http://www.w3.org/Graphics/SVG/1.1/DTD/svg11.dtd">
<svg width="16.83mm" height="47.83mm" viewBox="0 0 16.83 47.83" xmlns="http://www.w3.org/2000/svg" version="1.1">
<g id="Sketch" transform="translate(0.165000,47.665000) scale(1,-1)">
<path id="Sketch_w0000"  d="M 9.278988546667684 33.38039878946164 L 9.1 35.5 C 11.43812 36.858334 13.412234 39.367802 13.5 47.5 L 0.0 44.5 L 0.0 35.5 L 0.0 13.0 L 0.0 0.0 L 16.5 0.0 C 15.811511 9.492652 13.6748 12.0129 11.0 13.0 L 10.63835118688032 17.282683313259376 A 0.75 0.75 0 0 0 10.5121 18.7774L 10.262013964658097 21.739308313259375 A 0.75 0.75 0 1 0 10.1358 23.234L 9.801461311324763 27.193221313259375 A 0.75 0.75 0 0 0 9.67524 28.6879L 9.40519064785008 31.885900222827985 A 0.75 0.75 0 1 0 9.27899 33.3804" stroke="#000000" stroke-width="0.35 px" style="stroke-width:0.35;stroke-miterlimit:4;stroke-dasharray:none;stroke-linecap:square;fill:none;fill-opacity:1;fill-rule: evenodd"/>
<title>b'Sketch'</title>
</g>
</svg>