<?xml version="1.0" encoding="UTF-8" standalone="no"?>
<!-- Created with Inkscape (http://www.inkscape.org/) -->

<svg
   version="1.1"
   id="svg2"
   width="314.88"
   height="217.64"
   viewBox="0 0 314.88 217.64"
   sodipodi:docname="03_vector_simplified.svg"
   inkscape:version="1.2.2 (b0a8486541, 2022-12-01)"
   xmlns:inkscape="http://www.inkscape.org/namespaces/inkscape"
   xmlns:sodipodi="http://sodipodi.sourceforge.net/DTD/sodipodi-0.dtd"
   xmlns="http://www.w3.org/2000/svg"
   xmlns:svg="http://www.w3.org/2000/svg">
  <defs
     id="defs6" />
  <sodipodi:namedview
     id="namedview4"
     pagecolor="#ffffff"
     bordercolor="#666666"
     borderopacity="1.0"
     inkscape:showpageshadow="2"
     inkscape:pageopacity="0.0"
     inkscape:pagecheckerboard="0"
     inkscape:deskcolor="#d1d1d1"
     showgrid="false"
     inkscape:zoom="6.1340636"
     inkscape:cx="93.738839"
     inkscape:cy="89.581725"
     inkscape:window-width="1916"
     inkscape:window-height="1156"
     inkscape:window-x="0"
     inkscape:window-y="762"
     inkscape:window-maximized="1"
     inkscape:current-layer="g8" />
  <g
     inkscape:groupmode="layer"
     inkscape:label="Image"
     id="g8">
    <path
       style="fill:#000000;stroke-width:0.04"
       d="m 45.841732,218.16744 c -2.766995,-2.49573 -7.265287,-1.15588 -10.801254,-1.03265 -3.158753,-1.96386 -8.279583,-0.30656 -12.02145,-1.74958 -6.490523,-1.04283 -13.2825853,3.67339 -19.3258555,0.48021 2.2327509,-2.95894 2.3846602,-7.66461 1.619058,-12.70907 -0.088584,-10.81657 -2.1860773,-21.5873 -1.591708,-32.41032 -1.142963,-11.19038 -4.61020618,-22.19811 -3.84838695,-33.62074 -0.65037791,-6.91499 1.45094375,-14.23337 0.9835791,-20.88962 -0.32265629,-3.11969 1.07093705,-7.01913 1.35610185,-10.6 C 4.5868459,93.018894 3.9601991,79.90967 4.2967315,67.275667 0.35371412,63.744624 7.8695044,59.334574 4.0246935,55.604479 5.6438995,48.771403 4.2704249,41.062848 5.0878075,33.843757 5.1729609,28.615007 4.4001006,23.110184 4.4450685,18.331226 6.5727011,14.936599 1.353558,14.319486 2.7898825,11.696202 4.6550202,9.7069217 6.0119255,9.7540544 8.3917705,9.0556123 6.3566367,3.7433739 16.808821,5.9852121 19.954956,5.3767093 c 1.199115,-3.8287835 5.668983,2.3236382 6.836821,-0.901109 4.861793,-0.293814 9.464796,-0.2200147 14.66,-1.00883 13.16063,-0.8684118 26.196562,-1.344897 39.379998,-0.579248 15.035065,1.1372026 30.068535,0.4681305 45.070265,-0.591402 13.8978,-1.1503605 27.86211,0.7498944 41.66973,-1.668346 15.86711,-1.15707376 31.18284,3.7274139 46.9449,3.937418 10.84899,-0.8537075 21.83244,-0.6741364 32.70274,-0.571567 13.55535,1.5899526 27.38807,-0.3285614 40.90189,0.983937 4.90322,-0.1308245 12.31162,-2.2922593 15.67275,2.136774 2.70022,5.6374137 1.46367,12.3128107 3.81278,18.1214067 2.49883,8.663577 -2.55609,17.435763 0.58576,26.06 1.98236,6.997936 1.2504,14.196627 2.19009,21.35998 -1.14462,10.153702 2.84932,19.98357 1.09895,30.120567 0.79958,12.4191 -4.3158,24.55655 -1.6129,36.93943 0.33003,19.15044 -0.64434,38.32382 1.56392,57.36808 0.0211,6.60605 -2.37436,13.02467 -1.51285,19.57192 -1.47713,2.2871 -6.1253,1.57279 -8.29895,-0.0158 -2.50647,-2.3027 -5.36015,0.63869 -7.83094,-1.73546 -4.16716,-0.3409 -8.16565,0.57874 -11.95976,-1.37188 -5.08548,-0.16949 -9.83026,1.22352 -14.77817,1.74058 -13.19366,1.04092 -26.68298,-0.29521 -39.59009,-1.55903 -3.49345,0.12606 -6.87814,2.47997 -10.42922,3.74201 -7.17481,1.72896 -15.55688,0.24588 -23.22836,0.73996 -25.08531,-0.13029 -50.69174,0.26054 -75.45164,-0.19515 -5.6806,-0.53564 -11.48822,0.67578 -17.6152,0.19353 -18.298496,-0.007 -36.598012,0.006 -54.895738,-0.0271 z m 10.882196,-3.6583 c 5.395623,-0.002 11.238902,0.49965 16.114892,-2.25341 -0.197551,-4.94343 -1.88099,-12.63659 3.71315,-15.34309 5.425195,-0.62766 10.27181,2.91034 15.65288,2.58335 1.443038,-5.75714 -1.124844,-9.05368 -6.73307,-7.1803 -3.756726,-3.79516 -7.800793,-8.47362 -13.15965,-9.36074 -2.065876,2.33995 -1.315813,7.83487 -5.04566,7.90193 -5.707338,-4.59418 -8.743983,-11.2453 -12.5305,-17.38121 -1.129855,1.91222 1.506299,6.20935 0.661771,8.95525 1.138968,2.79895 -1.111855,9.97407 -4.925621,6.58476 -3.556498,-1.32952 -8.832218,-3.75084 -11.80891,-0.22067 1.589621,3.83656 -1.663387,4.77778 -3.11105,7.09587 -0.99249,2.51488 -3.309816,5.26021 -0.239994,7.22821 2.27015,2.93583 3.902809,6.62116 3.285665,10.49464 6.028751,0.37906 12.099589,0.59402 18.126097,0.89541 z m 19.767462,0.003 c 9.992441,-1.78069 20.129288,0.19466 30.05104,-1.7977 11.12008,-0.43388 23.13629,1.31526 33.7983,-0.55781 -5.08579,-3.3309 -9.24023,-8.35228 -13.10123,-13.20001 -3.35399,-3.8061 -7.62231,-7.23815 -12.85911,-7.43999 1.18617,2.94577 3.46199,7.52035 -0.22767,9.53631 2.71871,3.581 -1.99251,5.20663 -3.26457,1.42374 -3.14327,1.69964 -4.98801,5.52948 -7.93554,7.05406 -2.5382,-1.14866 0.19173,-4.94815 -3.20715,-6.1741 -2.507851,-2.88133 3.51961,-3.12416 1.40971,-6.06207 1.91423,-4.06741 -4.825514,-6.96109 -5.75215,-3.72111 -0.191502,2.38481 1.311162,5.15257 -0.4741,6.83633 -1.311349,5.31327 -7.730061,1.2054 -11.28894,0.73249 -2.615599,-0.6218 -7.770254,-2.69187 -8.20794,1.43438 -0.905795,3.79878 1.051065,9.51326 0.12938,12.004 l 0.92965,-0.0673 z m -65.859658,-0.53521 c 7.242987,-2.60879 15.256587,-0.89868 22.28,-0.93736 -1.625889,-3.41129 -1.929614,-7.56379 -3.581534,-10.72394 -2.038953,2.34543 -2.997456,8.57777 -7.178806,6.71986 -6.533019,-4.36989 -7.47015,-12.96182 -8.073917,-20.03319 -1.084175,-3.7743 -0.211156,-7.23012 0.80364,-10.8287 -2.757689,-1.34331 -5.1324388,-3.67038 -8.0523405,-4.52774 -0.7663144,12.43559 1.8434145,24.76062 1.286008,37.23 0.064081,1.05504 -0.7055125,5.26096 2.5169495,3.10107 z m 290.449028,-1.02077 c 2.64729,0.006 2.82252,-1.59464 1.19024,-3.32061 -3.31744,-5.41768 -8.90968,-10.59832 -15.65259,-9.25628 -6.43216,-2.16456 -9.00843,-12.9091 -2.96655,-16.73607 4.14794,-0.80767 11.24373,-0.13575 7.53982,-5.90902 -1.72919,-3.08115 -4.18706,-7.32203 -7.73411,-7.80374 -1.18414,5.50892 -1.95487,11.38578 -5.46366,15.94511 -1.4269,3.35881 -3.86858,-1.85576 -4.94217,-3.3603 -2.43521,-2.82005 -3.62311,-7.08597 -6.9724,-8.80182 -6.60805,-3.3613 -3.1882,4.84876 -5.40768,8.42594 0.90594,2.60947 -3.27319,2.92451 -3.057,0.0801 -1.24404,-1.68302 -2.54332,-6.46426 -4.80291,-3.30377 -6.89866,-1.82208 -3.43662,4.11869 -5.48732,7.64 -3.12457,-1.61082 -4.4312,-6.13205 -6.85277,-8.92635 -0.71997,-2.38073 -2.5195,-3.18511 -3.97279,-0.71358 -2.72089,2.15611 -6.1067,-2.69599 -8.38714,-2.17519 2.32516,5.15931 4.04633,10.63244 6.56001,15.65934 2.2704,3.33506 -3.8143,4.04136 -5.67998,5.76862 -7.26713,0.51471 -15.12907,1.21897 -21.96813,-0.92908 -2.67327,0.38633 -4.61681,-0.71128 -4.89725,-3.77621 1.18434,-5.38051 -0.74592,-4.04577 -3.614,-1.77622 -3.96618,1.28477 -8.48855,2.62188 -11.08007,5.87505 0.24333,3.33904 7.26021,5.50537 3.3296,8.63163 -2.34408,1.6501 -5.5146,2.01942 -7.80965,3.46893 4.34992,2.96584 13.89402,-0.29631 20.15311,1.80992 12.57499,1.79274 25.41409,0.67695 38.00688,2.72404 11.40164,0.6434 23.03773,1.36254 34.21074,-1.01033 7.82719,-0.75256 15.45863,1.38541 23.34162,1.53081 0.79761,0.0873 1.61348,0.46482 2.41615,0.23906 z m -154.26132,-1.40809 c 1.48229,-1.89125 6.69953,-3.33837 4.71275,-6.09474 -1.63982,-5.14237 3.20652,-2.57534 4.69714,-5.72606 2.54238,-3.14939 -4.16044,-4.92052 -0.8165,-7.93148 -3.05043,-0.12166 -4.45002,-5.28161 -0.3418,-3.8126 0.10252,-2.26237 4.29506,-1.87598 4.20544,-3.55095 -1.97245,-1.75002 -4.63339,-4.89441 -3.34754,-7.58283 3.21628,-1.23956 2.96273,4.47186 5.76741,5.38371 2.71532,1.63336 5.63993,4.99935 8.25547,5.46512 0.29278,-1.77396 2.41284,-2.84806 -0.13563,-4.04677 -6.54762,-4.9508 -12.57482,-10.54826 -19.25012,-15.13427 -9.23687,6.27469 -21.33189,3.77874 -31.42244,1.11725 -3.45152,-1.29537 -5.88843,-4.51151 -9.29183,-5.65804 -0.009,4.40562 2.67484,12.47039 -3.73351,13.26619 -1.55007,0.96797 -6.941457,-2.51853 -5.75032,-0.45626 4.79531,5.46635 10.39982,10.69353 17.91192,11.59193 8.68997,3.15596 13.47948,11.65159 19.88339,17.73571 2.86673,1.68213 5.55981,4.62033 8.65617,5.43409 z m 7.75229,-0.21784 c 8.1139,1.21832 -2.6458,-5.66703 -2.86005,0.0604 l 0.13,0.0165 2.73,-0.0769 z m 152.35731,-1.04456 c 3.44428,-14.03735 -1.02091,-28.44338 0.35986,-42.69 -0.31057,-12.35717 0.40584,-24.76845 -1.13605,-37.03973 -1.20141,-4.39482 5.75723,-15.8022 -2.71956,-13.22427 -3.42311,-0.62462 -4.46068,3.3474 -7.90375,3.67481 -1.99043,1.50157 -8.17625,0.47897 -5.94885,4.14565 0.97069,3.19364 1.44348,6.78595 5.21614,7.97057 2.48068,0.3866 4.65758,4.74197 0.97415,4.77363 -4.17616,-0.45416 -7.31228,-3.54047 -11.49925,-3.94074 1.38514,5.75596 -0.11877,12.98703 -4.91035,16.62806 -4.88383,-1.37932 -10.08265,-2.09264 -15.12938,-2.53608 0.13392,5.45994 8.33206,1.40953 11.78433,3.38922 5.36752,0.61809 -1.01558,3.2618 1.07735,5.26005 3.45553,3.4647 0.21282,8.3711 -3.06126,10.45033 3.21233,1.47934 2.30445,5.76057 -1.16037,6.08556 -3.53323,0.30731 -1.53839,2.36609 -0.19815,4.0849 1.5681,1.26153 2.30012,5.61289 4.34093,5.13326 3.98477,-4.19049 2.43506,-10.90493 5.17716,-15.57119 6.25289,0.3512 10.24398,6.73966 12.32148,12.0715 1.43761,3.1447 0.89708,7.55133 -3.42662,6.8242 -3.78971,0.0518 -10.18025,0.55085 -7.49445,6.42141 0.35611,5.17022 5.94933,4.42631 9.61995,5.32001 6.35845,1.90592 9.70155,8.61349 13.69068,13.03998 l 0.0266,-0.27 z M 182.33537,204.3761 c 1.83621,-0.84922 5.59868,-1.09845 5.84188,-3.14382 -2.61629,-1.81887 -5.74644,-6.80345 -2.19368,-9.00393 -1.47586,-3.57066 -7.83514,-5.46882 -6.50795,-9.71269 2.72786,-0.39812 2.35804,-2.06206 4.60055,-2.79153 4.08167,1.13641 9.0228,-0.6655 8.59652,-5.35045 0.26709,-2.4222 0.97607,-8.08111 4.288,-7.60357 1.06671,0.98467 5.26047,4.00311 2.70734,0.9426 -1.40545,-2.16783 -3.57618,-3.42144 -5.79631,-4.08355 -0.0343,-2.10549 -2.13587,-4.93309 -3.93378,-4.94345 -1.92109,6.95632 -6.4878,15.27004 -14.57827,15.58361 -3.70962,-1.62935 -5.17943,-6.33913 -9.02768,-8.15501 -3.41907,-1.74308 -6.33673,-4.47833 -9.38287,-6.39864 -0.8297,2.43499 -2.72165,4.69602 -3.40122,6.90859 9.56207,7.92511 19.56523,15.72574 28.88046,24.15548 -0.68629,4.33045 -4.56947,0.67136 -6.91633,-0.12411 -1.4751,0.81501 1.94082,3.12415 2.88479,4.12505 1.9734,1.55905 2.16384,3.91179 1.41731,5.93497 0.80313,1.07371 0.91201,3.76513 2.52124,3.66045 z m -13.62425,-1.83043 c -2.36964,-1.36681 -5.84103,-3.40039 -8.43939,-3.88344 -3.93723,4.87904 -0.96536,3.34917 4.16,3.67126 1.27706,-0.006 3.42306,0.8749 4.27939,0.21218 z m 51.76061,-8.74537 c 3.04197,-0.88536 10.35245,0.26749 10.69538,-3.66454 -1.86125,-6.32522 -5.31241,-12.51008 -7.11148,-18.52 -2.09833,-0.93445 -4.81356,-3.26793 -6.77824,-2.49468 -0.0659,3.2615 -3.72457,3.2186 -5.70555,3.25994 -1.33484,1.79815 -3.7667,3.5006 -5.40052,1.00804 -2.79097,-1.845 -2.06489,-0.25049 -0.7396,1.65819 1.79159,2.94954 -1.96084,4.71083 -0.59725,7.92516 -0.38703,3.14916 -3.01901,8.77518 1.59852,9.90585 4.65117,0.56187 9.35275,0.90175 14.03874,0.92204 z m -120.13242,-4.15059 c 4.40086,0.52457 2.49009,-0.93405 3.25771,-3.82458 -0.0827,-3.3678 -4.29599,-5.23383 -6.35204,-7.64882 -1.28338,-1.29155 -3.888088,-5.87237 -5.05319,-2.42236 -1.609285,4.75455 -5.412143,-0.37589 -8.42201,-0.39304 -3.4439,-1.21193 -8.492683,1.42179 -8.98557,4.82003 4.933379,1.64535 8.414289,5.81635 12.25284,8.82903 5.40144,2.9573 2.527005,-6.02821 6.77458,-4.06323 3.505024,1.76668 -2.139696,4.19899 2.45989,4.3318 1.344236,0.006 2.755744,0.66377 4.06779,0.37117 z m -32.50758,-3.44515 c 0.725277,-2.07385 2.550317,-4.06933 1.27998,-6.02654 0.906214,-2.65009 4.158652,-1.1549 5.48005,-4.24727 3.58672,-5.02111 10.372354,-4.01191 15.29126,-1.70368 2.850861,-1.74025 -3.514355,-5.59798 0.9038,-6.65218 2.234915,-0.39365 0.593909,-5.1259 -0.35418,-6.77108 -1.972963,-3.53169 -5.143394,-6.56831 -6.81652,-10.04797 -1.328898,3.90264 0.533791,11.65237 -4.61103,13.7764 -3.176933,-3.38363 -2.969933,-8.98525 -4.95149,-13.23655 -0.361246,-2.73467 -1.982897,-4.9545 -2.87299,-1.16304 0.0462,2.74371 -4.511486,1.97967 -2.30263,4.4256 1.489938,1.59734 1.415416,6.08702 -1.54745,4.93746 -3.356906,-2.4504 -5.990525,-5.49742 -7.430798,-9.42762 -2.258775,-5.92582 -8.305832,-8.79907 -12.624484,-13.11243 -2.99179,-0.6135 -4.729909,-3.62104 -7.654808,-5.04547 -7.713885,-3.82165 -14.884016,-9.41928 -24.019296,-9.29503 -4.633549,0.0404 -7.4705651,-4.3059 -11.6291165,-5.23952 -1.5646703,13.26926 -2.2077618,27.00838 0.522056,40.58001 0.9509533,4.02127 1.4224325,8.47506 2.516107,12.2371 3.2249545,1.56208 6.1846265,4.30072 9.5168755,5.19275 1.398264,-1.84842 4.386967,-3.04901 1.459875,-5.0829 -1.606636,-3.78985 -8.6220948,-2.93618 -7.91257,-7.98703 2.572583,-2.5759 5.73093,4.0622 8.437401,1.97009 -2.01643,-4.21257 -3.856206,-8.552 -8.19976,-11.46882 -3.081161,-5.35417 -1.36155,-12.49401 -2.2799985,-18.51595 0.8366097,-4.13005 3.9211475,0.14705 5.9999935,0.9655 1.781938,1.69542 4.75646,3.07232 6.8,1.62689 -1.516073,-2.33669 1.956569,-4.7244 3.119987,-1.72185 4.484521,4.48879 10.5843,7.92454 13.47999,13.6444 -0.963098,3.65442 -4.580451,-0.73922 -6.313825,1.17267 -3.951031,-0.65362 -0.532818,3.09881 0.581862,4.45813 2.170515,1.12729 3.966844,3.93282 6.148989,4.36768 1.280295,-3.0104 4.383172,-5.10526 2.302997,-8.70562 -1.019012,-3.99904 3.636408,-3.33919 4.520006,-0.31844 7.15407,9.80131 11.442873,21.17475 18.236389,31.18973 1.009401,2.0697 2.648317,4.82738 4.923328,5.22458 z M 30.261939,175.42567 c 2.003683,-3.26897 -3.281528,-4.58021 -4.573576,-7.04799 -0.661044,-2.34598 -6.463522,-3.74362 -4.096748,-0.31836 2.010932,2.7486 3.393242,6.329 7.034574,6.72896 0.484908,0.29114 1.02078,0.82536 1.63575,0.63739 z m 76.069791,-1.52111 c 3.29613,-1.11528 0.54799,-6.03631 0.94073,-8.62917 -1.34747,-3.51511 2.71409,-6.22686 5.29823,-3.50293 3.83349,3.61915 8.21926,6.74597 13.70268,6.88473 7.1286,1.26321 15.06207,1.78802 21.54119,-1.77088 -0.52783,-4.13042 2.72363,-2.10645 4.27759,-3.44059 2.13118,-2.14757 2.11246,-7.92876 5.90977,-7.09021 5.38909,5.2909 13.20036,7.6691 17.11696,14.42476 2.76245,3.82739 6.11788,-1.48641 8.19283,-3.48387 1.41833,-2.1871 3.84523,-5.32186 2.69334,-7.27772 1.69385,-2.20365 1.32723,-5.63548 -1.35023,-6.98433 -5.16753,-4.98845 -9.03042,-11.54792 -10.86652,-18.36058 1.33192,-2.68692 -3.29205,-3.99063 -4.95951,-5.76936 -3.30015,-2.8991 -7.95924,-4.06947 -11.83698,-1.59194 -1.44018,1.52916 -3.94329,-0.24026 -3.99999,2.04588 -0.99114,4.14396 -1.76882,9.42603 -5.40543,11.99238 -4.6227,0.23766 -8.76469,2.66055 -13.4499,2.66104 2.00304,0.79162 11.07654,2.51622 3.19533,4.4134 -1.03719,1.40847 1.81714,5.78045 -2.99683,5.41126 -2.65278,0.68891 -5.54742,0.95289 -5.13589,4.3602 -3.25353,3.34181 -8.60703,1.68377 -12.34776,3.01876 -1.59355,-2.45925 -1.91266,-5.63418 -1.85796,-8.41767 -3.16614,-1.78079 1.90362,-3.70321 -1.04143,-5.57523 -0.66898,-1.05192 -3.49493,-3.37351 -0.71003,-4.18631 0.1598,-3.54374 1.31907,-7.15493 -3.24611,-7.51992 -3.44642,-1.33085 -6.30362,-4.84748 -9.65783,-5.54001 -2.018883,2.18782 -0.648465,8.25654 -2.24077,11.63111 -1.50935,1.36286 -2.116627,5.88141 -4.94531,4.60838 -1.913997,-3.63464 -6.954931,-3.35786 -10.31696,-5.25934 -1.584186,-0.0225 -6.285268,1.10102 -5.30207,-1.90776 2.579602,-0.85685 3.409737,-1.5406 0.48897,-3.33261 -4.082088,-3.19768 -8.185674,-6.59234 -12.9491,-8.22966 -1.460492,-3.43048 -2.787882,-7.59134 -6.967898,-8.74867 -1.662153,-0.3983 -4.360971,-4.87524 -5.068488,-2.44418 -1.252492,5.93611 -3.415292,11.79657 -4.877414,17.6263 3.513019,2.51205 6.467151,6.25947 10.233888,8.06643 3.314157,0.1276 6.596956,2.74347 9.238962,4.97295 2.537627,3.34547 2.323553,-2.76609 3.40008,-4.38757 2.246892,-3.37093 4.104293,2.46658 4.87999,4.29387 1.843371,4.13295 2.316652,9.42413 4.47883,12.89091 1.315358,-4.62263 0.0779,-9.76052 1.53126,-14.31961 2.905813,-1.7998 4.120501,3.42531 5.50989,5.38984 2.524576,5.11949 8.034751,9.24052 7.044365,15.66623 -0.787916,4.11336 4.347905,5.83017 7.495755,7.18433 1.43633,0.24486 2.89585,0.48397 4.35977,0.22736 z M 49.806032,172.3898 c 0.09632,-3.67256 -4.680355,-7.44134 -7.238854,-4.11415 -5.146207,2.53108 1.158344,3.52931 4.323536,3.32137 0.900852,0.0324 2.360471,1.44816 2.915318,0.79278 z m 0.2257,-7.80523 c -1.670272,-3.01629 -3.295063,-6.82009 -5.801422,-9.0326 -2.613786,7.85186 1.027639,7.5636 5.801388,9.28359 v -0.2511 z m 184.574788,-0.5189 c -1.06764,-2.25275 -3.57181,-4.68202 -5.98005,-5.26999 -3.11464,3.08823 2.16762,3.58096 4.31412,4.74416 0.47063,0.12396 1.14347,0.77377 1.66593,0.52583 z m -9.992,-4.08002 c 2.13082,-2.98218 3.87986,-6.45534 5.324,-9.56714 -1.96683,-1.154 -3.70639,-6.88709 0.21314,-5.14671 2.14782,2.17794 5.00227,2.1537 7.76516,2.16284 4.77605,2.02885 7.03718,7.31194 9.64914,11.23265 0.90705,-2.50032 3.74592,-0.1339 3.92278,-3.38279 1.97068,-3.35723 5.92477,0.82475 8.42759,1.72268 1.6662,0.7085 4.52913,-4.83126 0.42296,-4.10519 -2.45705,-2.11679 2.59967,-2.98352 0.9316,-5.80643 0.069,-4.73623 5.69361,-1.93882 8.54461,-1.83967 3.36705,-0.8978 9.32537,4.1249 10.69636,-0.95529 2.78278,-4.35353 -0.46378,-9.39159 0.58009,-13.76137 1.57505,-2.05168 5.2708,1.35224 6.72726,0.27892 0.70987,-3.5329 -3.1689,-6.31581 -2.4454,-9.48756 1.90804,-2.9705 7.49676,-1.32273 9.2799,-4.05517 -0.52234,-2.03548 1.16358,-4.33563 -0.62146,-6.49661 -1.20103,-2.49471 -0.94089,-5.73252 -4.29774,-6.44047 -1.74434,-1.16223 -4.41622,-2.69974 -6.18231,-1.90145 1.07937,4.50328 2.98496,9.28732 -0.0797,13.30004 -2.25004,3.37629 -3.98606,-1.71536 -6.46283,-2.32118 -2.88166,-1.01709 -6.01374,-3.46787 -8.53795,-3.18431 2.73388,3.7292 -0.64116,7.81535 -3.37544,10.12046 0.18257,2.3155 -0.11874,9.41013 -3.87913,5.98186 -2.49395,-1.86063 -5.43888,-2.64263 -8.54017,-3.47213 -1.23611,-0.96985 -2.94811,-4.83229 -3.75593,-1.50603 -1.3808,2.91959 -4.64477,4.51315 -3.83271,8.3489 -1.42757,1.78794 -6.06834,0.28674 -8.69659,-0.29878 -3.14137,-0.19528 -7.29609,-4.78893 -2.91543,-6.2022 1.8244,-1.10738 5.47712,-0.60587 6.08505,-2.79334 -4.41278,-1.09797 -6.71267,0.8755 -9.5366,2.8624 -2.37447,-1.17767 -3.07318,3.34006 -5.44894,0.18906 -2.66627,-1.2971 -1.66775,5.31512 -1.30272,7.19428 0.007,3.20112 5.73872,7.08012 2.19478,9.86733 -4.06189,1.07565 -9.06993,-2.51442 -12.34433,-1.6973 1.2634,6.01848 3.79317,11.50546 6.70599,16.88998 0.74295,2.51879 1.56063,4.73736 4.78496,4.26972 z M 122.19173,141.83537 c 2.15121,-0.42284 5.4601,-0.76341 6.8,-1.87737 -1.32592,-1.51295 -1.62794,-3.32731 -4.1199,-1.73705 -1.38544,-0.12464 -7.0521,4.58464 -2.6801,3.61442 z m 14.11984,-1.15962 c 3.80605,-1.01903 7.98977,-1.50877 11.52757,-3.05199 2.64838,-6.10937 3.74478,-12.93025 3.50964,-19.54054 -1.20291,-3.76389 -0.88905,-8.54567 -2.57932,-11.78421 -3.42775,2.01859 -11.80122,-2.62208 -11.73799,2.50712 -3.19275,3.08247 -1.79525,-3.59018 -4.63974,-2.97108 -2.53121,0.0654 -7.46172,-2.89103 -8.48631,-0.65395 -1.24735,5.46136 -0.88486,11.46968 0.86371,17.05403 -2.37832,4.79634 -3.54348,-2.08084 -4.55901,-3.73705 -0.87458,-2.28651 -3.04379,-1.80376 -4.17959,-3.91795 -1.67888,-0.75181 -3.88016,-4.57742 -4.99891,-2.582 3.81578,8.02594 7.89092,17.00697 4.87983,26.11698 -0.10814,3.76364 4.83265,0.43748 5.42993,-1.86076 4.00676,-2.0179 9.80468,-1.57397 13.56999,-4.53173 3.82678,1.38189 -0.25555,6.93053 -0.62247,8.83254 0.667,0.1036 1.34826,0.14649 2.02267,0.12059 z m -4.19648,-1.8168 c 1.87518,-1.65899 0.93018,-3.371 -1.49188,-1.87546 -4.30133,0.77288 0.0941,1.70478 1.49188,1.87546 z m 49.47664,-4.59868 c -2.9469,-6.47039 -8.2143,-12.00108 -10.16003,-18.83215 0.69169,-2.65895 -2.80946,-5.19941 -3.07995,-8.08131 -2.29169,-4.778 0.189,-11.272226 -3.07371,-15.391133 -6.8642,-3.352387 -12.63773,-8.759082 -18.98372,-12.95528 -3.3626,-1.820932 -7.48003,1.406925 -11.18247,-0.4839 -5.85331,-1.575776 -11.57081,-3.580832 -17.47401,-4.91305 -8.97667,-3.597836 -18.371675,-8.434475 -28.16612,-7.71809 -1.552999,1.688033 -1.088935,9.150136 0.71446,6.06825 -0.295899,-2.226514 2.252563,-1.795071 3.89087,-1.27549 3.221324,1.404011 5.96548,3.74155 8.8164,5.55771 -0.77946,-3.888012 3.65273,-3.85439 5.80926,-1.91987 2.66496,1.016005 4.41769,3.972941 6.80149,4.90997 0.57357,-3.166563 3.76179,-2.0256 4.09028,0.70216 0.98313,2.028311 2.04634,4.497309 3.09569,6.26784 5.79614,-2.112068 12.54492,-1.993357 17.83398,1.30002 1.25117,4.334196 -6.86644,2.483025 -6.61271,5.70142 2.179,2.759828 5.94839,4.135479 8.03872,6.73858 -1.55863,4.361473 3.15139,3.831573 6.05537,3.119803 4.54206,-2.25386 4.15931,4.00596 4.60664,6.79482 0.317,3.90255 2.37949,6.72084 2.13967,10.74512 0.47164,2.1642 0.98632,4.65238 3.38702,2.86557 6.97028,-3.41334 12.86319,3.56845 18.1512,7.09553 1.56223,1.15196 3.84649,4.05575 5.30167,3.70348 z m -67.17659,-2.29337 c 0.0962,-5.122 -1.91578,-10.26034 -4.39743,-14.49123 -2.95117,-0.45894 -0.82404,-4.21952 -1.84913,-6.12212 1.15269,-3.54149 -3.18435,-5.88325 -5.78639,-7.55871 -3.990254,-3.60432 -9.40522,-3.70151 -14.51937,-4.049963 1.18107,1.689103 5.714031,5.027043 1.65352,6.409513 -3.781738,0.2074 -6.556968,0.57641 -2.62687,3.31493 3.341204,2.74047 -0.508939,5.89123 -3.41777,6.32662 -0.70072,3.07713 3.455593,4.397 5.67999,5.19989 2.012763,1.6507 4.204697,2.49566 5.07272,-0.8999 3.896045,-1.14951 8.044,2.8492 9.92718,6.05655 -0.4493,2.13606 3.11866,4.02664 4.34464,3.87365 0.49433,-4.50614 4.54521,2.77324 5.91891,1.94077 z m -68.4045,-0.12123 c 1.939611,-6.16634 4.743315,-12.6349 4.661006,-19.03864 -1.230272,-1.05272 -2.184288,0.58826 -3.719916,-1.72044 -2.180187,-2.5809 1.120814,-5.43829 3.21747,-2.69629 3.579882,1.88405 1.982293,-8.2569 1.662524,-10.936693 -0.25775,-4.156749 -3.419936,0.726562 -5.09023,1.12787 -4.197105,-3.940671 -7.755196,-9.704901 -13.749764,-11.68603 -6.164944,-2.753967 -6.673756,1.777671 -7.592518,5.52009 -2.106765,-0.734389 -2.710952,-4.461661 -5.351789,-4.08279 -3.401681,-1.947071 -0.666145,7.794129 -5.562133,3.43874 -1.835889,-1.052356 -2.204919,4.49475 -4.7824575,1.4642 -4.4721164,-5.426387 -2.9073098,3.535461 -3.67865,6.61583 -0.4677056,4.755003 -1.8408697,9.658493 -1.752398,14.289063 4.6947655,2.08618 8.6791895,5.82062 14.2002515,5.61525 9.976201,0.64723 17.905754,8.10826 26.677008,11.44212 0.154949,0.3506 0.306422,1.04371 0.861596,0.64772 z m 164.14109,-5.25279 c 0.30585,-3.05221 1.31483,-4.86966 3.61191,-6.23848 2.69961,-1.08098 5.91831,-1.02231 8.06808,-2.67872 1.63647,-0.36359 5.51434,1.41774 5.08,-1.17998 -0.004,-3.03286 3.21864,-0.11827 5.13058,-1.67994 -0.36156,-1.87158 -1.7102,-6.9821 1.8915,-5.74333 2.58314,1.56026 1.87087,-2.69532 4.33769,-3.15185 -0.31417,-1.56891 -1.65452,-3.75847 -2.22109,-1.0849 -3.39362,4.51437 -10.30002,2.86784 -14.37123,0.20958 -0.722,-4.26075 -6.74714,-3.30524 -9.62862,-5.179863 -1.73406,-2.267764 -4.04222,-3.99246 -3.73876,-7.02555 -0.52732,-1.955062 -3.46879,-2.464551 -2.11995,-4.85263 -2.18847,-2.036982 -5.77464,-2.476461 -8.49792,-4.11053 -2.85855,-0.954757 -6.29174,-0.67566 -8.34219,-3.27213 -3.63544,1.642614 -2.78803,-5.345342 -5.78277,-3.06504 -1.83226,0.991395 -5.74083,4.943103 -6.97711,1.69229 -0.15587,-3.032236 5.99838,-3.047885 5.17987,-5.71701 -5.54889,-4.192986 -11.19289,-8.165123 -16.79946,-12.31968 -4.2397,-1.099889 0.15733,2.590985 0.77949,4.15563 2.64155,6.17921 -5.52692,6.044315 -8.95995,3.58656 -1.39078,-0.610722 -5.30584,-2.488568 -3.15703,0.21417 -0.0994,2.260198 -1.75096,3.973823 -2.78544,6.08116 -3.12321,-1.140955 -2.23634,2.667544 0.006,3.11213 5.6336,4.015525 10.96633,8.779864 17.58328,11.252175 1.6326,5.465946 0.74282,11.391148 2.55844,16.756838 9.4609,0.71646 19.26531,0.89765 28.5548,0.57379 3.50217,2.3699 -2.62675,3.56126 -3.70462,4.60956 0.26205,2.43951 1.63389,3.40407 1.94394,5.72359 3.32366,3.76482 9.26645,4.5501 11.8608,9.36634 -0.0456,0.21314 0.55385,-0.19435 0.49976,-0.0342 z m 40.6,-10.29485 c -1.26366,-2.72405 1.48356,-3.37223 3.33899,-3.12428 1.33542,-2.26884 1.72057,-8.39668 5.06617,-6.35656 2.8564,2.5958 4.19877,6.58622 6.25823,9.49838 3.37766,-2.85053 -1.83767,-6.31849 -2.81434,-8.88056 0.56703,-1.90255 1.99598,-3.35054 -0.75925,-4.11625 -2.40974,-0.6676 -3.9022,-3.701545 -0.86767,-4.756792 2.82938,0.581102 4.33136,0.830258 4.77815,-2.568838 3.22882,-0.119044 4.0468,-3.453278 7.94593,-1.15441 4.41895,1.283069 7.34356,5.32225 12.4541,4.2437 2.01623,0.13822 5.18444,3.62511 5.99049,2.03246 0.13198,-11.599295 -1.86843,-23.651071 1.68956,-34.88587 -7.37814,1.032177 -15.57722,2.710708 -20.29254,9.0111 -3.33149,-0.782392 -5.21307,3.767362 -8.3885,4.88594 -2.7941,2.749177 -6.97623,3.905158 -10.19896,5.549 -1.04587,3.02686 -5.27743,0.935579 -7.64004,2.24457 -2.00168,-0.995769 -2.78472,-0.756272 -4.88165,0.01581 -1.16548,-2.35372 3.16701,-4.230848 0.46525,-7.01606 -1.59468,-2.798001 1.59515,-7.322294 -0.1439,-10.25742 -6.79687,-1.747215 -13.82855,-2.444558 -20.83706,-2.58742 0.45398,2.827402 -2.33878,2.561129 -3.62856,3.60187 -0.98636,1.890172 3.12308,3.568161 3.86547,5.59238 1.20703,2.38459 5.61252,5.078511 3.60009,7.76836 -2.84467,1.925294 -9.29066,-3.639679 -8.83074,2.14636 -1.03638,5.229411 -0.85242,10.162116 2.5489,3.76366 1.58522,-3.338665 4.27282,0.735287 4.16201,2.91319 1.62461,2.906518 7.24206,6.50874 8.91998,1.76795 2.10929,0.780137 2.80178,2.05463 4.95734,2.11782 2.23306,2.56136 1.86089,8.63568 6.43047,7.83277 1.96607,2.04194 -1.77534,4.80379 1.29229,6.47399 1.35387,1.17755 3.99224,5.62733 5.51979,4.24515 z m 49.89921,-1.81504 c 9.58464,3.03044 8.2361,-6.37371 8.14079,-12.42663 1.29369,-10.099741 -2.31563,-19.984024 -1.12974,-30.140613 -0.32477,-2.785563 -3.98619,-3.97243 -5.46089,-6.3175 -4.02329,-1.408834 -6.30455,1.22214 -6.68767,4.85906 -1.85411,11.017662 -0.57278,22.354668 -0.16265,33.469893 0.17267,3.58312 2.64173,6.7883 2.98279,10.52853 l 0.43915,0.021 1.87836,0.006 z m -243.6552,-1.29732 c 0.0348,-3.42962 5.110409,-3.1314 5.89045,-6.49249 1.796436,-4.43935 6.84808,-5.32694 10.9698,-3.45738 3.111399,-0.28059 10.926873,1.80177 11.77205,-0.68013 -1.945379,-1.66852 -7.280777,-2.957051 -5.3295,-6.072243 3.77128,-1.229849 8.212323,1.116916 11.7732,0.22038 -1.439355,-4.197581 -5.190497,-8.662475 -3.66369,-13.116 2.669235,-1.533149 5.455225,2.860902 8.40587,3.26449 3.28988,0.837116 6.68703,5.096843 9.57743,2.70321 0.34759,-4.060203 4.43637,-5.331833 7.6803,-2.94324 1.59971,0.879933 4.3518,3.36008 5.22353,0.78564 -0.0787,-4.100764 -3.68473,-1.743185 -5.37524,-4.08076 -2.21255,-2.032807 -5.22187,-5.777745 -7.90681,-5.55162 0.89555,4.434039 -3.9409,4.284406 -6.0331,1.87291 -1.711262,-1.190901 -4.068967,-3.730309 -5.8685,-3.18786 0.637822,1.966276 4.355164,4.140687 1.51743,6.15313 -3.926455,-0.35215 -4.646025,-5.497427 -8.26688,-6.30306 -1.964872,2.640378 -4.958015,-0.860178 -7.49043,-1.07055 1.561986,4.663376 -3.915322,4.325349 -6.15996,2.04729 -3.719583,-1.919305 -6.741851,-5.307183 -10.64062,-6.61212 0.325049,5.356478 -1.950346,12.531321 -8.52718,12.31506 -4.088891,-3.171141 -1.78226,5.822197 -5.306796,2.76754 0.03917,-2.949089 -1.046729,-6.441008 -4.113846,-7.79237 -4.419946,-3.646249 -6.690219,-9.566798 -11.831706,-12.20039 -3.292482,1.86278 -5.560243,5.953161 -6.951348,9.27257 2.413142,1.684855 -1.101041,3.31649 -2.348553,2.78118 -1.906575,2.081938 -2.565322,7.650941 -0.156818,8.3062 3.479917,-4.384256 10.864206,-2.841217 14.656812,0.739 3.308293,2.190611 5.648248,5.643143 8.523776,8.10069 2.211251,-0.245318 3.972558,-5.929147 5.79373,-2.55006 3.376051,5.893347 1.468109,13.161713 1.350054,19.287423 0.712963,0.25898 2.688522,3.07556 2.836545,1.49356 z M 56.0585,79.743007 c 6.74407,-1.121199 2.048942,-10.381973 6.196656,-13.47177 1.918979,0.537303 4.011858,2.995388 5.5765,2.84926 -2.414177,-1.960526 -0.382556,-5.147972 -1.84104,-8.064948 -0.316248,-4.376572 -1.961918,-8.83234 -2.87667,-12.78792 2.089485,-3.68717 4.553628,2.389175 6.62901,3.444326 2.384962,1.48385 4.315736,4.960856 6.89022,5.342812 2.126936,-3.978878 -2.649635,-9.147318 -0.07151,-13.08645 3.614722,0.518557 6.142528,3.956479 9.28008,5.852746 2.242502,1.331139 4.189383,4.591716 6.67913,4.65449 4.275853,-1.868152 4.462725,-6.68374 3.29594,-10.577396 1.32463,-3.346656 5.123434,0.04189 7.326294,0.886832 1.94702,1.510263 4.15995,3.284572 6.19129,0.951482 4.02264,-4.338281 1.90727,-11.556324 3.37698,-16.364098 3.68898,-1.446292 7.51284,2.008721 10.64314,3.37093 2.78849,2.817392 4.28969,6.487344 5.57036,10.026058 2.63604,1.917268 3.25137,6.785102 7.36624,5.845894 3.90229,-1.916243 6.43056,5.256214 5.65772,-0.953056 0.80486,-2.50251 4.07569,0.132695 4.48263,-2.890864 -5.5453,-5.584769 -13.66692,-8.21699 -18.60317,-14.709268 -4.759,-6.047306 -12.11853,-9.347976 -18.73402,-12.846523 -2.05237,-3.034109 -6.09521,-5.176908 -6.57419,-8.8681707 2.68159,-2.6013958 4.11107,2.7076597 6.19121,4.0795467 2.42787,3.032307 6.85694,5.560968 10.46943,4.597859 2.65704,-1.975753 5.05751,-4.750818 7.67856,-6.362425 6.80489,6.388419 14.23266,13.248463 23.78429,15.479559 2.21823,0.968558 6.30888,1.518605 3.59027,-1.601793 -1.41947,-3.707909 -4.38038,-7.467453 -4.32227,-10.976543 4.90772,-2.095491 10.64968,-2.691846 15.57465,-4.4400117 2.83064,-1.3421607 5.12571,-1.4586477 7.45196,1.1568977 6.56595,2.867734 13.85591,4.141885 19.8746,8.196242 2.19269,1.500068 4.79223,1.879761 6.89119,3.038844 1.36386,3.785734 5.94328,1.59054 9.1876,1.435855 3.41259,-0.101608 2.55132,-0.754998 1.50139,-2.873863 2.83233,-3.00019 8.88881,0.303279 12.92712,0.07944 2.19198,2.518325 4.76284,-1.858003 6.82593,-3.020897 4.48915,-4.113754 10.40186,-6.744431 15.28545,-10.0044187 -12.44396,-0.6042002 -25.90691,0.6005979 -38.76,0.215587 -15.7434,-1.9282714 -31.59598,-5.4852578 -47.44109,-2.791154 -12.1435,0.9372435 -24.36115,-0.2281551 -36.54594,0.8181061 -14.77903,1.5613089 -29.637767,1.1941041 -44.458694,0.4528939 -0.666521,4.9451537 6.16098,7.9200147 4.78425,12.6260217 -7.931148,3.60842 -17.999598,0.253504 -25.76407,4.596721 -2.754209,6.038487 7.049021,11.509544 2.685744,17.55028 -6.938799,4.97903 -16.5832,1.595943 -23.86,5.03967 -4.708126,4.460572 -12.225489,0.291908 -17.43178,2.804318 1.819963,2.434098 3.358739,6.875286 6.4764,7.28298 1.381924,-2.693923 5.618861,0.486903 6.757789,-2.794304 4.351882,-3.877214 9.565271,1.478336 12.357575,4.898048 4.251902,6.002612 6.020518,13.342255 6.034446,20.613879 1.821467,0.795884 3.746811,1.626291 5.7924,1.29829 z m 132.56071,-4.14747 c 5.31366,-5.674586 10.34069,-12.17256 15.81253,-17.366028 -1.6762,-2.327666 -6.25111,-5.352538 -8.34155,-1.953886 -4.25,2.219616 1.57808,3.905196 0.19854,6.844664 -4.6107,2.441077 -10.89401,-0.950854 -15.377,0.93579 2.1351,2.921692 9.79229,3.888291 7.58681,8.78089 -1.43576,0.75768 -2.37118,3.161615 0.12067,2.75857 z M 47.005564,75.305667 c 0.223389,-7.321557 -2.798422,-15.897558 -9.4125,-19.589974 -1.261842,1.756927 -0.535592,5.455837 -3.855742,5.713124 -1.64725,1.589501 2.81929,2.305873 3.676363,3.84694 3.711842,2.976941 5.447144,8.005338 9.566193,10.36001 z M 184.8594,71.804777 c 1.1732,-1.908969 -5.92409,-4.364827 -2.86712,-2.00916 1.06405,0.501252 1.62087,2.18576 2.86712,2.00916 z M 80.24221,70.449187 c -2.157928,-4.443254 2.483847,-4.243221 4.25324,-1.23363 2.240636,1.141733 0.979173,-3.588613 2.1363,-4.96798 1.407466,-4.447048 8.2974,-1.045912 11.85602,-1.29569 2.99259,2.082007 3.50038,-1.087705 6.22119,-1.916088 2.28271,-0.884443 0.58598,-5.304558 3.74605,-4.148436 1.51918,-3.416484 1.52954,-8.099066 -2.33312,-5.85156 -2.07294,-1.463142 -4.36145,-3.814295 -6.76982,-4.001148 1.02086,5.295261 -3.193105,9.328653 -7.10029,11.761154 -4.718105,-2.341798 -8.024011,-7.217957 -12.86,-9.320004 0.514466,4.009825 2.579756,9.264092 -1.9199,11.493068 -2.486797,1.523037 -4.496494,-2.696111 -6.74277,-3.900252 -2.430204,-2.988017 -2.751709,-0.163367 -1.85767,2.461508 0.654173,2.440465 0.755712,6.472494 3.73188,7.076662 -0.479814,-4.084198 2.8962,-1.805938 3.31125,0.53614 0.757328,1.579709 2.442357,3.501932 4.32764,3.306256 z m 99.82952,-2.5925 c -1.82894,-1.497662 -5.16093,-5.035558 -1.4836,-6.53692 3.70363,-3.141039 9.39239,0.558905 13.12376,-0.763608 -1.59938,-4.15329 3.24823,-6.635179 5.35886,-9.240536 3.83158,0.07273 7.33007,3.217215 10.33122,4.765156 5.05024,-3.601558 10.33529,-7.339421 15.19,-10.908714 -3.64429,0.189647 -8.63521,1.653294 -12.46547,2.604618 -2.04306,-1.874853 -1.87988,-3.627753 -5.17456,-3.684776 -3.01876,-1.967185 -9.78549,2.612482 -10.36,-1.459428 3.37732,-1.571457 5.12277,-3.304193 -1.15624,-2.140551 -1.76059,0.88398 -8.0734,0.885995 -5.2857,-1.949891 1.48272,-2.037163 5.92517,-2.160894 6.36661,-4.197014 -2.7504,-0.817659 -9.74014,1.715818 -9.09456,-3.110029 -5.55306,-3.162198 -11.0474,-6.825841 -17.13624,-8.726915 0.10273,6.50081 0.0631,13.383758 0.02,19.649541 2.98836,1.377789 6.7599,1.758001 5.92266,-2.69898 -1.37355,-2.436943 1.02688,-8.117076 3.33395,-4.103034 2.95279,2.908329 6.7292,5.513839 8.78418,9.06 -0.0382,3.389624 -6.74765,3.137416 -5.92011,6.595586 2.22437,2.484936 2.30599,6.471474 -1.55236,7.224406 -2.76216,0.214193 -5.73654,3.823321 -7.43553,0.19999 -1.37259,-1.964397 -3.25142,-3.175333 -4.56139,-0.392792 0.94954,2.434546 4.79964,3.685304 6.82564,5.772791 1.87734,1.304489 4.46058,4.08392 6.36883,4.0411 z m 63.28289,-0.39102 c 0.91152,-1.911801 5.11629,-2.864646 4.43713,-4.84154 -8.23612,-3.499298 -14.64048,-9.873851 -21.49779,-15.325066 -5.46252,1.987937 -9.88275,6.586682 -14.89331,9.76651 -3.74222,1.767461 2.03161,3.315592 3.26773,5.009996 2.05042,2.172967 4.30409,3.856199 7.46718,2.89387 7.09986,-0.182126 14.42457,1.72692 21.21906,2.49623 z m 35.02852,-0.09 c 5.84474,-3.398824 13.03834,-3.303187 19.16859,-5.46899 -2.52336,-2.667205 -6.17774,-4.702098 -9.36003,-6.711098 -7.85528,-4.507203 -15.03531,-10.689919 -24.07999,-12.646964 -4.92686,-1.730169 -15.46436,2.559661 -16.80459,-3.155418 3.06052,-2.285746 6.63673,-4.354303 8.77461,-7.298826 3.11394,-1.37613 6.98629,-3.48692 7.94112,-6.882545 -1.94222,-1.258238 -7.1082,-2.020542 -9.72122,-0.997577 -6.98583,5.56969 -14.27521,11.117555 -20.8937,17.371791 -1.46198,1.433633 -6.23552,3.330659 -2.94009,5.14978 6.36993,5.189161 12.70341,11.407069 20.71604,13.641045 2.63122,-1.553651 4.56506,-4.490508 8.29722,-3.547886 1.96176,1.441723 2.83965,2.998159 5.43101,0.753776 3.69009,-0.117904 0.89789,4.096596 1.49728,5.452828 1.81691,-1.083106 6.27164,-2.45492 4.68074,1.16208 0.19944,1.972207 5.67597,-0.357921 6.25656,2.78497 0.44337,0.175269 0.001,0.83162 1.03645,0.393034 z m 28.47604,-4.95 c 0.42042,-8.779153 -4.72283,-17.421875 -1.42407,-26.180552 1.46861,-8.730666 -2.50066,-17.151831 -2.9085,-25.787131 -1.20916,-3.1013106 -1.59071,-2.5776171 -1.85497,0.499319 -4.17111,4.219124 -7.179,10.467719 -13.1667,12.394148 -2.91182,0.987259 -0.49322,5.64178 -4.43865,4.79976 1.48872,1.619636 6.41329,0.860167 9.07552,2.317747 3.05402,1.441114 7.04175,1.896721 9.02314,4.526768 0.14983,4.035723 -5.59482,2.425194 -7.97375,4.335546 -3.76428,1.741939 -9.03777,2.132485 -11.33962,5.624457 -2.1167,1.221127 -0.64353,2.335035 1.31203,3.220102 6.01897,3.861139 12.20492,7.579807 18.43716,11.149484 1.11962,0.96869 4.76994,4.850811 5.25841,3.100352 z M 164.17869,56.389191 c 1.84,-1.498773 3.69248,-6.280239 6.31097,-2.960134 1.88052,1.664298 3.27565,3.785808 6.00561,2.205122 5.35249,-0.861043 -3.19832,-7.000824 2.01058,-8.79819 1.92198,-1.177606 5.75131,-2.565723 2.27589,-4.685882 -1.34523,-1.463136 -5.11346,-5.383954 -4.25247,-0.894789 -0.75901,2.462184 2.9925,7.416763 -2.44074,5.509504 -4.26719,-1.47765 -9.47625,-1.624503 -12.46511,-5.084262 -2.85812,-1.235259 -6.54429,-3.406573 -9.15154,-3.212924 1.1278,2.679938 -3.16991,5.620369 0.16002,7.213892 3.66643,3.57958 6.93305,7.885696 11.06006,10.78114 l 0.48696,-0.07349 z m -25.33307,-1.926716 c 4.14431,-2.428945 -1.54411,-4.442529 -2.09389,-2.201436 0.9487,0.515292 0.69916,3.053309 2.09389,2.201436 z m 16.62611,-1.153664 c -1.92078,-2.196359 -4.18511,-5.57264 -6.93493,-6.218184 -3.2489,2.715316 2.09429,3.360808 3.80733,4.760552 0.89857,-0.05025 2.55114,2.42808 3.1276,1.457632 z M 8.9117315,52.713059 c 1.7381925,-0.972465 6.5027875,-0.335704 5.1791505,-3.290522 -2.034394,-3.635851 1.706944,-4.197366 4.23039,-4.191968 5.855421,-1.689708 13.121625,1.373405 17.830462,-3.373698 7.12434,-1.38065 15.165964,0.08356 21.736516,-3.351694 0.689704,-5.879707 -6.79409,-10.483263 -3.242808,-16.532349 5.692375,-5.857708 15.329555,-3.545529 22.666308,-5.145136 3.539348,0.54452 2.125475,-2.408734 0.47907,-3.817832 C 76.166244,10.920086 75.012921,8.1991973 75.32204,5.8004263 62.152934,4.8355875 48.999903,5.9706282 35.864993,6.9956113 c 1.172188,3.3132777 6.796268,4.2221407 7.110804,7.9514177 -1.837314,2.646404 -5.188989,-0.134926 -7.497489,0.288598 -2.665574,-1.44857 -5.610552,-2.611515 -8.226919,-2.275278 1.08991,5.222386 0.353875,11.828507 -3.690083,15.475279 -5.030865,0.445556 -8.539162,-4.93683 -12.829574,-6.564611 -7.3603627,1.970809 -0.393263,16.092149 -3.0659655,22.324631 0.8425535,1.847932 -1.4739102,8.563413 1.245965,8.517411 z m 9.1508655,-0.392224 c -0.838681,-1.989702 -0.65048,1.465012 0,0 z m 96.449133,-4.727268 c 2.01293,0.03865 9.75906,0.326995 7.68833,-2.588348 -2.22196,-1.986744 -5.04399,-4.431571 -7.68833,-4.965857 -0.17129,2.519321 -2.1712,5.690439 -2.01411,7.534709 l 0.41406,0.03929 1.6,-0.01978 z m 164.3453,-2.544784 c -0.0292,-3.469155 -3.21627,-6.076132 -5.54163,-8.212621 -2.46793,0.686474 -3.84212,3.636061 -1.81551,4.974377 2.56839,0.732629 4.91182,2.632048 7.35714,3.238244 z m -52.6472,-1.930044 c 0.97167,-0.631775 5.97267,-3.43835 3.14476,-3.283076 -1.6801,0.817091 -5.86548,0.248671 -5.97279,1.932732 1.51631,-0.224605 1.60128,1.422684 2.82803,1.350344 z m -78.2581,-1.823076 c 1.81083,-0.726998 4.05015,-4.690082 0.71917,-4.621378 -5.08632,-1.772784 -9.96972,-4.403048 -15.23912,-5.518614 3.64811,3.699834 9.22597,5.926619 13.23785,9.597863 0.41293,0.210648 0.74486,0.80193 1.2821,0.542129 z m 17.42042,-1.63 c 0.61315,-6.809637 -0.42601,-13.695769 0.37373,-20.39089 1.84697,-2.407938 4.94225,1.220786 7.20581,1.984382 5.89913,2.513488 11.20138,6.100066 17.068,8.700498 1.78846,-0.168687 7.2667,-1.658773 2.81116,-2.191818 -2.84859,-3.499286 5.2715,-1.735558 4.60835,-3.684266 -7.30234,-5.25212 -16.04952,-8.092752 -24.55007,-10.927906 -2.42547,-1.221472 -4.33684,-2.78857 -6.96794,-1.204572 -4.05582,1.528705 -8.30353,2.36958 -12.4599,3.536004 1.08689,4.973481 5.37272,9.305153 5.77065,14.22875 -2.32591,1.907649 -6.85772,0.04611 -10.02021,-0.640176 -6.23091,-1.753876 -12.04078,-5.053416 -17.00768,-9.408816 -2.28625,-1.063259 -4.82244,-7.078897 -7.43534,-3.23193 -1.91702,1.533854 -5.79241,3.699638 -1.63702,5.240744 3.59128,3.615217 8.08978,5.915916 13.15309,6.837325 9.46033,4.075345 19.54679,6.639716 28.75613,11.238601 l 0.33118,-0.08591 z m 68.13958,-2.09 c 5.32924,-5.091533 11.29431,-9.70176 16.95999,-14.193048 -1.79343,-4.595795 1.09495,-10.266775 -0.50004,-15.0363417 -6.86499,3.2927777 -13.89139,7.1324227 -19.49728,12.4990907 -0.24032,2.011365 5.11716,0.352897 5.55741,3.287888 -0.6054,2.534313 -6.46089,-1.681652 -7.17223,2.022354 -3.56985,1.855437 -3.66707,5.793939 1.41238,4.523292 3.30658,2.813208 -5.53031,3.625914 -1.52096,5.138322 1.62737,0.85426 3.64028,0.939449 4.76073,1.758443 z m -113.64817,-1.37 c -0.58422,-1.366815 -5.22196,-4.491631 -4.60721,-1.81 1.50312,0.226047 3.40694,2.50305 4.60721,1.81 z m 151.86908,-2.404526 c 2.89839,-2.284376 6.58096,-4.335212 8.36369,-7.44547 -3.12073,-0.756229 -6.22433,-1.781438 -9.39509,-2.400008 -1.49363,3.038677 -1.20285,2.566366 1.86976,3.236685 1.45214,2.969792 -4.54912,3.162639 -1.67703,5.816077 0.17105,0.406911 0.18839,1.063624 0.83867,0.792716 z m 9.39211,-10.301702 c 2.74675,-0.650594 4.9307,-3.313557 7.91079,-4.119784 3.96155,-3.322437 7.58205,-7.531648 10.31619,-11.8115267 -7.62038,-1.3005808 -14.97353,0.9813055 -22.56,-0.221484 -9.51993,-4.6471953 -8.71481,9.0392727 -6.68861,13.0090537 3.6112,1.250087 7.33621,2.260335 11.02163,3.143741 z m -15.89302,-2.187691 c 1.52985,-4.237656 1.29121,-9.185369 1.45473,-13.6954655 -5.31968,0.6630736 -17.70915,-3.3209513 -12.55114,6.1793345 1.93752,1.474689 0.39719,4.121117 3.50321,3.939091 -0.80781,3.963074 2.3002,2.711986 5.31312,3.563075 0.75571,0.08886 1.52452,0.142158 2.28008,0.01397 z M 14.695699,10.445663 c 3.59261,-4.0284996 -8.814186,-1.3127145 -2.388293,-0.6342017 0.846499,0.061163 1.493232,0.9585107 2.388293,0.6342017 z"
       id="path116" />
  </g>
</svg>
